<svg width="22" height="24" viewBox="0 0 22 24" fill="none" xmlns="http://www.w3.org/2000/svg">
<path d="M12.2876 8.58895C12.0846 8.08629 11.6011 7.76159 11.0572 7.76159H10.9427C10.3988 7.76159 9.91534 8.08634 9.71224 8.58899C9.12554 10.0409 7.73517 10.9785 6.16919 10.9786H6.16731H6.16727L2.82499 10.977L2.81253 10.977L2.80046 10.98C2.28652 11.1098 1.92009 11.575 1.92009 12.1104C1.92009 12.7534 2.44304 13.2763 3.08599 13.2763H5.38889L3.35247 19.2181L3.44706 19.2505L3.35246 19.2181C3.07434 20.0297 3.20095 20.8967 3.69968 21.5948C4.1984 22.2928 4.97749 22.6938 5.83539 22.6938H16.1647C17.0226 22.6938 17.8017 22.2928 18.3003 21.5948C18.7991 20.8966 18.9257 20.0296 18.6476 19.2181L16.611 13.2763H18.9139C19.5569 13.2763 20.0798 12.7534 20.0798 12.1104C20.0798 11.575 19.7134 11.1098 19.1994 10.98L19.1873 10.977L19.1749 10.977L15.8326 10.9786H15.8325H15.8307C14.2646 10.9786 12.8744 10.041 12.2876 8.58895ZM12.2876 8.58895L12.1949 8.62641L12.2876 8.58894C12.2876 8.58894 12.2876 8.58895 12.2876 8.58895ZM19.672 9.79252V9.86211L19.7373 9.88629C20.6537 10.2258 21.2862 11.1078 21.2862 12.1104C21.2862 13.4184 20.2219 14.4826 18.914 14.4826H18.4396H18.2996L18.345 14.615L19.7886 18.827C20.1949 20.0125 20.0103 21.2762 19.2818 22.2959C18.5534 23.3157 17.4178 23.9 16.1646 23.9H5.83539C4.58218 23.9 3.44666 23.3157 2.7182 22.2959C1.98974 21.2762 1.80515 20.0125 2.21144 18.827L3.65505 14.615L3.70044 14.4826H3.56045H3.08603C1.77814 14.4826 0.713892 13.4184 0.713892 12.1105C0.713892 11.1079 1.34631 10.2259 2.26273 9.88633L2.32799 9.86215V9.79256V8.77205C2.32799 3.99034 6.21832 0.1 11 0.1C15.7817 0.1 19.6721 3.99034 19.672 8.77205V9.79252ZM18.3659 9.77116L18.4658 9.77111V9.67116V8.77205C18.4658 4.65529 15.1168 1.30625 11 1.30625C6.88327 1.30625 3.53424 4.65529 3.53424 8.77205V9.67116V9.77111L3.63419 9.77116L6.16797 9.77238H6.16802H6.16803H6.16803H6.16804H6.16805H6.16806H6.16807H6.16808H6.16809H6.1681H6.16811H6.16812H6.16812H6.16813H6.16814H6.16815H6.16816H6.16817H6.16817H6.16818H6.16819H6.1682H6.16821H6.16821H6.16822H6.16823H6.16823H6.16824H6.16825H6.16826H6.16826H6.16827H6.16828H6.16829H6.16829H6.1683H6.16831H6.16831H6.16832H6.16833H6.16834H6.16834H6.16835H6.16836H6.16837H6.16837H6.16838H6.16839H6.16839H6.1684H6.16841H6.16842H6.16842H6.16843H6.16844H6.16845H6.16845H6.16846H6.16847H6.16848H6.16848H6.16849H6.1685H6.1685H6.16851H6.16852H6.16853H6.16853H6.16854H6.16855H6.16856H6.16856H6.16857H6.16858H6.16859H6.16859H6.1686H6.16861H6.16862H6.16862H6.16863H6.16864H6.16865H6.16865H6.16866H6.16867H6.16867H6.16868H6.16869H6.1687H6.1687H6.16871H6.16872H6.16873H6.16873H6.16874H6.16875H6.16876H6.16876H6.16877H6.16878H6.16879H6.16879H6.1688H6.16881H6.16882H6.16882H6.16883H6.16884H6.16884H6.16885H6.16886H6.16887H6.16887H6.16888H6.16889H6.1689H6.1689H6.16891H6.16892H6.16892H6.16893H6.16894H6.16895H6.16895H6.16896H6.16897H6.16897H6.16898H6.16899H6.169H6.169H6.16901H6.16902H6.16903H6.16903H6.16904H6.16905H6.16906H6.16906H6.16907H6.16908H6.16909H6.1691H6.1691H6.16911H6.16912H6.16913H6.16914H6.16915H6.16916H6.16917H6.16917H6.16918H6.16919H6.1692H6.16921H6.16922H6.16923C7.24063 9.77238 8.19255 9.13044 8.59394 8.13709C8.98221 7.17618 9.90386 6.55539 10.9428 6.55539H11.0573C12.0962 6.55539 13.0179 7.17618 13.4061 8.13713L13.4061 8.13714C13.8075 9.13039 14.7595 9.77238 15.8308 9.77238H15.8308H15.8308H15.8309H15.8309H15.8309H15.8309H15.8309H15.8309H15.8309H15.8309H15.8309H15.8309H15.8309H15.831H15.831H15.831H15.831H15.831H15.831H15.831H15.831H15.831H15.831H15.831H15.831H15.8311H15.8311H15.8311H15.8311H15.8311H15.8311H15.8311H15.8311H15.8311H15.8311H15.8311H15.8312H15.8312H15.8312H15.8312H15.8312H15.8312H15.8312H15.8312H15.8312H15.8312H15.8312H15.8312H15.8313H15.8313H15.8313H15.8313H15.8313H15.8313H15.8313H15.8313H15.8313H15.8313H15.8313H15.8314H15.8314H15.8314H15.8314H15.8314H15.8314H15.8314H15.8314H15.8314H15.8314H15.8314H15.8314H15.8315H15.8315H15.8315H15.8315H15.8315H15.8315H15.8315H15.8315H15.8315H15.8315H15.8315H15.8316H15.8316H15.8316H15.8316H15.8316H15.8316H15.8316H15.8316H15.8316H15.8316H15.8316H15.8317H15.8317H15.8317H15.8317H15.8317H15.8317H15.8317H15.8317H15.8317H15.8317H15.8317H15.8318H15.8318H15.8318H15.8318H15.8318H15.8318H15.8318H15.8318H15.8318H15.8318H15.8318H15.8318H15.8318H15.8319H15.8319H15.8319H15.8319H15.8319H15.8319H15.8319H15.8319H15.8319H15.8319H15.8319H15.8319H15.8319H15.832H15.832H15.832H15.832H15.832H15.832H15.832H15.832H15.832H15.832H15.832H15.832H15.8321L18.3659 9.77116Z" fill="#7B8E98" stroke="white" stroke-width="0.2"/>
<path d="M8.48197 5.54462C8.48197 5.15629 8.16056 4.84149 7.77223 4.84149C7.38391 4.84149 7.0625 5.15629 7.0625 5.54462C7.0625 5.93294 7.38391 6.24774 7.77223 6.24774C8.16056 6.24774 8.48197 5.93294 8.48197 5.54462Z" fill="#7B8E98"/>
<path d="M14.9373 5.54462C14.9373 5.15629 14.6159 4.84149 14.2276 4.84149C13.8393 4.84149 13.5179 5.15629 13.5179 5.54462C13.5179 5.93294 13.8393 6.24774 14.2276 6.24774C14.6159 6.24774 14.9373 5.93294 14.9373 5.54462Z" fill="#7B8E98"/>
<path d="M8.48311 13.5474C8.39612 13.1688 8.63254 12.7913 9.01116 12.7043C9.38977 12.6173 9.76722 12.8538 9.8542 13.2324L9.91795 13.5098C10.0049 13.8885 9.76852 14.2659 9.3899 14.3529C9.01128 14.4399 8.63384 14.2035 8.54685 13.8248L8.48311 13.5474Z" fill="#7B8E98"/>
<path d="M12.9979 12.6924C12.6193 12.6055 12.2418 12.8419 12.1548 13.2205L12.0911 13.4979C12.0041 13.8766 12.2405 14.254 12.6192 14.341C12.9978 14.428 13.3752 14.1916 13.4622 13.8129L13.526 13.5355C13.613 13.1569 13.3765 12.7794 12.9979 12.6924Z" fill="#7B8E98"/>
</svg>
