<svg width="24" height="24" viewBox="0 0 24 24" fill="none" xmlns="http://www.w3.org/2000/svg">
<path d="M18.2281 5.06875V4.96875C18.2281 3.47317 17.0112 2.25625 15.5156 2.25625C15.3039 2.25625 15.0941 2.28214 14.8876 2.33358L14.8214 2.35009L14.7819 2.29437C14.1485 1.40082 13.1131 0.85 12 0.85C10.8869 0.85 9.85143 1.40086 9.21813 2.29437L9.17863 2.35011L9.11235 2.33358C8.90595 2.2821 8.69616 2.25625 8.48438 2.25625C6.98879 2.25625 5.77187 3.47317 5.77187 4.96875V5.06875H5.67188H4.96875C2.28329 5.06875 0.1 7.23282 0.1 9.89062C0.1 10.2237 0.370041 10.4937 0.703125 10.4937H5.67188H5.77187V10.5938V16.9219C5.77187 20.3558 8.56558 23.1497 11.9994 23.15C11.9998 23.15 12.0002 23.15 12.0006 23.15M18.2281 5.06875L12.0006 23.15M18.2281 5.06875H18.3281H19.0312C21.7167 5.06875 23.9 7.23282 23.9 9.89062C23.9 10.2237 23.63 10.4937 23.2969 10.4937H18.3281H18.2281V10.5938V16.9219C18.2281 20.3558 15.4344 23.1496 12.0006 23.15M18.2281 5.06875L12.0006 23.15M9.67589 3.76603C9.85772 3.70322 10.0058 3.56864 10.0858 3.39366L9.12352 3.72619C9.29442 3.81445 9.49402 3.82889 9.67589 3.76603ZM9.64324 3.67151L9.64322 3.67152C9.48722 3.72544 9.31601 3.71305 9.1694 3.63734C8.94648 3.5222 8.71584 3.4625 8.48438 3.4625C7.65374 3.4625 6.97813 4.13812 6.97813 4.96875C6.97813 5.54633 7.31478 6.07988 7.8363 6.32901L7.83632 6.32903C7.96078 6.38844 8.0611 6.48879 8.12058 6.61329L8.21081 6.57019L8.12058 6.61329C8.29566 6.97976 8.38437 7.37251 8.38437 7.78125C8.38437 8.61189 9.05999 9.2875 9.89062 9.2875C10.7213 9.2875 11.3969 8.61189 11.3969 7.78125C11.3969 7.44817 11.6669 7.17812 12 7.17812C12.3331 7.17812 12.6031 7.44817 12.6031 7.78125C12.6031 8.61189 13.2787 9.2875 14.1094 9.2875C14.94 9.2875 15.6156 8.61189 15.6156 7.78125C15.6156 7.37251 15.7043 6.97976 15.8794 6.61329L15.8794 6.61327C15.9388 6.48881 16.0392 6.38849 16.1637 6.32902C16.6852 6.07993 17.0219 5.54633 17.0219 4.96875C17.0219 4.13812 16.3463 3.4625 15.5156 3.4625C15.2842 3.4625 15.0536 3.5222 14.8307 3.63734C14.684 3.7131 14.5127 3.72544 14.3569 3.67156L14.3569 3.67156C14.2009 3.61768 14.0738 3.50224 14.0052 3.35216L13.9143 3.3937L14.0052 3.35215C13.6457 2.5652 12.859 2.05625 12 2.05625C11.141 2.05625 10.3543 2.5652 9.99481 3.3521L9.9948 3.35211C9.92625 3.50221 9.7992 3.61764 9.64324 3.67151ZM14.3242 3.76608C14.5059 3.82889 14.7056 3.8145 14.8766 3.72619C15.0868 3.61758 15.3018 3.5625 15.5156 3.5625C16.291 3.5625 16.9219 4.19334 16.9219 4.96875C16.9219 5.50777 16.6074 6.00628 16.1206 6.23878L14.3242 3.76608ZM1.3799 9.16727L1.35506 9.2875H1.47783H5.67188C6.50251 9.2875 7.17812 8.61189 7.17812 7.78125C7.17812 7.62938 7.15612 7.48118 7.11235 7.33877L7.10127 7.30269L7.06911 7.28293C6.70098 7.0568 6.39573 6.74678 6.17398 6.3852L6.15431 6.35313L6.11837 6.34198C5.97474 6.2974 5.82519 6.275 5.67188 6.275H4.96875C3.20078 6.275 1.72054 7.51825 1.3799 9.16727ZM12.6031 21.7933V21.9087L12.7173 21.8923C15.1478 21.5431 17.0219 19.4476 17.0219 16.9219V10.2154V10.1578L16.972 10.1289C16.7168 9.98084 16.4878 9.79255 16.2938 9.57245L16.2187 9.48736L16.1437 9.57245C15.646 10.137 14.9188 10.4937 14.1094 10.4937C13.3 10.4937 12.5727 10.137 12.075 9.57245L12 9.48736L11.925 9.57245C11.4273 10.137 10.7 10.4937 9.89062 10.4937C9.08125 10.4937 8.35396 10.137 7.85626 9.57245L7.78125 9.48736L7.70624 9.57245C7.51219 9.79255 7.28324 9.98084 7.02796 10.1289L6.97813 10.1578V10.2154V16.9219C6.97813 19.4476 8.8522 21.5431 11.2827 21.8923L11.3969 21.9087V21.7933V20.0256V19.9842L11.3676 19.9549L10.1673 18.7546C9.93172 18.519 9.93172 18.1372 10.1673 17.9016C10.4028 17.6661 10.7847 17.6661 11.0202 17.9016L11.0909 17.8309L11.0202 17.9016L11.9293 18.8107L12 18.8814L12.0707 18.8107L12.9798 17.9017C13.2153 17.6661 13.5972 17.6661 13.8327 17.9017L13.9034 17.831L13.8327 17.9017C14.0682 18.1372 14.0682 18.5191 13.8327 18.7546L12.6324 19.9549L12.6031 19.9842V20.0256V21.7933ZM16.9309 7.28293L16.8987 7.30268L16.8876 7.33877C16.8439 7.48118 16.8219 7.62938 16.8219 7.78125C16.8219 8.61189 17.4975 9.2875 18.3281 9.2875H22.5222H22.6449L22.6201 9.16727C22.2795 7.51824 20.7992 6.275 19.0312 6.275H18.3281C18.1748 6.275 18.0253 6.2974 17.8816 6.34198L17.8457 6.35313L17.826 6.38521C17.6043 6.74683 17.299 7.05684 16.9309 7.28293ZM12.0107 23.1506L12.0106 23.1506C12.0109 23.1507 12.0111 23.1507 12.0109 23.1507L12.0107 23.1506ZM11.9891 23.1507C11.9889 23.1507 11.9892 23.1506 11.9897 23.1506L11.9893 23.1506L11.9891 23.1507Z" fill="#7B8E98" stroke="white" stroke-width="0.2"/>
<path d="M9.1875 13.4062C9.57583 13.4062 9.89062 13.0915 9.89062 12.7031C9.89062 12.3148 9.57583 12 9.1875 12C8.79917 12 8.48438 12.3148 8.48438 12.7031C8.48438 13.0915 8.79917 13.4062 9.1875 13.4062Z" fill="#7B8E98"/>
<path d="M14.8125 13.4062C15.2008 13.4062 15.5156 13.0915 15.5156 12.7031C15.5156 12.3148 15.2008 12 14.8125 12C14.4242 12 14.1094 12.3148 14.1094 12.7031C14.1094 13.0915 14.4242 13.4062 14.8125 13.4062Z" fill="#7B8E98"/>
</svg>
