<svg width="24" height="24" viewBox="0 0 24 24" fill="none" xmlns="http://www.w3.org/2000/svg">
<path d="M17.0686 17.1646L16.9691 17.1553C16.9712 17.1328 16.9734 17.1103 16.9757 17.0878C17.007 17.1129 17.038 17.1385 17.0686 17.1646ZM17.0686 17.1646L17.1335 17.0885C17.116 17.0736 17.0985 17.0589 17.0808 17.0444C17.0765 17.0844 17.0724 17.1245 17.0686 17.1646ZM17.514 15.1535V15.2535H17.4791C17.4905 15.2201 17.5021 15.1868 17.514 15.1535ZM17.514 15.1535L17.4198 15.12C17.4158 15.1312 17.4118 15.1423 17.4079 15.1535H17.514ZM9.45762 17.5482L9.45767 17.5482C9.80826 17.5321 10.1531 17.5852 10.4773 17.706L10.4776 17.7061C11.4985 18.0893 12.6423 18.0894 13.6632 17.7061L13.6635 17.706C13.9877 17.5851 14.3325 17.532 14.6832 17.5482L14.6832 17.5482C15.9948 17.6093 17.0685 18.6834 17.1288 19.9951M9.45762 17.5482L17.0289 19.9996M9.45762 17.5482C8.14592 17.6093 7.07227 18.6834 7.01203 19.9951C6.97934 20.7056 7.23101 21.38 7.72047 21.8927L9.45762 17.5482ZM17.1288 19.9951L17.0289 19.9996M17.1288 19.9951C17.1288 19.9951 17.1288 19.995 17.1288 19.995L17.0289 19.9996M17.1288 19.9951C17.1616 20.7056 16.9099 21.3799 16.4205 21.8926M17.0289 19.9996C17.0604 20.6833 16.8185 21.3311 16.3478 21.824M16.4205 21.8926C16.4207 21.8925 16.4208 21.8923 16.4209 21.8922L16.3478 21.824M16.4205 21.8926C16.4204 21.8928 16.4202 21.8929 16.4201 21.8931L16.3478 21.824M16.4205 21.8926C15.7247 22.6385 14.5953 22.8891 13.6477 22.5223C12.6382 22.1358 11.5025 22.1359 10.4929 22.5224L16.3478 21.824M1.8444 7.23366L1.93338 7.14086L1.82153 7.07746C0.796618 6.49653 0.104028 5.39577 0.104028 4.13663V0.702926C0.104028 0.369939 0.373967 0.1 0.706954 0.1C1.03515 0.1 1.31122 0.377278 1.4336 0.722999C1.73203 1.56603 2.53722 2.1719 3.48178 2.1719H20.5182C21.4628 2.1719 22.268 1.56603 22.5664 0.723C22.6888 0.377279 22.9649 0.1 23.293 0.1C23.626 0.1 23.896 0.369939 23.896 0.702927V4.13663C23.896 5.39609 23.2031 6.49707 22.1777 7.07791L22.0659 7.14129L22.1548 7.23411C22.6717 7.7734 22.9894 8.50432 22.9894 9.30814V12.4072H21.4311C20.8254 12.4072 20.2613 12.2268 19.7893 11.9169L19.6392 11.8183L19.6344 11.9978C19.6061 13.0741 19.3716 14.1192 18.9363 15.1081C18.539 16.0109 18.3375 16.969 18.3375 17.9553V19.8674H18.3285L18.3349 19.9734C18.4601 22.0532 16.6444 23.9406 14.5621 23.8948L14.5621 23.8947H14.5599C14.0985 23.8947 13.6478 23.8123 13.22 23.6498L13.1845 23.7433L13.22 23.6498C12.8502 23.5094 12.4634 23.438 12.0705 23.438C11.6775 23.438 11.2906 23.5094 10.9209 23.6498L10.9205 23.65C8.41628 24.6152 5.68527 22.6569 5.80616 19.9719L5.81086 19.8674H5.8034V17.9852C5.8034 17.0012 5.57528 16.0139 5.14357 15.1297C4.66869 14.1571 4.40153 13.0788 4.36563 11.9963L4.35972 11.8181L4.21075 11.916C3.7385 12.2264 3.17393 12.4071 2.56774 12.4071H1.0094V9.3081C1.0094 8.50409 1.3273 7.77299 1.8444 7.23366ZM1.46957 2.71137L1.30988 2.59255V2.7916V4.13663C1.30988 5.33434 2.28411 6.30857 3.48178 6.30857H4.29375H4.38266L4.39306 6.22027C4.51498 5.18574 4.98247 4.25523 5.677 3.54781L5.84396 3.37775H5.60565H3.48178C2.72842 3.37775 2.03204 3.12986 1.46957 2.71137ZM2.2152 11.1013V11.2013H2.3152H2.56769C3.55683 11.2013 4.36142 10.3967 4.36142 9.40759V7.61442V7.51442H4.26142H4.00893C3.01979 7.51442 2.2152 8.31901 2.2152 9.30814V11.1013ZM18.2851 6.30857H18.4036L18.3837 6.1918C18.1124 4.59635 16.7203 3.37775 15.0486 3.37775H8.95031C7.08481 3.37775 5.56727 4.89529 5.56727 6.76079V11.7452C5.56727 12.7292 5.79539 13.7165 6.22719 14.6007C6.62095 15.4072 6.87193 16.2865 6.9666 17.1806L6.98662 17.3696L7.13107 17.246C7.76842 16.7005 8.56412 16.3827 9.40168 16.3438L9.40176 16.3438C9.91493 16.3195 10.422 16.3986 10.8984 16.5761C11.6509 16.8584 12.4901 16.8584 13.2426 16.5761C13.719 16.3986 14.2257 16.3196 14.7394 16.3438L14.7394 16.3438C15.5742 16.3826 16.3674 16.6985 17.0038 17.2407L17.1502 17.3655L17.1682 17.1739C17.2319 16.4951 17.379 15.8306 17.6082 15.1871L17.6557 15.0535H17.514H16.062C13.9164 15.0535 12.1705 13.3077 12.1705 11.162V10.2001C12.1705 8.05438 13.9164 6.30857 16.062 6.30857H18.2851ZM10.9334 16.4824C10.4442 16.3001 9.92363 16.219 9.39704 16.2439L10.9334 16.4824ZM18.0472 13.8477H18.1219L18.1431 13.7761C18.3348 13.1286 18.4316 12.4586 18.4316 11.7751L18.4316 7.61442V7.51442H18.3316H16.062C14.5811 7.51442 13.3764 8.71911 13.3764 10.2001V11.162C13.3764 12.643 14.5811 13.8477 16.062 13.8477H18.0472ZM21.6836 11.2013H21.7836V11.1013V9.30814C21.7836 8.31901 20.979 7.51442 19.9899 7.51442H19.7374H19.6374V7.61442V9.40759C19.6374 10.3967 20.4419 11.2013 21.4311 11.2013H21.6836ZM19.6058 6.22027L19.6162 6.30857H19.7051H20.5182C21.7159 6.30857 22.6901 5.33434 22.6901 4.13663V2.79155V2.59249L22.5304 2.71133C21.9679 3.12991 21.2716 3.37775 20.5182 3.37775H18.3932H18.1549L18.3218 3.54781C19.0163 4.25523 19.4838 5.18569 19.6058 6.22027Z" fill="#7B8E98" stroke="white" stroke-width="0.2"/>
<path d="M15.0875 11.655C15.0875 11.2668 15.4022 10.952 15.7905 10.952C16.1787 10.952 16.4934 11.2668 16.4934 11.655C16.4934 12.0432 16.1787 12.358 15.7905 12.358C15.4022 12.358 15.0875 12.0432 15.0875 11.655Z" fill="#7B8E98"/>
<path d="M7.49365 11.655C7.49365 11.2668 7.80836 10.952 8.19658 10.952C8.58479 10.952 8.8995 11.2668 8.8995 11.655C8.8995 12.0432 8.58479 12.358 8.19658 12.358C7.80836 12.358 7.49365 12.0432 7.49365 11.655Z" fill="#7B8E98"/>
<path d="M9.14539 19.9674C9.14539 19.5792 9.4601 19.2645 9.84831 19.2645C10.2365 19.2645 10.5512 19.5792 10.5512 19.9674C10.5512 20.3557 10.2365 20.6704 9.84831 20.6704C9.4601 20.6704 9.14539 20.3557 9.14539 19.9674Z" fill="#7B8E98"/>
<path d="M13.5897 19.9674C13.5897 19.5792 13.9044 19.2645 14.2926 19.2645C14.6809 19.2645 14.9956 19.5792 14.9956 19.9674C14.9956 20.3557 14.6809 20.6704 14.2926 20.6704C13.9044 20.6704 13.5897 20.3557 13.5897 19.9674Z" fill="#7B8E98"/>
</svg>
