<svg width="22" height="24" viewBox="0 0 22 24" fill="none" xmlns="http://www.w3.org/2000/svg">
<path d="M15.2596 20.6869L15.2594 20.6869L15.2309 20.6935L15.2035 20.7033L15.2596 20.6869ZM15.2596 20.6869C16.0329 20.504 17.0767 20.0712 18.0436 19.4011C19.0105 18.7311 19.9043 17.8212 20.3716 16.6822C21.0712 14.9769 20.7299 13.0165 19.3745 10.8539C17.9886 8.6424 17.2306 6.82142 16.6208 5.35306C16.0149 3.89421 15.5718 2.83189 14.8213 2.16511C14.0451 1.47524 12.8971 1.19998 11.0041 1.19998H10.9951C9.10165 1.19998 7.95365 1.47473 7.17743 2.16487C6.42699 2.83166 5.9839 3.88582 5.37795 5.34482C4.76809 6.81317 4.01017 8.63718 2.62425 10.8484C1.26885 13.011 0.927294 14.9737 1.62712 16.679C2.09448 17.818 2.98826 18.7273 3.95505 19.3965C4.9219 20.0658 5.96563 20.4978 6.73887 20.6806L6.73866 20.6815L6.74828 20.6819L6.77953 20.6832L6.77952 20.6834L6.78414 20.6832L6.80467 20.6822C6.88469 20.7098 7.29683 20.8535 7.70709 21.2403C8.03836 21.5527 8.41895 22.0229 8.55168 22.7588L8.5591 22.7999H8.60089H13.3977H13.4394M15.2596 20.6869L13.4394 22.7999M13.4394 22.7999L13.4469 22.7588M13.4394 22.7999L13.4469 22.7588M13.4469 22.7588C13.5796 22.0229 13.9601 21.5527 14.2915 21.2401M13.4469 22.7588L14.2915 21.2401M14.2915 21.2401C14.6871 20.8672 15.0836 20.7415 15.1841 20.7096M14.2915 21.2401L15.1841 20.7096M15.1841 20.7096C15.1928 20.7068 15.1993 20.7048 15.2034 20.7033L15.1841 20.7096ZM15.5541 1.29227L15.5209 1.32965C16.4288 2.13633 16.9294 3.34215 17.5532 4.84459C17.5665 4.87682 17.58 4.90919 17.5935 4.94169L17.6396 4.92251L17.5935 4.9417L17.5946 4.94431C18.1883 6.37345 18.9283 8.1546 20.267 10.2908C21.0767 11.5828 21.5655 12.8391 21.7223 14.0248C21.8645 15.0995 21.7446 16.1277 21.3529 17.082L21.3992 17.1009L21.3529 17.082C20.7756 18.489 19.7102 19.5506 18.5956 20.3077C17.4808 21.0649 16.32 21.5155 15.5578 21.7019L15.5576 21.7012L15.55 21.7045C15.381 21.7767 14.4799 22.2231 14.4799 23.4249V23.95H7.57992V23.4247C7.57992 22.2222 6.64672 21.7748 6.47907 21.7032L6.47934 21.7026L6.4713 21.7006C5.70901 21.5142 4.54233 21.0633 3.42167 20.3059C2.30107 19.5484 1.22977 18.4867 0.65242 17.0797C0.260892 16.1255 0.134074 15.0951 0.276221 14.0205C0.433094 12.8347 0.92187 11.5743 1.73153 10.2823C3.06014 8.16234 3.79901 6.38365 4.39039 4.96002L4.40507 4.92467L4.40507 4.92467L4.42312 4.8812C5.05721 3.35436 5.55916 2.14568 6.47763 1.32936C7.45558 0.460487 8.8009 0.05 10.9907 0.05H10.9907H10.9907H10.9907H10.9907H10.9908H10.9908H10.9908H10.9908H10.9908H10.9908H10.9908H10.9909H10.9909H10.9909H10.9909H10.9909H10.9909H10.991H10.991H10.991H10.991H10.991H10.991H10.9911H10.9911H10.9911H10.9911H10.9911H10.9911H10.9912H10.9912H10.9912H10.9912H10.9912H10.9912H10.9913H10.9913H10.9913H10.9913H10.9913H10.9913H10.9914H10.9914H10.9914H10.9914H10.9914H10.9914H10.9914H10.9915H10.9915H10.9915H10.9915H10.9915H10.9915H10.9916H10.9916H10.9916H10.9916H10.9916H10.9916H10.9917H10.9917H10.9917H10.9917H10.9917H10.9917H10.9918H10.9918H10.9918H10.9918H10.9918H10.9918H10.9919H10.9919H10.9919H10.9919H10.9919H10.9919H10.9919H10.992H10.992H10.992H10.992H10.992H10.992H10.9921H10.9921H10.9921H10.9921H10.9921H10.9921H10.9922H10.9922H10.9922H10.9922H10.9922H10.9922H10.9923H10.9923H10.9923H10.9923H10.9923H10.9923H10.9924H10.9924H10.9924H10.9924H10.9924H10.9924H10.9924H10.9925H10.9925H10.9925H10.9925H10.9925H10.9925H10.9926H10.9926H10.9926H10.9926H10.9926H10.9926H10.9927H10.9927H10.9927H10.9927H10.9927H10.9927H10.9928H10.9928H10.9928H10.9928H10.9928H10.9928H10.9928H10.9929H10.9929H10.9929H10.9929H10.9929H10.9929H10.993H10.993H10.993H10.993H10.993H10.993H10.9931H10.9931H10.9931H10.9931H10.9931H10.9931H10.9932H10.9932H10.9932H10.9932H10.9932H10.9932H10.9933H10.9933H10.9933H10.9933H10.9933H10.9933H10.9933H10.9934H10.9934H10.9934H10.9934H10.9934H10.9934H10.9935H10.9935H10.9935H10.9935H10.9935H10.9935H10.9936H10.9936H10.9936H10.9936H10.9936H10.9936H10.9937H10.9937H10.9937H10.9937H10.9937H10.9937H10.9938H10.9938H10.9938H10.9938H10.9938H10.9938H10.9938H10.9939H10.9939H10.9939H10.9939H10.9939H10.9939H10.994H10.994H10.994H10.994H10.994H10.994H10.9941H10.9941H10.9941H10.9941H10.9941H10.9941H10.9942H10.9942H10.9942H10.9942H10.9942H10.9942H10.9942H10.9943H10.9943H10.9943H10.9943H10.9943H10.9943H10.9944H10.9944H10.9944H10.9944H10.9944H10.9944H10.9945H10.9945H10.9945H10.9945H10.9945H10.9945H10.9946H10.9946H10.9946H10.9946H10.9946H10.9946H10.9946H10.9947H10.9947H10.9947H10.9947H10.9947H10.9947H10.9948H10.9948H10.9948H10.9948H10.9948H10.9948H10.9949H10.9949H10.9949H10.9949H10.9949H10.9949H10.995H10.995H10.995H10.995H10.995H10.995H10.9951H10.9951H10.9951H10.9951H10.9951H10.9951H10.9951H10.9952H10.9952H10.9952H10.9952H10.9952H10.9952H10.9953H10.9953H10.9953H10.9953H10.9953H10.9953H10.9954H10.9954H10.9954H10.9954H10.9954H10.9954H10.9955H10.9955H10.9955H10.9955H10.9955H10.9955H10.9956H10.9956H10.9956H10.9956H10.9956H10.9956H10.9956H10.9957H10.9957H10.9957H10.9957H10.9957H10.9957H10.9958H10.9958H10.9958H10.9958H10.9958H10.9958H10.9959H10.9959H10.9959H10.9959H10.9959H10.9959H10.996H10.996H10.996H10.996H10.996H10.996H10.996H10.9961H10.9961H10.9961H10.9961H10.9961H10.9961H10.9962H10.9962H10.9962H10.9962H10.9962H10.9962H10.9963H10.9963H10.9963H10.9963H10.9963H10.9963H10.9964H10.9964H10.9964H10.9964H10.9964H10.9964H10.9965H10.9965H10.9965H10.9965H10.9965H10.9965H10.9965H10.9966H10.9966H10.9966H10.9966H10.9966H10.9966H10.9967H10.9967H10.9967H10.9967H10.9967H10.9967H10.9968H10.9968H10.9968H10.9968H10.9968H10.9968H10.9969H10.9969H10.9969H10.9969H10.9969H10.9969H10.997H10.997H10.997H10.997H10.997H10.997H10.997H10.9971H10.9971H10.9971H10.9971H10.9971H10.9971H10.9972H10.9972H10.9972H10.9972H10.9972H10.9972H10.9973H10.9973H10.9973H10.9973H10.9973H10.9973H10.9974H10.9974H10.9974H10.9974H10.9974H10.9974H10.9974H10.9975H10.9975H10.9975H10.9975H10.9975H10.9975H10.9976H10.9976H10.9976H10.9976H10.9976H10.9976H10.9977H10.9977H10.9977H10.9977H10.9977H10.9977H10.9978H10.9978H10.9978H10.9978H10.9978H10.9978H10.9979H10.9979H10.9979H10.9979H10.9979H10.9979H10.9979H10.998H10.998H10.998H10.998H10.998H10.998H10.9981H10.9981H10.9981H10.9981H10.9981H10.9981H10.9982H10.9982H10.9982H10.9982H10.9982H10.9982H10.9983H10.9983H10.9983H10.9983H10.9983H10.9983H10.9984H10.9984H10.9984H10.9984H10.9984H10.9984H10.9984H10.9985H10.9985H10.9985H10.9985H10.9985H10.9985H10.9986H10.9986H10.9986H10.9986H10.9986H10.9986H10.9987H10.9987H10.9987H10.9987H10.9987H10.9987H10.9988H10.9988H10.9988H10.9988H10.9988H10.9988H10.9989H10.9989H10.9989H10.9989H10.9989H11.0044C13.1964 0.05 14.5427 0.46025 15.5209 1.32965L15.5541 1.29227Z" fill="#7B8E98" stroke="white" stroke-width="0.1"/>
<path d="M8.75954 9.57545C8.75954 9.1856 8.44351 8.86957 8.05366 8.86957C7.66381 8.86957 7.34778 9.1856 7.34778 9.57545C7.34778 9.9653 7.66381 10.2813 8.05366 10.2813C8.44351 10.2813 8.75954 9.9653 8.75954 9.57545Z" fill="#7B8E98"/>
<path d="M14.4066 9.57545C14.4066 9.1856 14.0906 8.86957 13.7007 8.86957C13.3109 8.86957 12.9948 9.1856 12.9948 9.57545C12.9948 9.9653 13.3109 10.2813 13.7007 10.2813C14.0906 10.2813 14.4066 9.9653 14.4066 9.57545Z" fill="#7B8E98"/>
<path d="M17.0374 13.0997L17.0369 13.0998C16.853 13.1174 16.6832 13.126 16.5179 13.126C16.0274 13.126 15.5758 13.0496 15.0099 12.8721L15.0099 12.8721C14.7156 12.7797 14.4151 12.6757 14.1252 12.5752M17.0374 13.0997L14.1416 12.5279M17.0374 13.0997L17.0466 13.0987L17.0419 13.049L17.0471 13.0987L17.051 13.0983C17.1535 13.0885 17.3194 13.0727 17.4979 13.0727C17.5949 13.0727 17.7857 13.0728 17.9871 13.1254C18.1883 13.178 18.395 13.2816 18.5294 13.4851L18.5294 13.4851C18.615 13.6146 18.7371 13.8923 18.5694 14.2836C18.3462 14.8042 17.9639 15.1544 17.6182 15.3801L17.5752 15.4082L17.6045 15.4505C17.7308 15.6325 17.8426 15.8185 17.9324 15.9978M17.0374 13.0997L13.6596 18.84M14.1252 12.5752L14.1416 12.5279M14.1252 12.5752C14.1253 12.5752 14.1253 12.5752 14.1253 12.5752L14.1416 12.5279M14.1252 12.5752C13.7223 12.4356 13.3068 12.2918 12.8843 12.17M14.1416 12.5279C13.7389 12.3885 13.3222 12.2442 12.8981 12.122M12.8843 12.17L12.8981 12.122M12.8843 12.17C12.2944 12.0002 11.8005 11.9037 11.3296 11.866L11.3336 11.8162M12.8843 12.17C12.8843 12.17 12.8843 12.17 12.8843 12.17L12.8981 12.122M12.8981 12.122L13.6596 18.84M11.3336 11.8162C11.2276 11.8077 11.1141 11.8042 10.9994 11.8059C10.8846 11.8042 10.7711 11.8076 10.6651 11.8162C10.1899 11.8542 9.69287 11.9514 9.10062 12.122C8.67637 12.244 8.25988 12.3882 7.85711 12.5279C7.56736 12.6285 7.26762 12.7322 6.97412 12.8244C6.41212 13.0007 5.96562 13.076 5.4811 13.076C5.31759 13.076 5.14933 13.0675 4.96685 13.05L4.95712 13.049M11.3336 11.8162L18.5711 13.4575C18.6633 13.597 18.7913 13.8925 18.6153 14.3033C18.3961 14.8148 18.0271 15.1643 17.6872 15.3943C17.687 15.394 17.6869 15.3937 17.6867 15.3935L17.6456 15.422L17.6729 15.4638C17.6732 15.4636 17.6736 15.4634 17.6739 15.4632C17.7898 15.6338 17.8929 15.8073 17.9771 15.9755M11.3336 11.8162L11.3296 11.866C11.2253 11.8577 11.1134 11.8542 11.0001 11.8559L10.9986 11.8559C10.8853 11.8542 10.7734 11.8576 10.6691 11.866L10.6691 11.866C10.198 11.9037 9.70438 12.0002 9.11445 12.17L9.11443 12.17C8.69169 12.2916 8.27643 12.4353 7.87351 12.5752L7.8735 12.5752C7.58384 12.6757 7.28342 12.7796 6.9891 12.8721L6.98908 12.8721C6.42325 13.0496 5.97165 13.126 5.4811 13.126C5.31582 13.126 5.14596 13.1174 4.96208 13.0998L4.9616 13.0997L4.9616 13.0997L4.95211 13.0987M4.95712 13.049L4.95337 13.0486C4.85121 13.0388 4.68264 13.0227 4.50113 13.0227C4.30661 13.0227 3.71514 13.0227 3.42814 13.458C3.33612 13.5975 3.20814 13.893 3.38415 14.3037M4.95712 13.049L4.95187 13.0987L4.95211 13.0987M4.95712 13.049L4.95236 13.0987L4.95211 13.0987M3.38415 14.3037C3.6034 14.8152 3.97234 15.1648 4.312 15.3946C4.31219 15.3943 4.31239 15.394 4.31259 15.3937L4.35365 15.4222L4.32631 15.4641C4.32598 15.4639 4.32564 15.4637 4.3253 15.4635C4.20937 15.6338 4.10637 15.8076 4.02238 15.9757C3.74589 16.5285 3.68488 16.9922 3.84089 17.3545M3.38415 14.3037L3.43011 14.284M3.38415 14.3037L3.43011 14.284L3.43011 14.284M3.84089 17.3545C4.00114 17.7262 4.3649 17.9394 4.83937 17.9394C5.03274 17.9394 5.25026 17.9065 5.49812 17.8393C5.49809 17.8347 5.49808 17.83 5.4981 17.8253L5.5481 17.8254L5.56179 17.8735C5.55746 17.8748 5.55313 17.876 5.54882 17.8772C5.55157 17.9679 5.56228 18.0589 5.58285 18.1494C5.67133 18.5397 5.91936 18.852 6.29986 19.0525M3.84089 17.3545L3.88681 17.3347C3.8868 17.3347 3.8868 17.3347 3.8868 17.3347M3.84089 17.3545L3.8868 17.3347M6.29986 19.0525C6.53762 19.1777 6.79238 19.2412 7.05686 19.2412C7.49403 19.2412 7.89426 19.0769 8.35785 18.8867L8.35887 18.8862M6.29986 19.0525L6.32317 19.0083C6.32317 19.0082 6.32317 19.0082 6.32316 19.0082M6.29986 19.0525L6.32316 19.0082M8.35887 18.8862L8.36034 18.8856C8.99884 18.6235 9.79353 18.2972 10.9996 18.2972C12.2066 18.2972 13.0016 18.6237 13.6406 18.8862M8.35887 18.8862L8.33988 18.84M8.35887 18.8862L8.33988 18.84L8.33988 18.84M13.6406 18.8862L13.6415 18.8866C14.1051 19.0769 14.5054 19.2412 14.9423 19.2412H14.9426C15.2071 19.2412 15.4616 19.1777 15.6993 19.0525C16.0798 18.852 16.3276 18.5397 16.4163 18.1494C16.4369 18.0589 16.4475 17.9678 16.4503 17.877C16.446 17.8758 16.4417 17.8745 16.4374 17.8733L16.4511 17.8252H16.5011C16.5011 17.8298 16.5011 17.8345 16.501 17.8391C16.749 17.9062 16.9665 17.9392 17.1598 17.9392C17.6343 17.9392 17.9983 17.726 18.1586 17.3542M13.6406 18.8862L13.6596 18.84M13.6406 18.8862L13.6596 18.84M18.1586 17.3542C18.3146 16.992 18.2536 16.5282 17.9771 15.9755M18.1586 17.3542L18.1127 17.3345M18.1586 17.3542L18.1127 17.3344C18.1127 17.3344 18.1127 17.3344 18.1127 17.3345M17.9771 15.9755L17.9324 15.9978M17.9771 15.9755L17.9324 15.9978C17.9324 15.9978 17.9324 15.9978 17.9324 15.9978M17.9324 15.9978C18.206 16.5449 18.2602 16.9919 18.1127 17.3345M18.1127 17.3345C17.9619 17.6842 17.6187 17.8892 17.1598 17.8892C16.9595 17.8892 16.7306 17.8527 16.4648 17.7771L16.4011 17.759V17.8252C16.4011 17.93 16.3911 18.0348 16.3676 18.1383C16.2824 18.5133 16.0447 18.814 15.676 19.0082C15.4454 19.1298 15.1988 19.1912 14.9426 19.1912H14.9423C14.5167 19.1912 14.1256 19.0313 13.6596 18.84M13.6596 18.84L13.6596 18.84M13.6596 18.84C13.6596 18.84 13.6596 18.84 13.6596 18.84M13.6596 18.84L13.6596 18.84M13.6596 18.84L13.6595 18.84C13.0193 18.5769 12.2168 18.2472 10.9996 18.2472C9.78366 18.2472 8.98155 18.5765 8.34191 18.8392L8.33988 18.84M8.33988 18.84C7.87388 19.0312 7.48272 19.1912 7.05686 19.1912C6.80062 19.1912 6.55385 19.1298 6.32316 19.0082M6.32316 19.0082C5.95448 18.8139 5.7166 18.5132 5.63161 18.1384L5.63161 18.1383C5.60804 18.0347 5.59786 17.93 5.5981 17.8256L5.59825 17.7592L5.5344 17.7774C5.26869 17.853 5.03971 17.8894 4.83937 17.8894C4.38056 17.8894 4.03758 17.6844 3.8868 17.3347M3.8868 17.3347C3.73927 16.9921 3.79348 16.5451 4.06709 15.9981L4.06711 15.9981C4.15669 15.8187 4.26839 15.6325 4.3947 15.4508L4.42408 15.4085L4.38098 15.3804C4.03558 15.1549 3.6533 14.8047 3.43011 14.284M3.43011 14.284C3.26242 13.8927 3.38446 13.615 3.46988 13.4855L3.46989 13.4855C3.60418 13.2818 3.81079 13.1781 4.01196 13.1255C4.21327 13.0728 4.40411 13.0727 4.50113 13.0727C4.68024 13.0727 4.84686 13.0886 4.949 13.0984L4.95211 13.0987M14.0597 17.8662L14.0597 17.8662C13.3671 17.5818 12.424 17.1947 10.9997 17.1947C9.57507 17.1947 8.6323 17.5818 7.93967 17.8662L7.93966 17.8662L7.93733 17.8672C7.75598 17.9416 7.5916 18.0091 7.44631 18.0579C7.30091 18.1067 7.17011 18.1385 7.05693 18.1385L14.0597 17.8662ZM14.0597 17.8662L14.062 17.8672C14.2434 17.9416 14.4077 18.0091 14.553 18.0579C14.6984 18.1067 14.8292 18.1385 14.9424 18.1385C15.0289 18.1385 15.1046 18.1193 15.1848 18.0769M14.0597 17.8662L15.1848 18.0769M6.76136 17.3918L6.78471 17.3853C7.34935 17.2277 7.93816 17.0898 8.54517 16.9827C9.46801 16.8194 10.2463 16.7 11.0299 16.7H11.0691C11.8558 16.7 12.6679 16.8437 13.3862 16.9708C13.4088 16.9748 13.4314 16.9787 13.4538 16.9827C13.4538 16.9827 13.4538 16.9827 13.4538 16.9827L13.4451 17.0319L6.76136 17.3918ZM6.76136 17.3918L6.75202 17.4141M6.76136 17.3918L6.75202 17.4141M6.75202 17.4141C6.7151 17.5024 6.68476 17.5923 6.66708 17.6757C6.64959 17.7582 6.64357 17.8387 6.65914 17.9063M6.75202 17.4141L6.81442 18.077C6.75406 18.0453 6.71659 18.0134 6.69322 17.9823C6.66912 17.9501 6.66274 17.9221 6.65914 17.9063M16.5983 14.7166L16.5983 14.7165L15.7539 14.9419L16.3612 15.5844C16.5848 15.8209 16.7977 16.1124 16.9458 16.3848L16.9458 16.3849C17.034 16.5472 17.0837 16.674 17.1109 16.7655L17.1325 16.8384L17.0569 16.8294C16.9509 16.8166 16.7858 16.7824 16.5432 16.6977C16.3563 16.6326 16.1661 16.5703 15.9732 16.5108L15.9732 16.5108C15.418 16.3392 14.8393 16.1906 14.2422 16.0664C14.0425 16.025 13.8409 15.9861 13.6373 15.9502L13.6372 15.9502C13.4672 15.9202 13.293 15.886 13.1153 15.8511C12.5979 15.7494 12.0506 15.6419 11.489 15.6141L11.4889 15.6141C11.4192 15.6107 11.3499 15.5956 11.2851 15.5816C11.2801 15.5805 11.2751 15.5794 11.2702 15.5783C11.1995 15.563 11.1339 15.5499 11.0692 15.5499H11.0691H11.069H11.0689H11.0688H11.0687H11.0686H11.0685H11.0684H11.0684H11.0683H11.0682H11.0681H11.068H11.0679H11.0678H11.0677H11.0676H11.0675H11.0675H11.0674H11.0673H11.0672H11.0671H11.067H11.0669H11.0668H11.0667H11.0667H11.0666H11.0665H11.0664H11.0663H11.0662H11.0661H11.066H11.0659H11.0658H11.0658H11.0657H11.0656H11.0655H11.0654H11.0653H11.0652H11.0651H11.065H11.0649H11.0649H11.0648H11.0647H11.0646H11.0645H11.0644H11.0643H11.0642H11.0641H11.064H11.064H11.0639H11.0638H11.0637H11.0636H11.0635H11.0634H11.0633H11.0632H11.0632H11.0631H11.063H11.0629H11.0628H11.0627H11.0626H11.0625H11.0624H11.0623H11.0623H11.0622H11.0621H11.062H11.0619H11.0618H11.0617H11.0616H11.0615H11.0614H11.0614H11.0613H11.0612H11.0611H11.061H11.0609H11.0608H11.0607H11.0606H11.0605H11.0605H11.0604H11.0603H11.0602H11.0601H11.06H11.0599H11.0598H11.0597H11.0596H11.0596H11.0595H11.0594H11.0593H11.0592H11.0591H11.059H11.0589H11.0588H11.0587H11.0587H11.0586H11.0585H11.0584H11.0583H11.0582H11.0581H11.058H11.0579H11.0578H11.0578H11.0577H11.0576H11.0575H11.0574H11.0573H11.0572H11.0571H11.057H11.0569H11.0569H11.0568H11.0567H11.0566H11.0565H11.0564H11.0563H11.0562H11.0561H11.056H11.056H11.0559H11.0558H11.0557H11.0556H11.0555H11.0554H11.0553H11.0552H11.0551H11.0551H11.055H11.0549H11.0548H11.0547H11.0546H11.0545H11.0544H11.0543H11.0542H11.0542H11.0541H11.054H11.0539H11.0538H11.0537H11.0536H11.0535H11.0534H11.0533H11.0533H11.0532H11.0531H11.053H11.0529H11.0528H11.0527H11.0526H11.0525H11.0524H11.0524H11.0523H11.0522H11.0521H11.052H11.0519H11.0518H11.0517H11.0516H11.0515H11.0515H11.0514H11.0513H11.0512H11.0511H11.051H11.0509H11.0508H11.0507H11.0506H11.0506H11.0505H11.0504H11.0503H11.0502H11.0501H11.05H11.0499H11.0498H11.0497H11.0497H11.0496H11.0495H11.0494H11.0493H11.0492H11.0491H11.049H11.0489H11.0488H11.0488H11.0487H11.0486H11.0485H11.0484H11.0483H11.0482H11.0481H11.048H11.0479H11.0479H11.0478H11.0477H11.0476H11.0475H11.0474H11.0473H11.0472H11.0471H11.047H11.047H11.0469H11.0468H11.0467H11.0466H11.0465H11.0464H11.0463H11.0462H11.0461H11.0461H11.046H11.0459H11.0458H11.0457H11.0456H11.0455H11.0454H11.0453H11.0452H11.0452H11.0451H11.045H11.0449H11.0448H11.0447H11.0446H11.0445H11.0444H11.0443H11.0443H11.0442H11.0441H11.044H11.0439H11.0438H11.0437H11.0436H11.0435H11.0434H11.0434H11.0433H11.0432H11.0431H11.043H11.0429H11.0428H11.0427H11.0426H11.0425H11.0425H11.0424H11.0423H11.0422H11.0421H11.042H11.0419H11.0418H11.0417H11.0416H11.0416H11.0415H11.0414H11.0413H11.0412H11.0411H11.041H11.0409H11.0408H11.0407H11.0407H11.0406H11.0405H11.0404H11.0403H11.0402H11.0401H11.04H11.0399H11.0398H11.0398H11.0397H11.0396H11.0395H11.0394H11.0393H11.0392H11.0391H11.039H11.0389H11.0389H11.0388H11.0387H11.0386H11.0385H11.0384H11.0383H11.0382H11.0381H11.038H11.038H11.0379H11.0378H11.0377H11.0376H11.0375H11.0374H11.0373H11.0372H11.0371H11.0371H11.037H11.0369H11.0368H11.0367H11.0366H11.0365H11.0364H11.0363H11.0362H11.0362H11.0361H11.036H11.0359H11.0358H11.0357H11.0356H11.0355H11.0354H11.0353H11.0353H11.0352H11.0351H11.035H11.0349H11.0348H11.0347H11.0346H11.0345H11.0344H11.0344H11.0343H11.0342H11.0341H11.034H11.0339H11.0338H11.0337H11.0336H11.0335H11.0335H11.0334H11.0333H11.0332H11.0331H11.033H11.0329H11.0328H11.0327H11.0326H11.0326H11.0325H11.0324H11.0323H11.0322H11.0321H11.032H11.0319H11.0318H11.0318H11.0317H11.0316H11.0315H11.0314H11.0313H11.0312H11.0311H11.031H11.0309H11.0309H11.0308H11.0307H11.0306H11.0305H11.0304H11.0303H11.0302H11.0301H11.03H11.03H11.0299H11.0298H11.0297H11.0296H11.0295H11.0294H11.0293H11.0292H11.0292H11.0291H11.029H11.0289H11.0288H11.0287H11.0286H11.0285H11.0284H11.0283H11.0283H11.0282H11.0281H11.028H11.0279H11.0278H11.0277H11.0276H11.0275H11.0274H11.0274H11.0273H11.0272H11.0271H11.027H11.0269H11.0268H11.0267H11.0266H11.0266H11.0265H11.0264H11.0263H11.0262H11.0261H11.026H11.0259H11.0258H11.0257H11.0257H11.0256H11.0255H11.0254H11.0253H11.0252H11.0251H11.025H11.0249H11.0249H11.0248H11.0247H11.0246H11.0245H11.0244H11.0243H11.0242H11.0241H11.024H11.024H11.0239H11.0238H11.0237H11.0236H11.0235H11.0234H11.0233H11.0232H11.0232C10.9449 15.5499 10.8659 15.5639 10.7825 15.5799C10.7755 15.5813 10.7684 15.5826 10.7613 15.584C10.6857 15.5987 10.6062 15.6141 10.5264 15.6184C9.89091 15.6528 9.25239 15.7659 8.5316 15.8936C8.47537 15.9035 8.41863 15.9136 8.36136 15.9237M16.5983 14.7166L8.35267 15.8745M16.5983 14.7166L16.6003 14.7159C16.6344 14.7053 17.0674 14.5648 17.379 14.2147L17.4594 14.1243L17.3387 14.1315C17.2656 14.1359 17.1986 14.1424 17.1476 14.1474L17.1475 14.1474L17.1475 14.1474L17.1462 14.1476L17.137 14.1487C16.9192 14.1695 16.7168 14.1804 16.5181 14.1804C15.9234 14.1804 15.3615 14.0887 14.6946 13.8795C14.3855 13.7824 14.0783 13.6783 13.7808 13.5754M16.5983 14.7166L13.7808 13.5754M8.36136 15.9237L8.35267 15.8745M8.36136 15.9237C8.36137 15.9237 8.36137 15.9237 8.36137 15.9237L8.35267 15.8745M8.36136 15.9237C8.23496 15.946 8.11085 15.9743 7.9861 16.0026C7.90999 16.0199 7.83365 16.0373 7.7564 16.0534L7.75636 16.0534C7.15967 16.1773 6.58097 16.3326 6.02543 16.5042L6.02542 16.5042C5.83287 16.5637 5.64285 16.6292 5.45544 16.6947L5.45541 16.6947C5.21318 16.7791 5.04802 16.8153 4.94168 16.8281L4.86636 16.8371L4.88773 16.7644C4.91467 16.6726 4.96467 16.5466 5.05249 16.3844L5.05253 16.3843C5.2007 16.1118 5.41353 15.8208 5.63711 15.5841L5.63738 15.5838L6.25175 14.9437M8.35267 15.8745C8.2254 15.8969 8.0988 15.9257 7.97295 15.9543C7.89708 15.9716 7.82149 15.9888 7.74619 16.0045C7.14768 16.1287 6.56742 16.2844 6.01067 16.4565C5.81718 16.5162 5.62642 16.5819 5.43895 16.6474C5.23815 16.7175 5.09228 16.7534 4.99041 16.7705C4.988 16.7781 4.98576 16.7854 4.98368 16.7925L4.93571 16.7784L4.92973 16.7288C4.93699 16.7279 4.9446 16.7269 4.95255 16.7258C4.98084 16.6437 5.02606 16.5382 5.09646 16.4082C5.24245 16.1396 5.45268 15.8522 5.67345 15.6185L6.30693 14.9584L6.25175 14.9437M6.25175 14.9437L6.29129 14.9025L12.5933 13.1923C12.5933 13.1923 12.5933 13.1923 12.5933 13.1923C12.074 13.0428 11.6455 12.9684 11.2457 12.9363L11.2457 12.9363C11.2044 12.933 11.1622 12.937 11.1234 12.9412C11.1191 12.9416 11.1149 12.9421 11.1106 12.9425C11.0753 12.9463 11.0423 12.9499 11.0092 12.9499H10.9994H10.9897C10.9568 12.9499 10.924 12.9464 10.8889 12.9426C10.8844 12.9422 10.8798 12.9417 10.8752 12.9412C10.8362 12.9371 10.7939 12.9332 10.7522 12.9366C10.3531 12.9686 9.92474 13.0328 9.40486 13.1824L9.40484 13.1824C9.00928 13.2964 8.62489 13.4295 8.21934 13.57L8.21732 13.5707L8.21731 13.5707C7.91946 13.6739 7.61241 13.7802 7.30347 13.8772C6.6365 14.0865 6.07484 14.1795 5.48021 14.1795C5.28121 14.1795 5.07881 14.1693 4.86073 14.1484L4.85105 14.1474L4.85081 14.1474C4.79996 14.1425 4.73273 14.1361 4.65982 14.1315L4.53867 14.124L4.61935 14.2147C4.93099 14.565 5.36428 14.7053 5.39792 14.7159L5.39791 14.7159L5.40008 14.7165L6.25175 14.9437ZM17.0082 16.7719C16.9063 16.7553 16.7605 16.7205 16.5596 16.6505C16.3721 16.5852 16.1814 16.5227 15.9879 16.463C15.4312 16.2909 14.8509 16.142 14.2524 16.0175L17.0082 16.7719ZM17.0082 16.7719C17.0106 16.7795 17.0129 16.7869 17.015 16.7939L17.0629 16.7797L17.0689 16.7301C17.0616 16.7292 17.054 16.7282 17.046 16.7271C17.0176 16.6448 16.9725 16.5388 16.9019 16.4087C16.7559 16.1402 16.5456 15.8522 16.3249 15.6187L15.699 14.9565L17.0082 16.7719ZM13.7808 13.5754C13.7808 13.5754 13.7808 13.5754 13.7808 13.5754L13.7644 13.6227L13.7808 13.5754ZM15.1848 18.0769C15.2451 18.0451 15.2825 18.0133 15.3058 17.9822M15.1848 18.0769L15.3058 17.9822M15.3058 17.9822C15.3298 17.9502 15.3363 17.9223 15.3399 17.9064L15.3058 17.9822ZM6.65914 17.9063L6.7079 17.8952L6.65918 17.9065C6.65917 17.9064 6.65915 17.9063 6.65914 17.9063Z" fill="#7B8E98" stroke="white" stroke-width="0.1"/>
</svg>
