<svg width="46" height="46" viewBox="0 0 46 46" fill="none" xmlns="http://www.w3.org/2000/svg">
<path d="M37.0955 29.5589L37.2945 28.9421C38.162 26.2539 39.4242 21.2098 39.488 14.4783C39.528 10.2722 39.0672 5.90643 38.117 1.50261C37.9541 0.748466 37.2112 0.26915 36.4567 0.431771C35.7027 0.594737 35.2234 1.33792 35.386 2.09199C35.7957 3.99073 36.1092 5.88101 36.3272 7.75264L36.436 8.68606L35.6878 8.11737C33.4848 6.4427 31.5662 5.8732 31.4715 5.84594L31.4712 5.84585C30.7303 5.63171 29.9557 6.05891 29.7415 6.80024L29.7415 6.80028C29.5274 7.54099 29.9543 8.31537 30.6953 8.5298L37.0955 29.5589ZM37.0955 29.5589L37.7361 29.4603M37.0955 29.5589L37.7361 29.4603M28.6739 16.7482C28.6908 16.7525 30.3838 17.1894 32.0336 18.3942C34.0793 19.8882 35.1427 21.8743 35.1947 24.2965M28.6739 16.7482L35.201 24.3843C35.2003 24.3746 35.1994 24.365 35.1986 24.3554C35.1969 24.336 35.1951 24.3165 35.1947 24.2965M28.6739 16.7482C27.7099 16.5127 27.1224 15.5413 27.3579 14.5772C27.5934 13.6132 28.5687 13.0236 29.5331 13.2587C29.6257 13.2812 31.8262 13.8304 34.0337 15.4058M28.6739 16.7482L26.2976 35.1658M35.1947 24.2965L35.5946 24.288C35.5398 21.7346 34.4106 19.6348 32.2695 18.0712L32.0882 18.3194L32.2695 18.0712C30.5599 16.8227 28.8102 16.37 28.771 16.3602L28.7689 16.3597C28.0203 16.1768 27.5632 15.4225 27.7464 14.6722C27.9293 13.9237 28.6874 13.4642 29.4383 13.6473L29.4388 13.6474C29.5092 13.6645 31.6534 14.1985 33.8013 15.7314L34.0337 15.4058M35.1947 24.2965L35.5945 24.2871C35.5947 24.2949 35.595 24.2982 35.5955 24.3036C35.5963 24.3111 35.5976 24.3227 35.5999 24.3554L35.6041 24.4131L35.5918 24.4695C34.9714 27.3131 34.274 29.1616 34.0314 29.7608L33.9425 29.9803L33.7073 30.008C32.8745 30.1057 31.9823 30.2488 31.1002 30.5248L30.4256 30.7359L30.592 30.0489C30.9625 28.5191 31.0362 26.8255 30.0824 24.9678C29.7298 24.2813 28.8879 24.0107 28.2014 24.3632L28.2014 24.3632C27.5154 24.7154 27.2447 25.5575 27.5972 26.2437L27.5972 26.2438C28.4397 27.8849 27.9976 29.2507 27.2885 31.2354C26.9213 32.2639 26.5587 33.282 26.4151 34.4143L26.415 34.4148C26.3794 34.693 26.339 34.9269 26.2976 35.1658M14.5169 5.84925C14.3319 5.90412 12.4567 6.48701 10.312 8.11737L9.56385 8.68606L9.67259 7.75264C9.89064 5.88102 10.2041 3.99073 10.6138 2.09199C10.7764 1.33789 10.2971 0.594679 9.54298 0.431752C8.78952 0.269166 8.04574 0.748591 7.88317 1.50256L7.88315 1.50264C6.93263 5.90644 6.47178 10.2722 6.51183 14.4783L6.51184 14.4783C6.57561 21.2039 7.83571 26.2449 8.70286 28.9348L8.90306 29.5559L8.2588 29.4525C7.0888 29.2648 5.79459 28.9719 4.80695 28.0169C3.80817 27.0511 3.19376 25.4827 3.19376 22.9103C3.19376 22.1387 2.56816 21.5134 1.79688 21.5134C1.0253 21.5134 0.4 22.1387 0.4 22.9103C0.4 26.4576 1.43951 28.9805 3.40756 30.5071C5.08112 31.8049 7.06238 32.1027 8.44598 32.3065C8.44601 32.3065 8.44604 32.3065 8.44606 32.3065L8.45172 32.3073C8.76647 32.3536 9.08461 32.4004 9.31388 32.4504L9.3144 32.4505C9.82928 32.5635 10.4186 32.6226 11.0746 32.6878L11.0746 32.6878C12.4488 32.8245 13.7033 32.9891 14.7025 33.4296C15.7333 33.8841 16.4931 34.6318 16.8706 35.8897L16.8706 35.8899C16.9045 36.0031 16.9514 36.1083 17.0091 36.205L17.0513 36.2756L17.0622 36.3571C17.1678 37.1477 17.2524 38.3323 17.2602 41.0022L17.2608 41.2326L17.0618 41.3488C16.1902 41.8575 15.3774 42.4822 14.6443 43.2159C14.0989 43.7619 14.0995 44.6464 14.6454 45.1914L14.6455 45.1915C15.1911 45.7366 16.0756 45.7363 16.621 45.1904L14.5169 5.84925ZM14.5169 5.84925L14.5185 5.84892C14.5271 5.84713 14.5414 5.84431 14.5607 5.84102C14.5993 5.83442 14.6571 5.82608 14.7281 5.82033C14.8724 5.80866 15.0594 5.80871 15.2475 5.84864C15.4343 5.88832 15.6086 5.96428 15.7481 6.09452C15.8839 6.22134 16.0122 6.42295 16.0731 6.76027C16.1981 7.45297 15.9797 7.88994 15.7488 8.15931C15.6288 8.2994 15.5004 8.39916 15.4022 8.46347C15.3535 8.49538 15.3134 8.5178 15.2873 8.53145C15.2781 8.53629 15.2706 8.53998 15.2653 8.54259C14.8435 8.68192 11.7727 9.78838 9.3898 12.9761L9.31221 13.0798L9.31023 13.2094C9.30387 13.6242 9.30138 14.0386 9.30528 14.4519L9.30528 14.452C9.31519 15.4687 9.35409 16.4444 9.41527 17.3763L9.47908 18.3482L10.1168 17.612C10.7084 16.929 11.4026 16.2995 12.1984 15.7314C14.3467 14.1985 16.4906 13.6645 16.561 13.6474L16.5616 13.6473C17.3114 13.4642 18.0671 13.9237 18.2498 14.6728L18.2499 14.6729C18.4326 15.4207 17.976 16.1748 17.2295 16.36L17.2266 16.3607C17.1778 16.3733 15.434 16.8269 13.7307 18.0712C11.5892 19.6348 10.46 21.7346 10.4052 24.288L10.4052 24.2889C10.405 24.301 10.4043 24.3082 10.4029 24.3232C10.4019 24.3341 10.4005 24.3491 10.3987 24.373L10.394 24.4319L10.4066 24.4896C11.0275 27.3328 11.7257 29.1687 11.9678 29.7616L12.057 29.98L12.2914 30.0076C13.1668 30.1105 14.1077 30.2639 15.0334 30.5683L15.7038 30.7888L15.5486 30.1004C15.1825 28.4767 15.1153 26.7231 16.1203 24.9245C16.4968 24.2511 17.3479 24.0101 18.0215 24.3864C18.6949 24.763 18.9356 25.6139 18.5592 26.2871L18.5591 26.2872C17.7145 27.799 18.1569 29.3005 18.8032 31.3192C19.127 32.3311 19.4483 33.3377 19.5847 34.4139L19.5848 34.4144C19.6204 34.693 19.6608 34.9269 19.7022 35.1658M14.5169 5.84925L19.7022 35.1658M19.7022 35.1658L19.7022 35.1657L20.0851 35.0994L19.7022 35.1658ZM26.2976 35.1658L26.2977 35.1657L25.9148 35.0994L26.2976 35.1658ZM34.0337 15.4058C34.6919 15.8758 35.2842 16.3876 35.8097 16.9373L33.8013 15.7314M34.0337 15.4058L33.8013 15.7314M33.8013 15.7314C34.5969 16.2995 35.2908 16.9287 35.8825 17.6111L36.5194 18.3457L36.5838 17.3756C36.6457 16.4431 36.6846 15.4676 36.6945 14.452V14.4519C36.6984 14.0386 36.6959 13.6243 36.6899 13.2098L36.6881 13.08L36.6104 12.976C34.0858 9.59931 30.7876 8.55675 30.6959 8.52997L33.8013 15.7314ZM37.7361 29.4603C38.7411 29.3055 39.959 29.0532 40.8972 28.3233C42.2257 27.2902 42.806 25.4632 42.806 22.9103C42.806 22.1391 43.4313 21.5137 44.2029 21.5137C44.9746 21.5137 45.5998 22.1391 45.5998 22.9103C45.5998 26.4796 44.5662 29.009 42.6125 30.5285C40.9442 31.8258 38.9642 32.1112 37.5801 32.3061L37.5799 32.3062L37.5544 32.3098C37.2367 32.3547 36.9152 32.4001 36.6855 32.4505C36.1702 32.5635 35.5812 32.6226 34.9252 32.6878C33.5509 32.8243 32.2964 32.9888 31.2972 33.4294C30.2663 33.8838 29.5067 34.6317 29.1292 35.8898L29.5124 36.0047M37.7361 29.4603L31.3552 43.216M31.3552 43.216L31.3551 43.2159C30.6221 42.4819 29.8096 41.8575 28.9376 41.3484L28.7386 41.2322L28.7393 41.0018C28.7474 38.3324 28.8317 37.1477 28.9376 36.3569L28.9485 36.2759L28.9902 36.2057C29.0479 36.1086 29.0951 36.0029 29.1294 35.8891L29.5124 36.0047M31.3552 43.216C31.9004 43.7615 31.9001 44.6458 31.3545 45.1913C31.0815 45.4638 30.7247 45.5998 30.3669 45.5998C30.0086 45.5998 29.6516 45.4635 29.3788 45.1904C27.6754 43.4851 25.4085 42.5455 22.9997 42.5455C20.591 42.5455 18.3241 43.4851 16.621 45.1904L31.3552 43.216ZM29.5124 36.0047C29.4685 36.15 29.4081 36.2855 29.3341 36.41L37.6228 32.7041C37.295 32.7504 36.9859 32.7941 36.7711 32.8412C36.2286 32.9602 35.6147 33.0212 34.9648 33.0858C32.2024 33.3603 30.1946 33.7305 29.5124 36.0047ZM36.2961 14.4481L36.2961 14.4481L36.2961 14.4481Z" fill="#7B8E98" stroke="white" stroke-width="0.8"/>
</svg>
