<svg width="24" height="24" viewBox="0 0 24 24" fill="none" xmlns="http://www.w3.org/2000/svg">
<mask id="path-1-inside-1_7535_1022" fill="white">
<path d="M18.3136 7.76471C18.1224 7.47002 17.8984 7.19845 17.6471 6.95492V5.29412C17.6471 4.32104 18.4387 3.52941 19.4118 3.52941C20.3848 3.52941 21.1765 4.32104 21.1765 5.29412V5.64706C21.1765 6.03691 21.4925 6.35294 21.8824 6.35294C22.2722 6.35294 22.5882 6.03691 22.5882 5.64706C22.5882 5.39909 22.5882 5.15209 22.5882 4.94118C22.5882 2.21661 20.3716 0 17.6471 0C14.9225 0 12.7059 2.21661 12.7059 4.94118V5.64706H11.2941V4.94118C11.2941 2.21661 9.07751 0 6.35294 0C3.62838 0 1.41176 2.21661 1.41176 4.94118V5.64706C1.41176 6.03691 1.7278 6.35294 2.11765 6.35294C2.5075 6.35294 2.82353 6.03691 2.82353 5.64706V5.29412C2.82353 4.32104 3.61515 3.52941 4.58824 3.52941C5.56132 3.52941 6.35294 4.32104 6.35294 5.29412V6.95492C6.1016 7.19845 5.87769 7.47007 5.68635 7.76471H0V8.47059C0 10.4167 1.58329 12 3.52941 12H4.56132C4.18538 12.6481 3.55947 13.1341 2.8163 13.3242C2.43861 13.4208 2.11765 13.7278 2.11765 14.1176C2.11765 14.5075 2.43542 14.817 2.82128 14.8727C4.09504 15.0564 5.18675 15.7679 5.40979 17.2177L5.86028 20.1459C6.2016 22.3645 8.11195 24 10.3526 24H13.6474C15.892 24 17.799 22.3606 18.1397 20.146L18.5902 17.2177C18.8132 15.7679 19.905 15.0564 21.1787 14.8727C21.5646 14.8171 21.8824 14.5075 21.8824 14.1177C21.8824 13.7278 21.5614 13.4209 21.1837 13.3243C20.4405 13.1342 19.8146 12.6482 19.4387 12H20.4706C22.4167 12 24 10.4168 24 8.47064V7.76475L18.3136 7.76471ZM14.1176 4.94118C14.1176 2.99506 15.7009 1.41176 17.6471 1.41176C18.4536 1.41176 19.1972 1.68428 19.7922 2.14122C19.6674 2.12626 19.5406 2.11765 19.4118 2.11765C17.6602 2.11765 16.2353 3.54259 16.2353 5.29412V6.01595C15.6784 5.77859 15.0661 5.64706 14.4235 5.64706H14.1176V4.94118ZM4.58824 2.11765C4.45939 2.11765 4.33261 2.12626 4.20776 2.14122C4.80278 1.68428 5.54645 1.41176 6.35294 1.41176C8.29906 1.41176 9.88235 2.99506 9.88235 4.94118V5.64706H9.57647C8.93393 5.64706 8.32155 5.77859 7.76471 6.01595V5.29412C7.76471 3.54259 6.33977 2.11765 4.58824 2.11765ZM3.52941 10.5882C2.60913 10.5882 1.82405 9.99817 1.53271 9.17647H5.07482C4.98772 9.53101 4.94118 9.90132 4.94118 10.2824V10.5882H3.52941ZM12.0004 18.7723C11.7373 18.5298 11.4788 18.3236 11.2177 18.1475C11.0446 18.0308 10.9412 17.8364 10.9412 17.6275V17.5294C10.9412 17.205 11.205 16.9412 11.5294 16.9412H12.4706C12.795 16.9412 13.0588 17.205 13.0588 17.5294V17.6275C13.0588 17.8364 12.9555 18.0308 12.7823 18.1475C12.4817 18.3502 12.2142 18.5756 12.0004 18.7723ZM18.6232 14.4326C17.8558 15.0909 17.3486 16.0038 17.1948 17.0031L16.7443 19.9313C16.5075 21.4708 15.205 22.5882 13.6473 22.5882H12.7059V20.0529C12.9029 19.8543 13.2105 19.5616 13.5715 19.3182C14.1345 18.9386 14.4706 18.3066 14.4706 17.6275V17.5294C14.4706 16.4266 13.5734 15.5294 12.4706 15.5294H11.5294C10.4266 15.5294 9.52941 16.4266 9.52941 17.5294V17.6275C9.52941 18.3066 9.86555 18.9386 10.4285 19.3181C10.7092 19.5073 10.9928 19.7485 11.2941 20.0531V22.5882H10.3526C8.79496 22.5882 7.49252 21.4708 7.25562 19.9313L6.80513 17.0031C6.65139 16.0038 6.14419 15.0909 5.3768 14.4326C5.16235 14.2487 4.93092 14.0887 4.68734 13.9524C5.69911 13.1777 6.35294 11.958 6.35294 10.5882V10.2824C6.35294 8.50489 7.79901 7.05882 9.57647 7.05882H14.4235C16.201 7.05882 17.6471 8.50489 17.6471 10.2824V10.5882C17.6471 11.958 18.3009 13.1777 19.3127 13.9524C19.069 14.0887 18.8376 14.2487 18.6232 14.4326ZM20.4706 10.5882H19.0588V10.2824C19.0588 9.90132 19.0123 9.53101 18.9252 9.17647H22.4673C22.176 9.99817 21.3909 10.5882 20.4706 10.5882Z"/>
</mask>
<path d="M18.3136 7.76471C18.1224 7.47002 17.8984 7.19845 17.6471 6.95492V5.29412C17.6471 4.32104 18.4387 3.52941 19.4118 3.52941C20.3848 3.52941 21.1765 4.32104 21.1765 5.29412V5.64706C21.1765 6.03691 21.4925 6.35294 21.8824 6.35294C22.2722 6.35294 22.5882 6.03691 22.5882 5.64706C22.5882 5.39909 22.5882 5.15209 22.5882 4.94118C22.5882 2.21661 20.3716 0 17.6471 0C14.9225 0 12.7059 2.21661 12.7059 4.94118V5.64706H11.2941V4.94118C11.2941 2.21661 9.07751 0 6.35294 0C3.62838 0 1.41176 2.21661 1.41176 4.94118V5.64706C1.41176 6.03691 1.7278 6.35294 2.11765 6.35294C2.5075 6.35294 2.82353 6.03691 2.82353 5.64706V5.29412C2.82353 4.32104 3.61515 3.52941 4.58824 3.52941C5.56132 3.52941 6.35294 4.32104 6.35294 5.29412V6.95492C6.1016 7.19845 5.87769 7.47007 5.68635 7.76471H0V8.47059C0 10.4167 1.58329 12 3.52941 12H4.56132C4.18538 12.6481 3.55947 13.1341 2.8163 13.3242C2.43861 13.4208 2.11765 13.7278 2.11765 14.1176C2.11765 14.5075 2.43542 14.817 2.82128 14.8727C4.09504 15.0564 5.18675 15.7679 5.40979 17.2177L5.86028 20.1459C6.2016 22.3645 8.11195 24 10.3526 24H13.6474C15.892 24 17.799 22.3606 18.1397 20.146L18.5902 17.2177C18.8132 15.7679 19.905 15.0564 21.1787 14.8727C21.5646 14.8171 21.8824 14.5075 21.8824 14.1177C21.8824 13.7278 21.5614 13.4209 21.1837 13.3243C20.4405 13.1342 19.8146 12.6482 19.4387 12H20.4706C22.4167 12 24 10.4168 24 8.47064V7.76475L18.3136 7.76471ZM14.1176 4.94118C14.1176 2.99506 15.7009 1.41176 17.6471 1.41176C18.4536 1.41176 19.1972 1.68428 19.7922 2.14122C19.6674 2.12626 19.5406 2.11765 19.4118 2.11765C17.6602 2.11765 16.2353 3.54259 16.2353 5.29412V6.01595C15.6784 5.77859 15.0661 5.64706 14.4235 5.64706H14.1176V4.94118ZM4.58824 2.11765C4.45939 2.11765 4.33261 2.12626 4.20776 2.14122C4.80278 1.68428 5.54645 1.41176 6.35294 1.41176C8.29906 1.41176 9.88235 2.99506 9.88235 4.94118V5.64706H9.57647C8.93393 5.64706 8.32155 5.77859 7.76471 6.01595V5.29412C7.76471 3.54259 6.33977 2.11765 4.58824 2.11765ZM3.52941 10.5882C2.60913 10.5882 1.82405 9.99817 1.53271 9.17647H5.07482C4.98772 9.53101 4.94118 9.90132 4.94118 10.2824V10.5882H3.52941ZM12.0004 18.7723C11.7373 18.5298 11.4788 18.3236 11.2177 18.1475C11.0446 18.0308 10.9412 17.8364 10.9412 17.6275V17.5294C10.9412 17.205 11.205 16.9412 11.5294 16.9412H12.4706C12.795 16.9412 13.0588 17.205 13.0588 17.5294V17.6275C13.0588 17.8364 12.9555 18.0308 12.7823 18.1475C12.4817 18.3502 12.2142 18.5756 12.0004 18.7723ZM18.6232 14.4326C17.8558 15.0909 17.3486 16.0038 17.1948 17.0031L16.7443 19.9313C16.5075 21.4708 15.205 22.5882 13.6473 22.5882H12.7059V20.0529C12.9029 19.8543 13.2105 19.5616 13.5715 19.3182C14.1345 18.9386 14.4706 18.3066 14.4706 17.6275V17.5294C14.4706 16.4266 13.5734 15.5294 12.4706 15.5294H11.5294C10.4266 15.5294 9.52941 16.4266 9.52941 17.5294V17.6275C9.52941 18.3066 9.86555 18.9386 10.4285 19.3181C10.7092 19.5073 10.9928 19.7485 11.2941 20.0531V22.5882H10.3526C8.79496 22.5882 7.49252 21.4708 7.25562 19.9313L6.80513 17.0031C6.65139 16.0038 6.14419 15.0909 5.3768 14.4326C5.16235 14.2487 4.93092 14.0887 4.68734 13.9524C5.69911 13.1777 6.35294 11.958 6.35294 10.5882V10.2824C6.35294 8.50489 7.79901 7.05882 9.57647 7.05882H14.4235C16.201 7.05882 17.6471 8.50489 17.6471 10.2824V10.5882C17.6471 11.958 18.3009 13.1777 19.3127 13.9524C19.069 14.0887 18.8376 14.2487 18.6232 14.4326ZM20.4706 10.5882H19.0588V10.2824C19.0588 9.90132 19.0123 9.53101 18.9252 9.17647H22.4673C22.176 9.99817 21.3909 10.5882 20.4706 10.5882Z" fill="#7B8E98" stroke="white" stroke-width="0.4" mask="url(#path-1-inside-1_7535_1022)"/>
<path d="M9.88235 12.7059C9.88235 12.316 9.56631 12 9.17646 12C8.78662 12 8.47058 12.316 8.47058 12.7059C8.47058 13.0957 8.78662 13.4118 9.17646 13.4118C9.56631 13.4118 9.88235 13.0957 9.88235 12.7059Z" fill="#7B8E98"/>
<path d="M15.5294 12.7059C15.5294 12.316 15.2134 12 14.8235 12C14.4337 12 14.1177 12.316 14.1177 12.7059C14.1177 13.0957 14.4337 13.4118 14.8235 13.4118C15.2134 13.4118 15.5294 13.0957 15.5294 12.7059Z" fill="#7B8E98"/>
</svg>
