<svg width="24" height="20" viewBox="0 0 24 20" fill="none" xmlns="http://www.w3.org/2000/svg">
<path d="M22.5938 1.06793H9.38878C9.19533 0.522307 8.67398 0.130432 8.06287 0.130432H5.25038C4.63927 0.130432 4.11792 0.522307 3.92447 1.06793H1.40625C0.630844 1.06793 0 1.69878 0 2.47418V7.16168C0 7.93709 0.630844 8.56793 1.40625 8.56793H3.92447C4.11792 9.11356 4.63927 9.50543 5.25038 9.50543H8.06287C8.67398 9.50543 9.19533 9.11356 9.38878 8.56793H11.5312V13.7198L9.7718 14.1913C9.25439 13.5025 8.35434 13.1766 7.49813 13.406C6.35452 13.7124 5.67337 14.8921 5.9798 16.0358C6.07219 16.3806 6.25027 16.699 6.49481 16.9569C6.50883 16.9717 6.52261 16.9859 6.53597 16.9998C6.55833 17.0229 6.58706 17.0527 6.60305 17.0717C6.59873 17.0962 6.58875 17.1363 6.58097 17.1674C6.57628 17.1862 6.5715 17.2055 6.56672 17.2254C6.48384 17.5708 6.48891 17.9357 6.5813 18.2806C6.83808 19.2388 7.70784 19.8723 8.65584 19.8723C8.83927 19.8722 9.02569 19.8485 9.21108 19.7989C10.0674 19.5694 10.6838 18.8372 10.7875 17.982L14.228 17.0601C14.7441 17.7493 15.6444 18.0752 16.5028 17.845C17.6464 17.5386 18.3275 16.3589 18.021 15.2152C17.9286 14.8704 17.7505 14.5519 17.5062 14.2943C17.4921 14.2794 17.4782 14.2651 17.4647 14.2511C17.4425 14.228 17.4138 14.1984 17.3978 14.1793C17.4021 14.1549 17.4121 14.1148 17.4198 14.0837C17.4245 14.065 17.4293 14.0456 17.4342 14.0256C17.822 12.4656 16.3403 11.0224 14.7898 11.4522C13.9313 11.6822 13.3146 12.4145 13.2123 13.2694L12.4688 13.4687V8.56793H22.5938C23.3692 8.56793 24 7.93709 24 7.16168V2.47418C24 1.69878 23.3692 1.06793 22.5938 1.06793ZM13.7911 14.0849C14.0074 14.0269 14.1525 13.8242 14.1375 13.6008C14.0987 13.0205 14.4668 12.5094 15.0325 12.3577C15.6657 12.1881 16.3443 12.5797 16.5141 13.2131C16.5669 13.4103 16.5697 13.6102 16.5226 13.807L16.5103 13.8569C16.473 14.0066 16.4265 14.1929 16.4881 14.423C16.5497 14.6531 16.6832 14.7913 16.7904 14.9024L16.826 14.9395C16.9633 15.0842 17.0634 15.2635 17.1156 15.4579C17.2853 16.0914 16.8936 16.7698 16.2601 16.9395C15.6944 17.0912 15.1201 16.8325 14.8635 16.3105C14.7648 16.1096 14.5378 16.0064 14.3216 16.0645L10.2095 17.1663C9.9937 17.2241 9.84867 17.4262 9.86302 17.6491C9.89977 18.2213 9.52355 18.7446 8.9685 18.8934C8.32444 19.0659 7.65961 18.6823 7.48697 18.038C7.43484 17.8435 7.43194 17.6382 7.47844 17.4442L7.49072 17.3944C7.52808 17.2446 7.57463 17.0581 7.51289 16.828C7.4512 16.5978 7.31766 16.4596 7.21036 16.3485L7.17506 16.3117C7.03575 16.1648 6.93834 15.9904 6.88547 15.7931C6.71283 15.1488 7.09655 14.4842 7.74089 14.3116C8.29594 14.1626 8.88337 14.4279 9.13767 14.9418C9.23676 15.142 9.46317 15.2447 9.67912 15.1867L13.7911 14.0849ZM9.38878 7.63043C9.19533 7.08481 8.67398 6.69293 8.06287 6.69293H7.12537V5.28668H9.00037C9.62231 5.26193 9.62184 4.37374 9.00037 4.34918H7.12537V2.94293H8.06287C8.67398 2.94293 9.19533 2.55106 9.38878 2.00543H18.5689L21.05 4.48653C21.2303 4.65917 21.2303 4.97675 21.05 5.14939L18.5689 7.63048L9.38878 7.63043ZM0.9375 7.16168V2.47418C0.9375 2.21571 1.14778 2.00543 1.40625 2.00543H3.84413V7.63043H1.40625C1.14778 7.63043 0.9375 7.42015 0.9375 7.16168ZM8.06287 8.56793H5.25038C4.99191 8.56793 4.78163 8.35765 4.78163 8.09918V1.53668C4.78163 1.27821 4.99191 1.06793 5.25038 1.06793H8.06287C8.68491 1.09376 8.68439 1.97984 8.06287 2.00543H6.65662C6.39773 2.00543 6.18787 2.21534 6.18787 2.47418V4.34918C5.56594 4.37393 5.56641 5.26212 6.18787 5.28668V7.16168C6.18787 7.42053 6.39773 7.63043 6.65662 7.63043H8.06287C8.68486 7.65626 8.68439 8.54234 8.06287 8.56793ZM23.0625 7.16168C23.0625 7.42015 22.8522 7.63043 22.5938 7.63043H19.8948L21.7129 5.81229C22.257 5.29062 22.257 4.3452 21.7129 3.82357L19.8948 2.00543H22.5938C22.8522 2.00543 23.0625 2.21571 23.0625 2.47418V7.16168Z" fill="#7B8E98"/>
</svg>
