<svg width="24" height="24" viewBox="0 0 24 24" fill="none" xmlns="http://www.w3.org/2000/svg">
<g clip-path="url(#clip0_7535_18584)">
<path d="M16.4349 19C15.4369 19 14.6469 18.382 14.4289 17.5H9.57088C9.35388 18.382 8.56288 19 7.56488 19C6.42688 19 5.49988 18.042 5.49988 16.864C5.49988 16.359 5.67188 15.879 5.97488 15.5C5.67188 15.121 5.49988 14.641 5.49988 14.136C5.49988 12.958 6.42688 12 7.56488 12C8.56288 12 9.35288 12.618 9.57088 13.5H14.4279C14.6459 12.618 15.4359 12 16.4339 12C17.5729 12 18.4989 12.958 18.4989 14.136C18.4989 14.641 18.3269 15.121 18.0239 15.5C18.3269 15.879 18.4989 16.359 18.4989 16.864C18.4999 18.042 17.5729 19 16.4349 19ZM9.13088 16.5H14.8689C15.1449 16.5 15.3689 16.724 15.3689 17C15.3689 17.687 15.9219 18 16.4339 18C17.0219 18 17.4989 17.49 17.4989 16.864C17.4989 16.478 17.3169 16.122 17.0139 15.91C16.8799 15.817 16.7999 15.663 16.7999 15.5C16.7999 15.337 16.8799 15.183 17.0139 15.09C17.3179 14.879 17.4989 14.522 17.4989 14.136C17.4999 13.51 17.0219 13 16.4349 13C15.9219 13 15.3699 13.313 15.3699 14C15.3699 14.276 15.1459 14.5 14.8699 14.5H9.13088C8.85488 14.5 8.63088 14.276 8.63088 14C8.63088 13.313 8.07788 13 7.56588 13C6.97788 13 6.49988 13.51 6.49988 14.136C6.49988 14.522 6.68188 14.878 6.98488 15.09C7.11888 15.183 7.19888 15.337 7.19888 15.5C7.19888 15.663 7.11888 15.817 6.98488 15.91C6.68188 16.122 6.49988 16.478 6.49988 16.864C6.49988 17.49 6.97788 18 7.56488 18C8.07788 18 8.62988 17.687 8.62988 17C8.63088 16.724 8.85388 16.5 9.13088 16.5Z" fill="#7B8E98"/>
<path d="M20.5 24H3.5C2.673 24 2 23.327 2 22.5V11.5C2 11.456 2.006 11.411 2.018 11.369L4.816 1.105C4.995 0.454 5.59 0 6.264 0H17.737C18.411 0 19.006 0.454 19.184 1.105L21.983 11.369C21.994 11.411 22 11.456 22 11.5V22.5C22 23.327 21.327 24 20.5 24ZM3 11.567V22.5C3 22.776 3.225 23 3.5 23H20.5C20.775 23 21 22.776 21 22.5V11.567L18.219 1.368C18.159 1.152 17.961 1 17.736 1H6.264C6.039 1 5.841 1.152 5.781 1.369L3 11.567Z" fill="#7B8E98"/>
<path d="M14.9999 6H8.99988C7.89688 6 6.99988 5.103 6.99988 4C6.99988 2.897 7.89688 2 8.99988 2H14.9999C16.1029 2 16.9999 2.897 16.9999 4C16.9999 5.103 16.1029 6 14.9999 6ZM8.99988 3C8.44788 3 7.99988 3.449 7.99988 4C7.99988 4.551 8.44788 5 8.99988 5H14.9999C15.5519 5 15.9999 4.551 15.9999 4C15.9999 3.449 15.5519 3 14.9999 3H8.99988Z" fill="#7B8E98"/>
</g>
<defs>
<clipPath id="clip0_7535_18584">
<path d="M0 0H24V24H0V0Z" fill="white"/>
</clipPath>
</defs>
</svg>
