<svg width="24" height="20" viewBox="0 0 24 20" fill="none" xmlns="http://www.w3.org/2000/svg">
<path fill-rule="evenodd" clip-rule="evenodd" d="M1.11449 14.1481C1.07731 14.1576 1.04013 14.1623 1.00296 14.1623C0.805425 14.1623 0.624017 14.0294 0.564444 13.8251C0.545631 13.7608 0.39289 13.1794 0.809456 12.528C1.33755 11.7022 2.51738 11.1669 4.31757 10.9359L4.92898 9.90812C4.97646 9.82881 5.04499 9.7655 5.12651 9.7263C9.64826 7.55355 14.5512 4.90677 14.9292 4.23841C14.9736 4.14287 15.0242 4.02413 15.0802 3.89217C15.5765 2.73054 16.501 0.590255 18.7016 0.608808C19.7157 0.627361 20.7038 1.1851 21.3453 2.10021L21.8281 2.78875C23.4782 3.22729 23.4782 3.6162 23.4782 3.85136C23.4551 3.8594 23.4298 3.86896 23.4024 3.87934C23.2905 3.92166 23.1425 3.97765 22.9565 3.99999C22.0047 4.11432 21.3475 4.80102 21.3475 4.97751C21.3475 5.22588 21.4008 5.63868 21.4626 6.11641C21.6064 7.2254 21.7851 9.14575 21.5316 10.1225C21.3499 10.8228 20.4539 13.5444 18.3294 14.6364V16.0809L19.7283 17.0768C19.937 17.2255 19.9898 17.5212 19.8465 17.7373C19.7574 17.8714 19.614 17.9433 19.468 17.9433C19.3784 17.9433 19.288 17.9161 19.2087 17.8598L18.3294 17.2338V17.4683C18.3294 17.7306 18.1243 17.9433 17.8707 17.9433C17.6172 17.9433 17.4121 17.7306 17.4121 17.4683V17.2336L16.5323 17.8598C16.4531 17.9161 16.3626 17.9433 16.273 17.9433C16.127 17.9433 15.9836 17.8714 15.8945 17.7373C15.7512 17.5212 15.804 17.2255 16.0128 17.0768L17.4121 16.0809V15.0375C16.9483 15.2107 16.4437 15.3604 15.8842 15.4704C15.5945 15.5273 15.2997 15.5676 15.0023 15.5982V17.2259L16.7447 18.5316C16.9498 18.6854 16.9959 18.9822 16.8477 19.1949C16.7577 19.3231 16.6175 19.3913 16.4755 19.3913C16.3823 19.3913 16.273 19.3693 16.2072 19.3011L15.0023 18.3981V18.9163C15.0023 19.1786 14.7971 19.3913 14.5436 19.3913C14.2901 19.3913 14.0849 19.1786 14.0849 18.9163V18.398L12.8796 19.3011C12.7985 19.3621 12.7044 19.3913 12.6113 19.3913C12.4688 19.3913 12.3291 19.3231 12.239 19.1949C12.0908 18.9822 12.1369 18.6854 12.3421 18.5316L14.0849 17.2258V15.6509C13.219 15.6619 12.3271 15.5699 11.4158 15.3688C8.99722 14.8346 7.36944 13.9342 6.38588 13.3902C5.82128 13.0779 5.46896 12.883 5.3012 12.9422C3.98879 13.4028 1.2314 14.118 1.11449 14.1481ZM4.64007 11.8534C2.52544 12.089 1.82355 12.6878 1.59332 13.024C1.5884 13.031 1.58392 13.0379 1.57945 13.0449L1.57943 13.0449C2.50035 12.7984 4.12183 12.3531 5.00647 12.0424C5.09015 12.0131 5.19387 11.9914 5.30935 11.974C6.76078 11.3394 7.7797 11.4918 8.74939 11.6369C9.4611 11.7433 10.1463 11.8458 10.9565 11.6303L10.9647 11.6281C11.7751 11.4124 12.6134 11.1893 13.4165 10.9494C15.7692 10.247 16.1286 7.4316 16.1675 7.12687C16.1697 7.11026 16.1708 7.1011 16.1713 7.10017C16.2958 6.87197 16.5745 6.79034 16.7948 6.91719C17.0157 7.04451 17.0958 7.33185 16.9736 7.56097C16.9692 7.56919 16.9617 7.60643 16.9494 7.66788C16.8309 8.25881 16.2639 11.0879 13.6709 11.8622C12.8579 12.1047 12.0171 12.3286 11.2033 12.5453L11.1845 12.5503C10.6719 12.6866 9.78398 12.6012 8.91677 12.5178C8.05563 12.435 7.21495 12.3541 6.7826 12.4943C8.08695 13.3047 9.97855 14.08 11.6075 14.4398C13.0444 14.7573 14.4253 14.79 15.7131 14.5372C19.7058 13.7521 20.6185 9.98747 20.645 9.87808C20.6453 9.87686 20.6455 9.8761 20.6456 9.87579C20.8516 9.08313 20.6792 7.21334 20.5538 6.2428L20.5535 6.24073C20.4873 5.73001 20.4302 5.28877 20.4302 4.97751C20.4302 4.33512 20.9833 3.94319 21.5903 3.70688C21.5423 3.69389 21.4944 3.68137 21.4465 3.66931C21.3408 3.64264 21.2476 3.57794 21.1836 3.4868L20.6026 2.65819C20.1296 1.9831 19.4129 1.57193 18.6855 1.55871L18.6842 1.55868C18.6712 1.55846 18.6587 1.55824 18.6461 1.55824C17.0808 1.55824 16.3547 3.25728 15.9193 4.2761L15.9191 4.27645C15.8587 4.41837 15.804 4.54616 15.7539 4.65423C15.2038 5.8416 8.03486 9.37311 5.63759 10.5278L4.98183 11.6303C4.90748 11.7553 4.78116 11.8378 4.64007 11.8534ZM19.5036 3.20765C19.5036 3.46095 19.2985 3.66632 19.0449 3.66632C18.7919 3.66632 18.584 3.46095 18.584 3.20765C18.584 2.95435 18.7874 2.74898 19.0404 2.74898H19.0449C19.2985 2.74898 19.5036 2.95435 19.5036 3.20765Z" fill="#7B8E98"/>
</svg>
