<svg width="22" height="24" viewBox="0 0 22 24" fill="none" xmlns="http://www.w3.org/2000/svg">
<path d="M0.8972 4.5192V0.1H3.20743C5.16948 0.1 6.80758 1.51592 7.15277 3.37978L7.17253 3.48649L7.27727 3.45808C7.92474 3.28248 8.60405 3.18905 9.30256 3.18905H12.6975C13.3961 3.18905 14.0754 3.28253 14.7228 3.45808L14.8276 3.48648L14.8473 3.37978C15.1926 1.51592 16.8306 0.1 18.7927 0.1H21.103V4.5192C21.103 5.68755 20.6041 6.77368 19.7435 7.5294L19.6869 7.57908L19.719 7.64718C20.0605 8.37161 20.294 9.15937 20.3974 9.99111L21.0427 15.183L21.0429 15.1846C21.6776 19.7065 17.9107 23.9712 13.3445 23.8991H13.3429L8.6573 23.899L8.65572 23.8991C4.09009 23.9712 0.322549 19.7071 0.957318 15.1846L0.957512 15.183L1.60282 9.99111L1.50358 9.97877L1.60282 9.9911C1.70616 9.15937 1.93962 8.37161 2.28115 7.64719L2.31326 7.57908L2.25668 7.5294C1.39606 6.77368 0.8972 5.68755 0.8972 4.5192ZM2.2034 1.3062H2.1034V1.4062V4.5192C2.1034 5.23906 2.37477 5.91514 2.85192 6.42764L2.93492 6.51679L3.0062 6.41801C3.76404 5.36782 4.77608 4.51833 5.94577 3.95475L6.00825 3.92465L6.00195 3.85558C5.87182 2.42807 4.66834 1.3062 3.20743 1.3062H2.2034ZM15.9982 3.85558L15.9919 3.92465L16.0544 3.95475C17.224 4.51833 18.2361 5.36782 18.994 6.41797L19.0652 6.51673L19.1482 6.42759C19.6254 5.91514 19.8968 5.23906 19.8968 4.5192V1.4062V1.3062H19.7968H18.7927C17.3318 1.3062 16.1283 2.42807 15.9982 3.85558ZM19.8457 15.3318L19.7465 15.3441L19.8457 15.3318L19.2004 10.1399C18.7933 6.86482 15.9978 4.39525 12.6975 4.39525H9.30256C6.00232 4.39525 3.2068 6.86482 2.79976 10.1399L2.15467 15.3302C2.15463 15.3305 2.15459 15.3308 2.15456 15.331C1.61849 19.1539 4.79764 22.7533 8.65798 22.6929H13.3429C15.2207 22.6929 17.0106 21.8857 18.2539 20.4784C19.4971 19.0711 20.0773 17.1952 19.8457 15.3318Z" fill="#7B8E98" stroke="white" stroke-width="0.2"/>
<path d="M12.5578 14.3741L12.5578 14.3741C11.6271 13.7841 10.3731 13.7841 9.44235 14.3741L9.44161 14.3745L9.4416 14.3745L7.2656 15.7269C4.7613 17.2892 5.87265 21.1755 8.82429 21.187L13.1761 21.187M12.5578 14.3741L13.1762 21.187H13.1761M12.5578 14.3741L12.5585 14.3745M12.5578 14.3741L12.5585 14.3745M13.1761 21.187C16.1291 21.1748 17.2376 17.2883 14.7347 15.727L13.1758 21.187C13.1759 21.187 13.176 21.187 13.1761 21.187ZM12.5585 14.3745L14.7346 15.7269L12.5585 14.3745ZM13.1762 19.9808L13.1766 19.9808C14.9219 19.974 15.5806 17.6764 14.0981 16.7516L14.098 16.7515L11.9226 15.3995C11.9224 15.3994 11.9223 15.3993 11.9222 15.3992C11.3701 15.0495 10.63 15.0495 10.0779 15.3992C10.0778 15.3993 10.0776 15.3994 10.0775 15.3995L7.90217 16.7515L7.90204 16.7516C6.4202 17.6758 7.07728 19.9737 8.82349 19.9808H8.8239L13.1762 19.9808Z" fill="#7B8E98" stroke="white" stroke-width="0.2"/>
<path d="M6.54688 11.3971C6.54688 11.0088 6.86166 10.694 7.24998 10.694C7.63829 10.694 7.95308 11.0088 7.95308 11.3971C7.95308 11.7854 7.63829 12.1003 7.24998 12.1003C6.86166 12.1003 6.54688 11.7854 6.54688 11.3971Z" fill="#7B8E98"/>
<path d="M10.2969 17.9594C10.2969 17.5711 9.9821 17.2562 9.59379 17.2562C9.20548 17.2562 8.89069 17.5711 8.89069 17.9594C8.89069 18.3477 9.20548 18.6625 9.59379 18.6625C9.9821 18.6625 10.2969 18.3477 10.2969 17.9594Z" fill="#7B8E98"/>
<path d="M13.1095 17.9594C13.1095 17.5711 12.7947 17.2562 12.4064 17.2562C12.0181 17.2562 11.7033 17.5711 11.7033 17.9594C11.7033 18.3477 12.0181 18.6625 12.4064 18.6625C12.7947 18.6625 13.1095 18.3477 13.1095 17.9594Z" fill="#7B8E98"/>
<path d="M15.4533 11.3971C15.4533 11.0088 15.1385 10.694 14.7502 10.694C14.3619 10.694 14.0471 11.0088 14.0471 11.3971C14.0471 11.7854 14.3619 12.1003 14.7502 12.1003C15.1385 12.1003 15.4533 11.7854 15.4533 11.3971Z" fill="#7B8E98"/>
</svg>
