<svg width="22" height="32" viewBox="0 0 22 32" fill="none" xmlns="http://www.w3.org/2000/svg">
<path d="M13.3598 15.8023L13.315 15.738C12.8146 15.0203 11.9644 14.5458 11.0001 14.5458C9.45821 14.5458 8.21256 15.7564 8.21256 17.2333V18.1334V18.1921L8.17278 18.2352L7.30428 19.1761C6.55897 19.9835 6.34421 21.1474 6.75232 22.1677L7.08096 22.9892L7.17101 23.2144L6.92936 23.1944C4.4274 22.9881 2.45425 20.8878 2.45425 18.3333C2.45425 17.5541 2.64153 16.9018 2.82857 16.4446C2.92215 16.2157 3.01593 16.0351 3.08681 15.9109C3.12226 15.8488 3.15202 15.8008 3.17322 15.7679C3.17579 15.7639 3.17824 15.7601 3.18056 15.7565V10.3889C3.18056 9.54679 3.54021 8.74582 4.16715 8.18652L4.19558 7.86546L4.19558 7.86546L4.345 7.87869C4.48962 6.24487 5.23706 4.73069 6.44937 3.61506C7.66881 2.49294 9.25375 1.875 10.9122 1.875C14.2762 1.875 17.0931 4.39225 17.4646 7.73031L13.3598 15.8023ZM13.3598 15.8023H13.4381H14.2565C16.6302 15.8023 18.6116 17.5122 19.0357 19.7651L19.3263 19.7819C19.469 19.3239 19.5459 18.8373 19.5459 18.3333C19.5459 17.5388 19.3587 16.8865 19.1714 16.4325C19.0777 16.2054 18.9837 16.0274 18.9126 15.9055C18.8771 15.8445 18.8472 15.7974 18.8259 15.7652C18.8237 15.7618 18.8216 15.7586 18.8196 15.7556V10.632C18.8196 9.6339 18.3925 8.68458 17.648 8.0227L13.3598 15.8023ZM20.3946 15.3207V15.3569L20.4111 15.3891C20.8761 16.2959 21.1209 17.3085 21.1209 18.3333C21.1209 20.1437 20.3714 21.782 19.1662 22.9555L19.1209 22.9997V23.063V28.3958C19.1209 30.3003 17.5712 31.85 15.6667 31.85C13.7622 31.85 12.2126 30.3003 12.2126 28.3958V28.2459L12.0626 28.2458L11.0892 28.2453C9.91153 28.2447 8.85553 27.5197 8.43169 26.421L7.83863 24.8835L7.8016 24.7875H7.69869H7.33337C3.77465 24.7875 0.879248 21.892 0.879248 18.3333C0.879248 17.3085 1.12404 16.2959 1.58903 15.3892L1.60556 15.357V15.3208V9.63662C1.60556 8.79085 1.97564 7.98743 2.61842 7.43775L2.52094 7.32375L2.66958 7.34387C2.92881 5.42843 3.84698 3.66564 5.28138 2.34569C6.82018 0.929749 8.81966 0.15 10.9122 0.15C15.0318 0.15 18.5009 3.14315 19.1297 7.1712L19.2779 7.14806L19.1802 7.26185C19.9511 7.924 20.3946 8.88961 20.3946 9.90582V15.3207ZM13.7983 25.7915L13.7876 25.8183V25.8472V28.3958C13.7876 29.4322 14.6304 30.275 15.6667 30.275C16.703 30.275 17.5459 29.4322 17.5459 28.3958V20.6666C17.5459 18.8527 16.0703 17.3773 14.2565 17.3773H13.9376H13.7876V17.5273V18.1334V18.1921L13.8273 18.2352L14.6959 19.1761C15.4412 19.9835 15.6559 21.1474 15.2478 22.1676L13.7983 25.7915ZM8.65409 22.6814L9.9027 25.8029C10.0822 26.2516 10.5168 26.5458 11.0001 26.5458C11.4833 26.5458 11.9179 26.2516 12.0974 25.8029L13.346 22.6814C13.7971 21.5538 13.5597 20.2673 12.7359 19.3749L12.2126 18.8079V17.2333C12.2126 16.6062 11.6545 16.1208 11.0001 16.1208C10.3456 16.1208 9.78756 16.6062 9.78756 17.2333V18.8079L9.26418 19.3749C8.4404 20.2673 8.20302 21.5538 8.65409 22.6814Z" fill="#7B8E98" stroke="white" stroke-width="0.3"/>
<path d="M8.01285 12.0715C8.01285 11.5518 7.59147 11.1304 7.07167 11.1304V11.1304C6.55187 11.1304 6.13049 11.5518 6.13049 12.0715V12.0715C6.13049 12.5913 6.55187 13.0127 7.07167 13.0127V13.0127C7.59147 13.0127 8.01285 12.5913 8.01285 12.0715V12.0715Z" fill="#7B8E98"/>
<path d="M15.5423 12.0715C15.5423 11.5518 15.1209 11.1304 14.6011 11.1304V11.1304C14.0813 11.1304 13.6599 11.5518 13.6599 12.0715V12.0715C13.6599 12.5913 14.0813 13.0127 14.6011 13.0127V13.0127C15.1209 13.0127 15.5423 12.5913 15.5423 12.0715V12.0715Z" fill="#7B8E98"/>
</svg>
