<svg width="24" height="24" viewBox="0 0 24 24" fill="none" xmlns="http://www.w3.org/2000/svg">
<path d="M22.399 4.68422C21.8709 4.15619 21.2317 3.7364 20.5392 3.46146C19.7382 1.39794 17.6579 -0.0251355 15.4329 0.000741101H15.432C11.7556 -0.0607627 9.03036 3.71704 10.1993 7.17034L7.17198 10.1978C5.22148 9.57143 3.06697 10.0839 1.60682 11.544C-1.1849 14.3026 -0.184762 19.107 3.46651 20.5342C3.74136 21.2265 4.16115 21.8657 4.68932 22.3939C5.7602 23.4647 7.1664 24.0001 8.57307 24C9.9794 23.9998 11.3862 23.4645 12.4568 22.3939C13.917 20.9337 14.4293 18.7792 13.803 16.8287L16.8303 13.8013C17.3796 13.9792 17.9454 14.066 18.5079 14.0659C19.9383 14.0659 21.3463 13.5042 22.3989 12.4516C23.4311 11.4194 23.9997 10.0404 23.9999 8.56853C24.0002 7.09637 23.4316 5.71685 22.399 4.68422ZM21.736 11.7887C20.4583 13.0664 18.5513 13.4726 16.8776 12.8234C16.7045 12.7563 16.508 12.7977 16.3766 12.929L12.9314 16.3744C12.8005 16.5053 12.7589 16.701 12.8253 16.8739C13.4703 18.5529 13.0654 20.4593 11.7939 21.7309C9.48343 24.098 5.32489 23.1478 4.27338 20.0152C4.22626 19.8804 4.12027 19.7745 3.98545 19.7273C3.336 19.5003 2.75875 19.1373 2.26972 18.6484C-1.14763 15.0825 2.49666 9.50787 7.12665 11.1754C7.29953 11.2418 7.49534 11.2003 7.62622 11.0693L11.0714 7.62394C11.2027 7.49263 11.2442 7.29612 11.177 7.12295C9.47186 2.53421 15.1378 -1.16103 18.6535 2.26471C19.1354 2.74662 19.5085 3.3399 19.7324 3.98044C19.7796 4.11522 19.8855 4.22111 20.0202 4.26823C23.1675 5.3489 24.094 9.45025 21.736 11.7887Z" fill="#7B8E98"/>
<path d="M21.07 6.01044C20.645 5.5854 20.1171 5.27075 19.5434 5.10054C19.5076 5.0899 19.4728 5.07996 19.4389 5.07021C19.0511 4.95841 19.0396 4.94697 18.9278 4.55919C18.9181 4.5253 18.9081 4.49047 18.8975 4.45466C18.7273 3.88101 18.4126 3.35312 17.9875 2.92808C17.3063 2.24666 16.394 1.8729 15.421 1.876C14.4528 1.8789 13.5476 2.25257 12.8721 2.92808C12.2046 3.59552 11.8261 4.47561 11.8063 5.40614C11.7899 6.17864 12.0207 6.92751 12.4626 7.55633L7.55842 12.4608C6.14069 11.4678 4.18541 11.615 2.93035 12.87C1.5271 14.2164 1.52715 16.639 2.93035 17.9854C3.35562 18.4106 3.88351 18.7253 4.45711 18.8954C4.49274 18.9059 4.52738 18.9158 4.56109 18.9255C4.75671 18.9816 4.8537 19.0115 4.92017 19.0779C4.98665 19.1444 5.01655 19.2414 5.07267 19.437C5.08232 19.4708 5.09226 19.5054 5.10286 19.5411C5.8694 22.1538 9.21091 23.004 11.1282 21.0678C12.3833 19.8128 12.5304 17.8575 11.5374 16.4398L16.4417 11.5353C17.0706 11.9772 17.8198 12.2088 18.592 12.1916C19.5225 12.1718 20.4026 11.7933 21.07 11.1259C21.7456 10.4504 22.1192 9.54518 22.1222 8.57696C22.1251 7.60331 21.7515 6.69186 21.07 6.01044ZM20.4071 10.4629C19.3813 11.4886 17.7961 11.5304 16.7198 10.5599C16.5345 10.3929 16.2508 10.4001 16.0744 10.5766L10.579 16.0722C10.4026 16.2486 10.3953 16.5323 10.5624 16.7176C11.517 17.7762 11.4744 19.3958 10.4653 20.4048C9.05757 21.837 6.5564 21.2011 6.00179 19.2745C5.99204 19.2416 5.98289 19.2097 5.97399 19.1786C5.9003 18.9216 5.82412 18.6559 5.58321 18.415C5.34231 18.1741 5.07651 18.0979 4.81948 18.0242C4.78835 18.0153 4.75643 18.0061 4.72361 17.9964C4.29937 17.8706 3.9085 17.6375 3.59334 17.3224C2.55382 16.3249 2.55382 14.5304 3.59334 13.5329C4.60229 12.524 6.22197 12.4813 7.28057 13.4359C7.46588 13.6029 7.74954 13.5956 7.92599 13.4192L13.4214 7.92358C13.5978 7.74717 13.6051 7.46347 13.438 7.27816C12.4676 6.20194 12.5093 4.61681 13.5352 3.59102C14.0343 3.09182 14.7051 2.81571 15.424 2.81355C16.5957 2.79283 17.6782 3.60363 17.9987 4.72134C18.0085 4.75439 18.0177 4.78651 18.0267 4.81773C18.1003 5.07457 18.1765 5.34013 18.4173 5.5809C18.658 5.82162 18.9236 5.89779 19.1805 5.97149C19.2118 5.98044 19.2438 5.98967 19.2768 5.99942C19.7013 6.12539 20.0921 6.35846 20.4071 6.67348C20.9107 7.17704 21.1868 7.85204 21.1847 8.57415C21.1824 9.29288 20.9063 9.9637 20.4071 10.4629Z" fill="#7B8E98"/>
<path d="M15.6154 4.69953L15.6151 4.6993C15.4321 4.51624 15.1354 4.51638 14.9523 4.69944C14.6564 4.99088 14.8739 5.50433 15.2839 5.49983C15.6939 5.50428 15.9114 4.99092 15.6154 4.69953Z" fill="#7B8E98"/>
<path d="M19.3271 7.61618C19.144 7.43313 18.8473 7.43322 18.6642 7.61632C18.3683 7.90781 18.5858 8.42122 18.9958 8.41672C19.4058 8.42122 19.6233 7.90781 19.3273 7.61647L19.3271 7.61618Z" fill="#7B8E98"/>
<path d="M16.1642 8.03206L16.164 8.03182C15.6871 7.63182 15.0901 8.28961 15.5336 8.7258C15.7246 8.89958 16.0212 8.88627 16.1958 8.69425C16.3699 8.50267 16.3558 8.20616 16.1642 8.03206Z" fill="#7B8E98"/>
<path d="M12.6486 10.2198L12.6484 10.2196C12.1715 9.81953 11.5745 10.4774 12.018 10.9136C12.209 11.0873 12.5056 11.074 12.6802 10.882C12.8544 10.6904 12.8402 10.3939 12.6486 10.2198Z" fill="#7B8E98"/>
<path d="M11.4532 13.3338C11.2791 13.1423 10.9827 13.1283 10.7911 13.3024C10.5995 13.4766 10.5855 13.7732 10.7597 13.9647C10.9343 14.1567 11.2309 14.1701 11.4219 13.9963C11.6135 13.8221 11.6276 13.5256 11.4534 13.3341L11.4532 13.3338Z" fill="#7B8E98"/>
<path d="M7.61248 14.7279L7.61224 14.7276C7.1354 14.3276 6.53837 14.9855 6.98183 15.4216C7.17286 15.5954 7.46946 15.5821 7.64403 15.3901C7.81818 15.1985 7.80407 14.902 7.61248 14.7279Z" fill="#7B8E98"/>
<path d="M8.68936 18.1241C8.5063 17.941 8.20961 17.9411 8.0265 18.1242C7.73061 18.4156 7.94812 18.9291 8.35812 18.9246C8.76807 18.9291 8.98558 18.4156 8.68959 18.1243L8.68936 18.1241Z" fill="#7B8E98"/>
<path d="M4.84268 15.207C4.65962 15.0239 4.36293 15.024 4.17982 15.2071C3.88393 15.4986 4.10144 16.012 4.51144 16.0075C4.92143 16.012 5.1389 15.4987 4.84291 15.2073L4.84268 15.207Z" fill="#7B8E98"/>
</svg>
