<svg width="24" height="24" viewBox="0 0 24 24" fill="none" xmlns="http://www.w3.org/2000/svg">
<path d="M7.43563 9.23334C6.27194 9.23334 5.3252 10.1801 5.3252 11.3438C5.44113 14.1436 9.43055 14.1427 9.54607 11.3438C9.54607 10.1801 8.59932 9.23334 7.43563 9.23334ZM7.43563 12.5162C6.78913 12.5162 6.26317 11.9903 6.26317 11.3438C6.32756 9.78833 8.54394 9.7888 8.60809 11.3438C8.60809 11.9903 8.08217 12.5162 7.43563 12.5162Z" fill="#7B8E98"/>
<path d="M21.6672 18.3785H19.9232C23.4489 14.0651 20.9948 7.40248 15.5791 6.33746V5.62207C16.8721 5.62207 17.924 4.57014 17.924 3.27714C17.9324 1.35852 15.6963 0.244589 14.1721 1.40144C12.6474 0.244496 10.4119 1.35871 10.4202 3.27714C10.4202 4.57014 11.4721 5.62202 12.7652 5.62202V6.29896C11.5206 6.51844 10.3467 7.04985 9.35565 7.85092C8.17423 7.16302 6.48565 7.20752 5.34503 7.95072C1.8789 7.05379 -0.757599 11.0551 1.4275 13.884C0.515978 15.1253 0 16.6398 0 18.2222C0 19.86 1.33243 21.1924 2.97023 21.1924H14.0696C15.9683 21.1924 17.7046 20.4835 19.0277 19.3165H21.6672C23.5342 19.394 23.5327 22.0536 21.6672 22.1304H14.0696C13.4473 22.1552 13.4478 23.0438 14.0696 23.0684H21.6672C24.7788 22.9392 24.7764 18.5066 21.6672 18.3785ZM13.5215 4.72326C13.4069 4.63439 13.2576 4.60362 13.1172 4.63973C12.2453 4.87587 11.3456 4.18266 11.3582 3.27714C11.358 1.9887 12.9701 1.38038 13.8205 2.34682C13.9971 2.55636 14.3472 2.55636 14.5237 2.34682C15.3744 1.38043 16.9862 1.9887 16.986 3.27719C16.9986 4.18257 16.0989 4.8761 15.227 4.63978C15.0866 4.60372 14.9373 4.63448 14.8228 4.72331C14.7081 4.81213 14.6411 4.94898 14.6411 5.09395V6.20647C14.332 6.18298 14.0143 6.17857 13.7031 6.19386V5.0939C13.7031 4.94894 13.6361 4.81209 13.5215 4.72326ZM1.57331 11.5783C1.57293 10.0228 2.84304 8.75775 4.39852 8.76441C3.67323 9.59803 3.30522 10.8237 3.49901 11.9707C2.96197 12.303 2.4761 12.6985 2.04909 13.1441C1.74022 12.6832 1.57331 12.1394 1.57331 11.5783ZM2.97023 20.2545C1.84963 20.2545 0.937971 19.3428 0.937971 18.2222C0.937971 16.0919 2.01115 14.1025 3.77074 12.9118C3.83292 13.0573 3.90383 13.1993 3.98333 13.3369C4.11281 13.5612 4.3996 13.6381 4.62396 13.5086C4.84828 13.3791 4.92514 13.0923 4.79561 12.8679C3.61799 10.8703 5.11508 8.27559 7.43567 8.29533C10.1313 8.28914 11.5042 11.6021 9.59117 13.4993C9.16843 13.9562 9.79809 14.5851 10.2545 14.1625C11.8598 12.6192 11.7724 9.87094 10.1469 8.42384C14.4207 5.20247 20.6592 8.32929 20.6354 13.6887C20.6354 17.309 17.6899 20.2545 14.0696 20.2545H2.97023Z" fill="#7B8E98"/>
<path d="M3.16265 15.7468H3.16233C2.90331 15.7468 2.69348 15.9567 2.69348 16.2157C2.71824 16.8378 3.60702 16.8378 3.63164 16.2157C3.63164 15.9567 3.42163 15.7468 3.16265 15.7468Z" fill="#7B8E98"/>
<path d="M15.5792 3.74614C16.2015 3.72137 16.201 2.83269 15.5792 2.80817H15.5789C14.9566 2.83302 14.9574 3.72166 15.5792 3.74614Z" fill="#7B8E98"/>
<path d="M12.7653 2.80817H12.765C12.506 2.80817 12.2961 3.01813 12.2961 3.27715C12.3209 3.89917 13.2097 3.89917 13.2343 3.27715C13.2343 3.01813 13.0243 2.80817 12.7653 2.80817Z" fill="#7B8E98"/>
</svg>
