<svg width="24" height="22" viewBox="0 0 24 22" fill="none" xmlns="http://www.w3.org/2000/svg">
<path d="M21.069 0.0890628C21.9207 0.485385 22.6131 0.953822 23.1113 1.48972C23.6683 2.08882 23.9777 2.76749 24.0001 3.50739C24.0238 4.28624 23.7285 5.10196 23.113 5.94348C22.5227 6.75076 21.6343 7.58761 20.4367 8.45488C20.5304 8.71586 20.6062 8.99083 20.6664 9.28438C20.7748 9.81294 20.8343 10.407 20.8582 11.1369C20.8723 11.5655 20.3121 11.7386 20.0821 11.3768L20.0743 11.3646L20.0628 11.3465L20.0551 11.3347L20.0476 11.3231C20.0464 11.3212 20.0451 11.3193 20.0439 11.3174L20.0328 11.3004L20.0218 11.2838L20.0146 11.273L20.0075 11.2623L19.9969 11.2467L19.99 11.2364L19.9831 11.2263L19.9762 11.2164L19.9695 11.2066C19.9683 11.205 19.9672 11.2034 19.9661 11.2018L19.9561 11.1875L19.9462 11.1737L19.9412 11.1666L19.9409 11.1753C19.9319 11.4373 19.9167 11.7073 19.8949 11.9755L19.8931 11.9972C19.8918 12.0123 19.8906 12.0274 19.8893 12.0425L19.8867 12.0726C19.8853 12.0876 19.884 12.1026 19.8826 12.1175L19.8799 12.1474L19.8771 12.1772C19.8762 12.1871 19.8752 12.197 19.8743 12.2069L19.8714 12.2365C19.8709 12.2414 19.8704 12.2463 19.8699 12.2512L19.8669 12.2807L19.8639 12.31C19.8634 12.3149 19.8629 12.3198 19.8624 12.3247L19.8592 12.3539L19.8561 12.383C19.8539 12.4024 19.8518 12.4218 19.8496 12.441L19.8463 12.4699C19.8457 12.4747 19.8451 12.4794 19.8446 12.4842L19.8412 12.5129C19.84 12.5225 19.8389 12.532 19.8377 12.5415L19.8342 12.57C19.833 12.5795 19.8318 12.5889 19.8306 12.5984L19.827 12.6267L19.8233 12.6548C19.8227 12.6595 19.822 12.6642 19.8214 12.6689L19.8177 12.6969L19.8138 12.7248C19.8132 12.7294 19.8125 12.7341 19.8119 12.7387L19.808 12.7664L19.804 12.7941C19.7814 12.9504 19.7561 13.1013 19.728 13.2461C19.6398 13.6996 19.5258 14.0835 19.3791 14.3885C19.2857 14.5828 19.0739 14.6627 18.8885 14.6125L18.8845 14.6114L18.885 14.6188C18.8908 14.6993 18.895 14.7806 18.8974 14.8626L18.8978 14.8771C18.9085 15.2787 18.8755 15.6711 18.7893 16.0457C18.6591 16.6121 18.4125 17.1143 18.0314 17.5275C17.6408 17.951 17.1225 18.265 16.4738 18.4553C16.4574 18.5264 16.4399 18.597 16.4211 18.6669C16.2483 19.3112 15.9778 19.8883 15.6023 20.3743C15.6 20.3773 15.5976 20.3804 15.5951 20.3833C15.5379 20.7821 15.3849 21.1319 15.1405 21.3843C14.8295 21.7054 14.3998 21.8396 13.919 21.7582L13.9125 21.7571L13.9081 21.7569C13.8235 21.7535 13.7413 21.7406 13.6609 21.7189C13.1607 21.8786 12.6027 21.96 11.9864 21.96C11.3628 21.96 10.7989 21.8768 10.2944 21.7136C10.2239 21.7305 10.1521 21.7406 10.0784 21.7437L10.0737 21.7439L10.0676 21.7449C9.59355 21.8255 9.16921 21.6947 8.86036 21.3807L8.85074 21.3708C8.61744 21.1289 8.46799 20.7975 8.40618 20.4192C8.03976 19.9578 7.77064 19.4107 7.59246 18.7987C7.56239 18.6955 7.53502 18.5907 7.51031 18.4846C6.87537 18.2932 6.3653 17.9815 5.97751 17.563C5.5948 17.15 5.34407 16.6481 5.20751 16.0818C5.11579 15.7014 5.0781 15.3025 5.08469 14.8944C5.08607 14.8092 5.08935 14.7247 5.09437 14.6412L5.09472 14.6355L5.08747 14.6377C4.90244 14.6919 4.68865 14.6153 4.59196 14.4235L4.58783 14.415C4.44189 14.1096 4.32844 13.7251 4.24067 13.2707C4.22335 13.181 4.20712 13.0891 4.19194 12.995L4.18762 12.968L4.18337 12.9409C4.17703 12.9003 4.17089 12.8592 4.16493 12.8177L4.16098 12.79L4.15709 12.7622C4.15645 12.7576 4.15581 12.7529 4.15517 12.7483L4.15137 12.7203C4.15074 12.7157 4.15011 12.711 4.14948 12.7063L4.14576 12.6782L4.14209 12.65L4.13848 12.6216C4.13788 12.6169 4.13729 12.6121 4.1367 12.6074L4.13317 12.5789L4.12969 12.5503L4.12627 12.5216L4.1229 12.4928L4.11959 12.4639C4.11904 12.4591 4.11849 12.4543 4.11795 12.4494L4.11472 12.4204L4.11154 12.3913C4.11049 12.3815 4.10945 12.3718 4.10842 12.362L4.10534 12.3327C4.10484 12.3278 4.10433 12.3229 4.10383 12.318L4.10083 12.2885C4.10034 12.2836 4.09985 12.2787 4.09936 12.2737L4.09645 12.2441L4.09359 12.2144C4.09264 12.2045 4.0917 12.1946 4.09078 12.1846L4.08802 12.1547C4.08757 12.1497 4.08711 12.1447 4.08666 12.1398L4.08399 12.1097C4.0831 12.0997 4.08223 12.0897 4.08136 12.0796L4.07879 12.0494C4.07794 12.0394 4.0771 12.0293 4.07626 12.0192C4.05429 11.7522 4.03893 11.4831 4.02955 11.2216L4.02846 11.1906L4.02344 11.1977L4.01654 11.2075L4.00956 11.2175L4.00253 11.2277L3.99542 11.238L3.98825 11.2485L3.98101 11.2592L3.97 11.2756L3.96258 11.2867L3.95129 11.3038L3.94367 11.3154L3.93597 11.3272L3.92819 11.3392L3.92033 11.3514C3.91901 11.3535 3.91769 11.3555 3.91636 11.3576L3.90435 11.3764L3.89189 11.3961C3.66264 11.7591 3.10115 11.5864 3.11512 11.1572C3.13895 10.4258 3.19822 9.83053 3.30611 9.30091C3.36663 9.00384 3.44301 8.72577 3.53755 8.46196C2.34795 7.59607 1.46594 6.7606 0.880282 5.95472C0.271477 5.11699 -0.0206461 4.30507 0.00276783 3.52999C0.0250122 2.79362 0.331044 2.11799 0.882175 1.52142C1.37528 0.987666 2.06059 0.521099 2.90355 0.126386C3.31693 -0.0671775 3.69961 0.443677 3.39801 0.786465C2.87884 1.37655 2.58008 1.89306 2.49036 2.31487C2.41623 2.6634 2.4862 2.93078 2.69464 3.15262C2.9249 3.39769 3.33048 3.59391 3.8943 3.71809C4.48871 3.84899 5.23592 3.89485 6.0985 3.85061C6.11381 3.84982 6.12897 3.84987 6.14393 3.8507C6.37422 3.77322 6.62851 3.71017 6.91991 3.65761L6.93355 3.65518L6.92041 3.6489L6.90376 3.64098L6.8783 3.62894L6.85225 3.61672L6.8256 3.6043L6.79835 3.59167L6.78217 3.58421C6.42107 3.41795 6.4701 2.88963 6.85562 2.79276C7.64168 2.59526 8.24889 2.54424 8.85879 2.63809C9.21496 2.6929 9.57174 2.79656 9.97473 2.96263L9.99226 2.96988L9.9808 2.95149L9.97038 2.93488L9.95973 2.918L9.95509 2.91068C9.76137 2.60525 10.017 2.21361 10.3743 2.26839C10.9261 2.35297 11.2957 2.46111 11.9683 2.74932C12.6319 2.46667 13.0028 2.35706 13.5344 2.27403L13.5467 2.27211L13.5712 2.26835C13.9291 2.21373 14.1844 2.6066 13.9894 2.91183L13.9823 2.92304L13.972 2.93934L13.9632 2.95319L13.9533 2.96895L13.9733 2.96073C14.371 2.7979 14.7239 2.69524 15.0753 2.63992L15.0932 2.63715C15.7049 2.54362 16.3141 2.59447 17.1029 2.79137C17.4894 2.88785 17.5383 3.4177 17.176 3.58341L17.1487 3.59594L17.122 3.60826L17.1045 3.61637L17.0788 3.62837L17.0536 3.64019L17.0371 3.64797L17.028 3.65232L17.0385 3.6542C17.336 3.70751 17.595 3.77163 17.8292 3.85073C17.8442 3.84988 17.8595 3.84983 17.8748 3.85061C18.7464 3.89503 19.5001 3.84795 20.0986 3.71466C20.6652 3.58844 21.0716 3.38953 21.3012 3.14149C21.5092 2.91671 21.5777 2.64522 21.5001 2.29184C21.4064 1.86528 21.102 1.34433 20.5763 0.750557C20.2735 0.408589 20.655 -0.103571 21.069 0.0890628ZM11.9866 20.933C11.7894 20.933 11.6244 20.9658 11.473 21.0281C11.4715 21.0287 11.47 21.0293 11.4686 21.0299L11.4598 21.0336C11.4569 21.0348 11.454 21.0361 11.4511 21.0373L11.4425 21.0411C11.4266 21.0481 11.4109 21.0555 11.3952 21.0632L11.3866 21.0674L11.378 21.0717C11.3709 21.0753 11.3638 21.079 11.3566 21.0828L11.3573 21.0825C11.5568 21.1056 11.7665 21.1173 11.9864 21.1173C12.2062 21.1173 12.4157 21.1056 12.6152 21.0824L12.615 21.0823C12.6135 21.0815 12.6121 21.0808 12.6107 21.08L12.6022 21.0756L12.5936 21.0712C12.588 21.0684 12.5823 21.0655 12.5766 21.0627L12.568 21.0586C12.5652 21.0572 12.5623 21.0559 12.5595 21.0545L12.5509 21.0505C12.5495 21.0499 12.5481 21.0492 12.5466 21.0485L12.538 21.0446L12.5294 21.0408C12.5208 21.037 12.5121 21.0333 12.5034 21.0297C12.3509 20.9663 12.1849 20.933 11.9866 20.933ZM10.8765 18.0872C10.6249 18.0766 10.3763 18.1335 10.0466 18.2883L10.0439 18.2895L10.041 18.2918C9.76225 18.514 9.54496 18.8055 9.40161 19.1379L9.39711 19.1484C9.25869 19.4737 9.19814 19.8229 9.22023 20.136C9.22083 20.1446 9.2215 20.1532 9.22223 20.1617L9.22298 20.1654C9.22788 20.1902 9.23052 20.2154 9.23091 20.2405C9.26298 20.4785 9.34426 20.669 9.45677 20.7857C9.57395 20.9073 9.72872 20.9533 9.94989 20.9099C9.97663 20.9046 10.0038 20.902 10.0311 20.902L10.0334 20.9019C10.0576 20.9018 10.0816 20.8986 10.107 20.8918L10.1119 20.8904C10.126 20.8864 10.1404 20.8813 10.1556 20.8749L10.161 20.8726C10.1664 20.8703 10.1718 20.8678 10.1774 20.8651L10.1831 20.8624L10.1888 20.8595C10.1907 20.8586 10.1926 20.8576 10.1945 20.8566L10.2004 20.8535C10.2013 20.853 10.2023 20.8525 10.2033 20.852L10.2093 20.8487L10.2153 20.8454L10.2214 20.8419C10.2234 20.8408 10.2255 20.8396 10.2276 20.8384L10.2339 20.8347L10.2402 20.8309C10.2413 20.8302 10.2424 20.8296 10.2435 20.8289L10.25 20.8249L10.2566 20.8208L10.2633 20.8166L10.2701 20.8122L10.277 20.8077C10.2781 20.807 10.2793 20.8062 10.2805 20.8055L10.2875 20.8008C10.2887 20.8 10.2899 20.7992 10.2911 20.7984L10.2983 20.7935C10.2995 20.7927 10.3008 20.7919 10.302 20.791L10.3094 20.786L10.3129 20.7836L10.321 20.7778L10.3341 20.7684L10.3515 20.7558L10.3687 20.7431L10.3996 20.7202L10.4481 20.6841L10.503 20.643L10.5866 20.58L10.5958 20.5732C10.6005 20.5698 10.6051 20.5664 10.6097 20.563L10.6235 20.553L10.6372 20.5431C10.6395 20.5414 10.6418 20.5398 10.6441 20.5382L10.6577 20.5285C10.6599 20.5269 10.6622 20.5253 10.6644 20.5237L10.6779 20.5142C10.6801 20.5126 10.6824 20.5111 10.6846 20.5095L10.698 20.5003C10.7024 20.4972 10.7068 20.4941 10.7113 20.4911L10.7245 20.4821C10.7377 20.4732 10.7508 20.4644 10.7639 20.4559L10.7769 20.4474C10.9007 20.3672 11.0196 20.3035 11.1527 20.2487C11.4055 20.1447 11.6792 20.0903 11.9866 20.0903C12.2961 20.0903 12.5718 20.1457 12.8262 20.2513C13.0025 20.3246 13.1539 20.4134 13.3243 20.5355L13.3379 20.5453C13.3402 20.5469 13.3425 20.5486 13.3448 20.5503L13.3586 20.5603C13.3632 20.5637 13.3678 20.5671 13.3725 20.5705L13.3865 20.5809L13.3935 20.5861L13.4909 20.6602L13.5659 20.7168L13.6026 20.7443L13.6334 20.7671L13.6556 20.7834L13.6649 20.7901L13.6739 20.7965L13.6824 20.8024C13.6837 20.8032 13.6849 20.8041 13.6861 20.8049L13.6934 20.8099L13.7006 20.8147L13.7076 20.8194L13.7146 20.8239C13.7157 20.8247 13.7169 20.8254 13.718 20.8262L13.7248 20.8305C13.7271 20.832 13.7293 20.8334 13.7315 20.8348L13.7381 20.8389C13.7392 20.8396 13.7403 20.8403 13.7414 20.8409L13.7479 20.8449C13.75 20.8461 13.7521 20.8474 13.7542 20.8487L13.7605 20.8524C13.7626 20.8536 13.7647 20.8548 13.7667 20.8559L13.7728 20.8594L13.7789 20.8627C13.7809 20.8638 13.7828 20.8649 13.7848 20.8659L13.7907 20.8691L13.7965 20.872L13.8022 20.8749C13.8041 20.8759 13.806 20.8768 13.8079 20.8777L13.8107 20.879C13.8227 20.8835 13.8346 20.8886 13.8461 20.8942C13.8634 20.9007 13.8799 20.9056 13.8959 20.909L13.9007 20.91L13.9055 20.9109C13.9223 20.9138 13.9386 20.9152 13.9551 20.9152L13.9605 20.9152C13.9858 20.9155 14.011 20.9182 14.0359 20.923C14.2599 20.9669 14.4171 20.9203 14.5358 20.7978C14.6653 20.6641 14.7536 20.434 14.774 20.1468C14.7962 19.8333 14.7353 19.4834 14.596 19.1576C14.4517 18.8201 14.2313 18.5241 13.9475 18.299L13.9443 18.2965L13.9411 18.295C13.6107 18.1405 13.3608 18.0818 13.1097 18.0898L13.1018 18.0901C12.9144 18.0971 12.7214 18.1367 12.4129 18.2327L12.3889 18.2402C12.3687 18.2465 12.3481 18.2531 12.3269 18.2599L12.3013 18.2682L12.2751 18.2768C12.2707 18.2782 12.2663 18.2796 12.2618 18.2811L12.2349 18.29C12.2213 18.2945 12.2075 18.2991 12.1935 18.3038L12.1652 18.3132C12.1604 18.3148 12.1557 18.3165 12.1509 18.3181L12.1217 18.3279C12.0339 18.3577 11.9387 18.3576 11.8509 18.3277C11.846 18.3261 11.8411 18.3244 11.8362 18.3227L11.8072 18.3129L11.7787 18.3033L11.7508 18.294C11.7094 18.2801 11.6699 18.2671 11.6321 18.2549L11.6072 18.2469C11.5907 18.2416 11.5746 18.2365 11.5588 18.2316L11.5353 18.2242C11.5314 18.223 11.5276 18.2218 11.5237 18.2206L11.5009 18.2136C11.2261 18.1298 11.0496 18.0946 10.8765 18.0872ZM10.6961 18.8187C10.8953 18.9341 10.9647 19.1879 10.853 19.3884L10.8496 19.3944L10.4654 20.0585C10.3489 20.2599 10.0913 20.3287 9.89008 20.2121C9.69084 20.0967 9.62151 19.8429 9.73318 19.6424L9.73662 19.6364L10.1208 18.9723C10.2373 18.7709 10.4948 18.7021 10.6961 18.8187ZM13.8755 18.9156L13.8792 18.9215L14.2983 19.5856C14.4224 19.7824 14.3637 20.0426 14.167 20.1668C13.9724 20.2898 13.7156 20.2334 13.59 20.0414L13.5862 20.0355L13.1672 19.3714C13.043 19.1747 13.1018 18.9144 13.2984 18.7902C13.4931 18.6672 13.7499 18.7236 13.8755 18.9156ZM11.9597 13.5626L11.9516 13.582C11.835 13.8613 11.7153 14.1367 11.5944 14.401L11.584 14.4236L11.5727 14.4482L11.5615 14.4727L11.5502 14.4971L11.5389 14.5213L11.5277 14.5454L11.5165 14.5694L11.5053 14.5933L11.4941 14.6171L11.483 14.6407L11.4718 14.6642L11.4551 14.6993L11.444 14.7225L11.4329 14.7456L11.4218 14.7686L11.4108 14.7915L11.3998 14.8142L11.3887 14.8368L11.3777 14.8593L11.3667 14.8816L11.3558 14.9039L11.3448 14.926L11.3339 14.9479L11.323 14.9698L11.3121 14.9915L11.3012 15.0131L11.2904 15.0346L11.2796 15.0559L11.2687 15.0771L11.2579 15.0981L11.2472 15.1191L11.2364 15.1399C11.2346 15.1433 11.2328 15.1468 11.231 15.1502L11.2203 15.1708L11.2096 15.1913C11.2078 15.1947 11.206 15.1981 11.2043 15.2015L11.1936 15.2217L11.1829 15.2418C11.1812 15.2452 11.1794 15.2485 11.1776 15.2519L11.167 15.2718C11.1652 15.2751 11.1635 15.2784 11.1617 15.2817L11.1511 15.3014L11.1405 15.321C11.1237 15.352 11.107 15.3825 11.0904 15.4124L11.078 15.4347C11.0738 15.4422 11.0697 15.4495 11.0656 15.4569L11.0532 15.4788C11.0491 15.486 11.045 15.4933 11.0409 15.5004L11.0286 15.5219C11.0163 15.5433 11.0041 15.5643 10.992 15.585L10.9798 15.6056C10.8303 15.8584 10.6889 16.0615 10.5535 16.2123C10.2812 16.5153 9.78049 16.2936 9.82145 15.8882L9.82488 15.854L9.82821 15.8204C9.82875 15.8149 9.82929 15.8094 9.82983 15.8039L9.833 15.7712L9.83606 15.7391L9.83902 15.7075C9.83951 15.7023 9.83998 15.6972 9.84046 15.692L9.84327 15.6613L9.84597 15.6312L9.84856 15.6015L9.85106 15.5725L9.85345 15.5439C9.85384 15.5392 9.85422 15.5345 9.85461 15.5298L9.85684 15.502L9.85898 15.4747C9.86072 15.4522 9.86235 15.4301 9.86387 15.4085L9.86565 15.3829C9.86623 15.3744 9.86679 15.366 9.86733 15.3577L9.86891 15.3329C9.86917 15.3288 9.86942 15.3248 9.86967 15.3207L9.87109 15.2966C9.88465 15.0615 9.88372 14.887 9.86944 14.7318L9.86877 14.7246L9.86773 14.7273C9.83226 14.8186 9.7983 14.9136 9.76651 15.0111L9.76151 15.0265C9.57057 15.6182 9.47621 16.2394 9.50828 16.7916C9.52975 17.1612 9.09869 17.3768 8.81615 17.1379C8.57479 16.9337 8.36421 16.6662 8.19586 16.361L8.19432 16.3582L8.1934 16.3708C8.17953 16.5628 8.17334 16.7604 8.17574 16.9593L8.17593 16.9738C8.18376 17.5286 8.25735 18.0698 8.40094 18.563C8.44493 18.7141 8.49517 18.8597 8.55172 18.9994C8.57333 18.9385 8.59688 18.878 8.62232 18.8182C8.82737 18.3363 9.14812 17.9123 9.5665 17.5936C9.58886 17.5766 9.61286 17.5618 9.63816 17.5496C10.1069 17.3226 10.501 17.2279 10.9121 17.2453C11.1006 17.2533 11.2915 17.2846 11.5058 17.3393L11.5205 17.3431L11.5353 17.347L11.5501 17.3509L11.565 17.3549L11.58 17.359L11.59 17.3617L11.6102 17.3673L11.6255 17.3716L11.6358 17.3745L11.6512 17.3789L11.6721 17.385L11.6879 17.3896L11.7093 17.396L11.731 17.4025L11.742 17.4059L11.7587 17.411L11.7869 17.4197L11.7984 17.4233L11.8217 17.4306L11.8455 17.4382L11.8698 17.446L11.8884 17.452L11.92 17.4623L11.9591 17.4752L11.987 17.4844L11.9944 17.4819L12.0294 17.4704L12.0634 17.4594L12.0899 17.4508L12.1095 17.4446L12.135 17.4365L12.1538 17.4306L12.1724 17.4248L12.1907 17.4191L12.2087 17.4136L12.2265 17.4082L12.244 17.4029L12.2556 17.3994L12.2728 17.3943L12.2899 17.3894L12.3011 17.3861L12.3123 17.3829L12.3289 17.3781L12.3453 17.3735L12.3562 17.3705L12.3725 17.366L12.3886 17.3616L12.3993 17.3587L12.4099 17.3559L12.4258 17.3517L12.4469 17.3462L12.4574 17.3435L12.4731 17.3396C12.6883 17.2855 12.8806 17.255 13.0705 17.2479C13.4822 17.2326 13.8772 17.3285 14.3487 17.5558C14.3739 17.5679 14.3979 17.5826 14.4203 17.5996C14.8411 17.9187 15.1639 18.3434 15.3702 18.8262C15.392 18.8771 15.4124 18.9286 15.4314 18.9804C15.4993 18.8112 15.5581 18.6336 15.6078 18.4484C15.7385 17.9613 15.8032 17.4313 15.8062 16.8919C15.8072 16.7121 15.8013 16.5337 15.7891 16.36L15.7885 16.3515L15.7872 16.3537C15.623 16.653 15.4187 16.9162 15.1849 17.1196L15.1659 17.136C14.8836 17.376 14.4515 17.1606 14.4729 16.7905C14.5051 16.2331 14.4104 15.6062 14.2188 15.0093C14.1854 14.9054 14.1496 14.8043 14.1121 14.7073L14.1096 14.7008L14.1094 14.7033C14.0942 14.8619 14.0929 15.0397 14.1066 15.2804L14.108 15.3047C14.1083 15.3088 14.1085 15.3129 14.1088 15.317L14.1104 15.3419C14.1117 15.3629 14.1132 15.3843 14.1147 15.4062L14.1167 15.4327L14.1187 15.4598C14.1204 15.4825 14.1223 15.5057 14.1242 15.5294L14.1266 15.5582L14.1291 15.5874L14.1317 15.6172L14.1344 15.6476C14.1348 15.6527 14.1353 15.6578 14.1358 15.663L14.1386 15.6941L14.1416 15.7259L14.1446 15.7582L14.1478 15.7911C14.1483 15.7966 14.1489 15.8022 14.1494 15.8078L14.1528 15.8416L14.1566 15.88C14.1974 16.2859 13.6956 16.5071 13.4238 16.2031C13.026 15.758 12.7323 15.3211 12.4561 14.755L12.4513 14.7452L12.4418 14.7255L12.4323 14.7057C12.4291 14.6991 12.4259 14.6924 12.4227 14.6857L12.4132 14.6657L12.4037 14.6455L12.3941 14.6252L12.3846 14.6047C12.383 14.6013 12.3814 14.5979 12.3798 14.5944L12.3703 14.5738L12.3608 14.553L12.3512 14.5321C12.3481 14.5251 12.3449 14.518 12.3417 14.511L12.3321 14.4898L12.3226 14.4684L12.313 14.4469L12.3035 14.4252L12.2939 14.4033C12.2923 14.3997 12.2907 14.396 12.2891 14.3924L12.2795 14.3703L12.2699 14.3481L12.2603 14.3257C12.2587 14.3219 12.257 14.3182 12.2554 14.3144L12.2458 14.2918L12.2361 14.2689L12.2265 14.246L12.2168 14.2228C12.2152 14.2189 12.2135 14.215 12.2119 14.2111L12.2022 14.1877L12.1925 14.1641C12.1908 14.1601 12.1892 14.1562 12.1876 14.1522L12.1778 14.1283C12.1762 14.1243 12.1746 14.1203 12.1729 14.1163L12.1631 14.0921C12.1615 14.0881 12.1599 14.084 12.1582 14.08L12.1484 14.0555L12.1385 14.0309C12.1369 14.0267 12.1352 14.0226 12.1336 14.0185L12.1237 13.9935L12.1137 13.9684L12.1038 13.943L12.0938 13.9175C12.0921 13.9132 12.0904 13.9089 12.0888 13.9046L12.0787 13.8787L12.0687 13.8526L12.0586 13.8263L12.0484 13.7998C12.0467 13.7954 12.045 13.7909 12.0433 13.7865L12.0331 13.7596L12.0229 13.7326L12.0126 13.7053L12.0023 13.6778L11.992 13.65L11.9816 13.622L11.9712 13.5938C11.9694 13.5891 11.9677 13.5844 11.966 13.5796L11.9597 13.5626ZM12.8776 3.29731L12.8625 3.30252L12.8448 3.3087L12.8329 3.3129L12.8149 3.31929L12.7967 3.3258L12.7845 3.33021L12.7661 3.33693L12.7475 3.34378L12.735 3.34842L12.7161 3.35549L12.6971 3.3627L12.6778 3.37004L12.6648 3.37501L12.6452 3.38258L12.6254 3.39029L12.6121 3.39551L12.5987 3.4008L12.5783 3.40885L12.5509 3.41982L12.53 3.42822L12.5018 3.43966L12.4803 3.44843L12.4513 3.46036L12.4292 3.46949L12.3994 3.48193L12.3766 3.49144L12.3536 3.50113L12.3225 3.51431L12.2988 3.52439L12.2748 3.53465L12.234 3.55215L12.2008 3.5665L12.1755 3.57748L12.1546 3.58654C12.099 3.61079 12.0409 3.62204 11.9839 3.62164C11.9172 3.62679 11.8484 3.61608 11.7829 3.58737L11.7398 3.56854L11.7061 3.55385L11.6729 3.5395L11.6484 3.52896L11.6243 3.51859L11.6004 3.50841L11.5691 3.4951L11.546 3.48533L11.5156 3.47257L11.4857 3.46011L11.4636 3.45097L11.449 3.44496L11.4202 3.43316L11.3919 3.42165L11.3779 3.416L11.3571 3.40766L11.3365 3.39947L11.3162 3.39143L11.3028 3.38615L11.2762 3.3758L11.2565 3.3682L11.2435 3.36322L11.2241 3.35586L11.205 3.34864L11.186 3.34156L11.1672 3.33461L11.1486 3.3278L11.1363 3.32333L11.124 3.31892L11.1118 3.31456L11.0997 3.31026L11.0877 3.30602L11.0757 3.30183L11.0657 3.29838L11.0663 3.30073C11.104 3.47092 11.1055 3.6339 11.0764 3.81598L11.0753 3.82282C11.029 4.10675 10.7182 4.26172 10.4637 4.12776C9.73103 3.74199 9.21655 3.54575 8.7308 3.471C8.5458 3.44254 8.35918 3.43093 8.16128 3.43693L8.14908 3.43732L8.15813 3.44593C8.22672 3.51153 8.29164 3.58218 8.35685 3.66073L8.36575 3.6715C8.58093 3.93299 8.41543 4.32881 8.07827 4.35902C7.13127 4.44388 6.54745 4.56434 6.10349 4.7727C6.01491 4.81427 5.93056 4.86009 5.84947 4.91109L5.84697 4.91267L5.85714 4.91277C5.9385 4.91365 6.02151 4.9177 6.10772 4.92495L6.1256 4.92649C6.18536 4.9318 6.24669 4.93863 6.3101 4.94701L6.32918 4.94957C6.34514 4.95174 6.36123 4.95401 6.37745 4.95638L6.397 4.95926L6.41668 4.96224C6.43643 4.96527 6.45639 4.96843 6.47658 4.97174L6.49684 4.97509L6.51725 4.97854L6.53783 4.98208C6.54471 4.98328 6.55162 4.98449 6.55856 4.98571L6.57945 4.98944C6.58294 4.99007 6.58645 4.99071 6.58996 4.99134L6.6111 4.99521C6.61817 4.99652 6.62528 4.99784 6.63241 4.99918L6.65389 5.00323C6.66108 5.0046 6.6683 5.00599 6.67555 5.00739L6.69739 5.01164L6.71941 5.01598C6.72309 5.01671 6.72679 5.01745 6.73049 5.01818L6.75278 5.02267C6.76025 5.02418 6.76774 5.02571 6.77527 5.02725L6.79795 5.03192L6.82082 5.03669L6.83559 5.0398C7.19834 5.11641 7.29224 5.59086 6.98606 5.80005C5.74844 6.64564 5.0265 7.35689 4.59525 8.15206C4.30662 8.68426 4.1313 9.27945 4.03663 10.0632L4.03563 10.0717L4.04012 10.0694C4.12104 10.0294 4.20795 9.99411 4.30302 9.96207L4.31074 9.95948C4.59187 9.86571 4.87928 10.0842 4.86442 10.3803L4.86384 10.393L4.86339 10.4048L4.86296 10.4175L4.8625 10.4341L4.86207 10.452L4.86164 10.4745L4.86127 10.4987L4.86094 10.5283L4.86077 10.5478L4.86059 10.5804L4.8605 10.6192L4.86051 10.6462L4.86057 10.6694L4.86071 10.7012L4.86087 10.7257L4.86115 10.7589L4.86162 10.8016L4.86184 10.8189L4.86235 10.854L4.86279 10.8807L4.86329 10.9076L4.86364 10.9257C4.87034 11.2555 4.88715 11.6053 4.91553 11.95C4.96417 12.5407 5.04218 13.0632 5.14928 13.4789L5.1514 13.487L5.15217 13.4865C5.19205 13.4591 5.23216 13.4334 5.27235 13.4093L5.27945 13.4051C5.33401 13.3727 5.38557 13.3453 5.43317 13.3225L5.44176 13.3184L5.44787 13.3156L5.45382 13.3128L5.46242 13.3089L5.47064 13.3052L5.47847 13.3017L5.4859 13.2985L5.49294 13.2955L5.49957 13.2927L5.50578 13.2902L5.51158 13.2879L5.51522 13.2865C5.83588 13.1633 6.15946 13.4551 6.07388 13.785L6.06985 13.7999L6.06722 13.8098L6.06434 13.8209L6.06187 13.8308L6.05929 13.8412L6.05661 13.8522L6.05289 13.8677L6.05098 13.8759C6.05 13.88 6.04903 13.8843 6.04805 13.8885L6.04513 13.9014L6.0422 13.9144L6.03927 13.9277L6.03635 13.9412L6.03343 13.9549C6.03294 13.9572 6.03245 13.9595 6.03197 13.9618L6.02905 13.9759C6.02857 13.9782 6.02808 13.9806 6.0276 13.983L6.0247 13.9973L6.0218 14.0118C6.02084 14.0167 6.01988 14.0216 6.01892 14.0266L6.01605 14.0415C6.01557 14.044 6.01509 14.0465 6.01462 14.0491L6.01176 14.0643L6.00893 14.0797C6.00845 14.0823 6.00798 14.0849 6.00751 14.0875L6.0047 14.1032L6.00191 14.1192C6.00144 14.1218 6.00098 14.1245 6.00052 14.1272C5.95817 14.3731 5.93107 14.637 5.92669 14.908C5.92118 15.2489 5.95226 15.5778 6.02612 15.8841C6.13056 16.3173 6.31654 16.6896 6.59497 16.99C6.79851 17.2096 7.05178 17.3915 7.36103 17.5317C7.34547 17.3512 7.33649 17.169 7.3339 16.9857C7.3262 16.4405 7.37607 15.9018 7.47049 15.4359C7.56236 14.9826 7.69006 14.6231 7.84581 14.4198C8.0906 14.1001 8.60107 14.2733 8.60107 14.6761C8.60107 14.9735 8.65739 15.2763 8.75528 15.5549L8.75785 15.5622L8.75823 15.5601C8.8068 15.301 8.87253 15.042 8.95355 14.7881L8.96015 14.7676C9.15877 14.1521 9.43625 13.6079 9.71454 13.291C9.93369 13.0415 10.3403 13.1325 10.4342 13.4484L10.4374 13.4597L10.5041 13.7018L10.5454 13.8521L10.5641 13.9209L10.5738 13.9568L10.5783 13.974L10.5842 13.9966L10.59 14.0188L10.5956 14.0405L10.601 14.0618L10.6062 14.0828L10.6096 14.0966L10.613 14.1102L10.6179 14.1304L10.6226 14.1502L10.6257 14.1633L10.6287 14.1762L10.6317 14.1891L10.6346 14.2018L10.6374 14.2144L10.6402 14.2269L10.6429 14.2394L10.6455 14.2517L10.6481 14.2639L10.652 14.2822L10.6544 14.2942L10.6568 14.3062L10.6592 14.3182L10.6615 14.3301L10.6638 14.3419L10.666 14.3537L10.6682 14.3655L10.6703 14.3773L10.6717 14.3852L10.6751 14.3781C10.7019 14.3224 10.7289 14.2654 10.7561 14.2072L10.7724 14.1722C10.7834 14.1488 10.7943 14.1251 10.8053 14.1013L10.8187 14.0721C10.9565 13.7717 11.0934 13.4547 11.2259 13.1333L11.2448 13.0874C11.2794 13.0031 11.3137 12.9186 11.3477 12.834L11.3661 12.7878L11.378 12.7579L11.3976 12.7087L11.4205 12.6508L11.4428 12.5941L11.4644 12.5387L11.4785 12.5025L11.4991 12.4494L11.5157 12.4062L11.5339 12.3587L11.555 12.3034L11.5736 12.2542L11.5918 12.2054C11.73 11.8316 12.2616 11.841 12.3865 12.2195C12.7324 13.2674 12.9964 13.9646 13.2708 14.5013L13.2821 14.5233L13.2834 14.5133C13.2882 14.4772 13.2935 14.4412 13.2994 14.4053L13.3014 14.3933L13.3034 14.3815C13.3037 14.3795 13.3041 14.3775 13.3044 14.3756L13.3065 14.3637L13.3086 14.3519L13.3107 14.3401L13.3129 14.3282L13.3163 14.3103L13.3186 14.2983L13.321 14.2862L13.3247 14.2681L13.3272 14.2559L13.3297 14.2436L13.3323 14.2313L13.3363 14.2126C13.3368 14.2105 13.3373 14.2084 13.3377 14.2063L13.3405 14.1937L13.3433 14.181L13.3477 14.1617L13.3507 14.1487L13.3553 14.129L13.3585 14.1157L13.3617 14.1022L13.365 14.0886L13.3683 14.0749L13.3717 14.061L13.377 14.0399L13.3806 14.0256L13.3861 14.0038L13.3919 13.9816L13.3977 13.959L13.4023 13.9414L13.4101 13.9125L13.426 13.8532L13.4663 13.7052L13.502 13.575L13.5415 13.4312C13.6297 13.1067 14.0435 13.0113 14.2647 13.2645C14.5435 13.5835 14.8215 14.1316 15.0205 14.7515C15.1047 15.0138 15.1728 15.2817 15.2228 15.5498L15.224 15.5561L15.2278 15.5453C15.3238 15.2705 15.38 14.9726 15.3826 14.6791L15.3827 14.6576C15.3827 14.2543 15.8943 14.0815 16.1386 14.4022C16.2911 14.6023 16.4161 14.9513 16.507 15.392C16.6 15.8426 16.6513 16.3651 16.6483 16.8966C16.6472 17.1016 16.6381 17.3059 16.6207 17.508C16.9432 17.3667 17.2049 17.1812 17.4126 16.9559C17.688 16.6574 17.8696 16.2874 17.9687 15.8567C18.0378 15.5563 18.0649 15.2339 18.056 14.8995C18.0489 14.6319 18.0192 14.3706 17.9744 14.1257L17.9714 14.1093C17.9708 14.1066 17.9703 14.1039 17.9698 14.1012L17.9668 14.0851L17.9637 14.0692C17.9632 14.0666 17.9627 14.0639 17.9622 14.0613L17.959 14.0457C17.958 14.0405 17.957 14.0354 17.9559 14.0302L17.9528 14.015C17.9523 14.0125 17.9518 14.01 17.9512 14.0075L17.9481 13.9925C17.947 13.9876 17.946 13.9827 17.9449 13.9778L17.9418 13.9632C17.9412 13.9608 17.9407 13.9584 17.9402 13.956L17.937 13.9418C17.9365 13.9394 17.9359 13.9371 17.9354 13.9347L17.9322 13.9208L17.929 13.9071C17.9285 13.9048 17.928 13.9026 17.9274 13.9003L17.9242 13.8869L17.9211 13.8737C17.9205 13.8715 17.92 13.8694 17.9195 13.8672L17.9157 13.8521L17.9126 13.8397L17.9095 13.8278L17.9066 13.8166L17.9038 13.806L17.9002 13.7928L17.8976 13.7834L17.8923 13.7648C17.8021 13.4373 18.1187 13.1426 18.4386 13.2563L18.4484 13.2599L18.454 13.2621L18.4599 13.2645L18.4641 13.2662L18.4707 13.2689L18.4778 13.2719L18.4852 13.2751L18.4931 13.2785L18.5013 13.2822L18.5099 13.2861L18.5189 13.2903L18.5251 13.2932C18.5743 13.3164 18.6279 13.3445 18.6847 13.378C18.7274 13.4032 18.7701 13.4302 18.8124 13.4592L18.8167 13.4621L18.8193 13.4521C18.9187 13.0685 18.9932 12.5936 19.0425 12.058L19.0456 12.0237C19.0476 12.0008 19.0496 11.9778 19.0516 11.9547L19.0539 11.9275C19.0824 11.5838 19.0992 11.2349 19.106 10.906L19.1065 10.879L19.1071 10.8433L19.1075 10.8169L19.1079 10.7908L19.1081 10.7736L19.1085 10.7396L19.1087 10.7147L19.1088 10.6902L19.109 10.6661L19.1091 10.6426L19.1091 10.6121L19.1091 10.5743L19.1089 10.5411L19.1086 10.5059L19.1084 10.4874L19.108 10.4594L19.1075 10.4336L19.1069 10.4101L19.1065 10.394L19.1059 10.3794L19.1057 10.3727L19.1053 10.3642C19.1052 10.3636 19.1052 10.3629 19.1052 10.3622C19.0902 10.0663 19.377 9.84777 19.6581 9.94093C19.7559 9.97337 19.8452 10.0091 19.9282 10.0499L19.9374 10.0544L19.9364 10.0461C19.8428 9.27575 19.6705 8.68814 19.3881 8.16328L19.3758 8.14049C18.9429 7.34739 18.2179 6.63779 16.975 5.79416C16.6675 5.5854 16.7613 5.10938 17.125 5.03307L17.1484 5.02819L17.1715 5.02342C17.1754 5.02263 17.1792 5.02184 17.183 5.02106L17.2059 5.01643L17.2286 5.01189C17.2324 5.01115 17.2361 5.0104 17.2399 5.00966L17.2622 5.00527C17.2697 5.00382 17.2771 5.00239 17.2844 5.00098L17.3065 4.99678L17.3283 4.99268C17.3319 4.992 17.3355 4.99133 17.3392 4.99067L17.3607 4.98671C17.3643 4.98606 17.3679 4.98541 17.3714 4.98477L17.3928 4.98096C17.3998 4.9797 17.4069 4.97847 17.4139 4.97724L17.4349 4.97363L17.4557 4.9701C17.4626 4.96895 17.4695 4.9678 17.4764 4.96668L17.4969 4.96335C17.5003 4.9628 17.5037 4.96226 17.5071 4.96172L17.5273 4.95853C17.5442 4.95591 17.5608 4.9534 17.5774 4.95098L17.5972 4.94812C17.781 4.92194 17.947 4.90818 18.1066 4.90646L18.1148 4.90638L18.1039 4.89963C18.0303 4.85428 17.954 4.81307 17.8743 4.77534L17.8609 4.76908C17.4147 4.561 16.828 4.44074 15.8766 4.35605C15.5387 4.32596 15.3733 3.92879 15.5898 3.66744C15.6583 3.58476 15.7263 3.51086 15.7982 3.44246L15.8045 3.43651L15.7929 3.43614C15.5992 3.43031 15.4162 3.44115 15.235 3.46798L15.2203 3.47019C14.732 3.54483 14.2151 3.74074 13.4791 4.12573C13.2249 4.2587 12.9151 4.10395 12.8686 3.82073C12.8385 3.63805 12.8386 3.47535 12.8758 3.30545L12.8776 3.29731ZM14.9781 10.4648C15.1315 10.4995 15.2871 10.5707 15.4447 10.6719L15.4564 10.6794C15.4778 10.6933 15.4993 10.7078 15.5208 10.7229C15.6779 10.8326 15.8367 10.9713 15.9872 11.1277C16.2863 11.4383 16.534 11.7979 16.6427 12.0968C16.7223 12.3154 16.6097 12.5572 16.3912 12.6369C16.1727 12.7165 15.9311 12.6038 15.8515 12.3852C15.7882 12.2113 15.6048 11.945 15.3808 11.7123C15.1569 11.4797 14.9292 11.3199 14.7963 11.2877L14.7923 11.2867C14.5655 11.2354 14.4232 11.0097 14.4745 10.7828C14.5259 10.5558 14.7513 10.4134 14.9781 10.4648ZM8.53492 7.06831C8.72215 7.20631 8.76214 7.47008 8.62424 7.65745C8.23326 8.18865 8.00717 8.62926 7.85719 9.17232C7.75603 9.53863 7.68647 9.96528 7.64174 10.51L7.64046 10.5257L7.64106 10.5252C7.97992 10.2544 8.28427 10.0868 8.67397 9.93632L8.69386 9.92869C8.91112 9.84574 9.15445 9.95475 9.23733 10.1722C9.32022 10.3896 9.21129 10.6331 8.99402 10.716C8.45619 10.9214 8.13715 11.1517 7.46852 11.8348C7.20065 12.1084 6.73641 11.9114 6.74683 11.5284C6.80702 9.3164 7.07706 8.33857 7.94619 7.15769C8.0841 6.97032 8.34768 6.9303 8.53492 7.06831ZM13.976 4.93831C15.0144 5.52961 15.6183 5.9191 16.0682 6.30661C16.5831 6.75021 16.8945 7.20035 17.0684 7.76265C17.1732 8.10144 16.8384 8.41031 16.5094 8.27829C16.132 8.12681 15.8269 8.04098 15.4958 7.99292C15.3553 7.97252 15.2071 7.95828 15.0379 7.94937L15.0147 7.94819L14.9912 7.94707C14.9598 7.94563 14.9275 7.94436 14.8945 7.94326L14.8696 7.94246C14.857 7.94208 14.8444 7.94172 14.8316 7.94139L14.8059 7.94075C14.7973 7.94055 14.7886 7.94036 14.7798 7.94017L14.7535 7.93966C14.7402 7.93941 14.7268 7.9392 14.7132 7.939L14.6859 7.93863C14.6722 7.93847 14.6584 7.93832 14.6443 7.9382L14.6161 7.93798C14.6114 7.93795 14.6067 7.93792 14.6019 7.9379L14.5731 7.93777L14.544 7.9377C14.5244 7.93767 14.5045 7.93768 14.4844 7.93773L14.454 7.93783C14.4387 7.93789 14.4232 7.93797 14.4076 7.93808L14.3761 7.93832L14.3442 7.93861L14.3118 7.93896L14.279 7.93936C14.2734 7.93943 14.2679 7.93951 14.2624 7.93958C14.0298 7.94276 13.8388 7.7567 13.8356 7.52402C13.8324 7.29133 14.0184 7.10013 14.2509 7.09695L14.2687 7.09672L14.3039 7.09629C14.3098 7.09622 14.3156 7.09616 14.3214 7.0961L14.356 7.09576C14.3617 7.0957 14.3674 7.09565 14.3731 7.09561L14.407 7.09536C14.4463 7.0951 14.4847 7.09497 14.5223 7.09497L14.5543 7.095C14.5596 7.09501 14.5649 7.09503 14.5702 7.09504L14.6016 7.09517C14.6536 7.09544 14.704 7.09597 14.753 7.0968L14.7822 7.09733C14.8403 7.09845 14.8964 7.09999 14.9507 7.10197L14.9777 7.10299C15.2151 7.11237 15.4197 7.13035 15.6167 7.15894C15.6648 7.16592 15.7124 7.17355 15.7597 7.18189L15.7707 7.18384L15.7674 7.18031C15.6965 7.10584 15.618 7.03134 15.5307 6.95562L15.5188 6.94529C15.1216 6.60317 14.5533 6.23662 13.5595 5.67074C13.3574 5.55565 13.2868 5.2984 13.4018 5.09614C13.5168 4.89388 13.7739 4.82322 13.976 4.93831ZM1.74623 1.85175L1.74065 1.85677C1.65949 1.93004 1.58353 2.00452 1.51293 2.08013L1.50052 2.09349C1.08055 2.54808 0.860227 3.03449 0.84449 3.55545C0.827181 4.12843 1.05551 4.76305 1.56133 5.45907C2.06823 6.15657 2.84233 6.89868 3.89451 7.67882C4.27169 7.00933 4.81339 6.4048 5.60246 5.77249L5.61127 5.76546L5.60446 5.76613C5.44496 5.78224 5.28119 5.81725 5.0943 5.87621L5.07725 5.88163C5.03731 5.89445 4.9963 5.90835 4.95405 5.92338L4.93586 5.92989C4.92977 5.93209 4.92366 5.9343 4.91752 5.93655L4.89902 5.94334L4.88036 5.95027C4.87098 5.95377 4.86155 5.95733 4.85205 5.96094L4.83297 5.96823C4.82658 5.97068 4.82017 5.97316 4.81372 5.97566L4.79429 5.98324C4.79104 5.98452 4.78778 5.9858 4.78451 5.98709L4.77346 5.99145C4.39085 6.14301 4.04052 5.71184 4.26685 5.36793C4.43935 5.10581 4.61461 4.88147 4.80052 4.68877C3.5481 4.60745 2.6073 4.28988 2.08114 3.72988C1.67997 3.30292 1.53614 2.7533 1.66671 2.13943C1.68655 2.04613 1.71266 1.95145 1.74499 1.85539L1.74623 1.85175ZM22.2376 1.81302L22.2419 1.82528C22.273 1.91584 22.2985 2.00518 22.3186 2.09331L22.3225 2.11092C22.4582 2.72849 22.3184 3.2825 21.919 3.71409C21.3916 4.28397 20.441 4.60694 19.1717 4.68882L19.1717 4.68877C19.356 4.87956 19.53 5.1013 19.7013 5.35992C19.9287 5.70328 19.5794 6.13559 19.1963 5.98484C18.8624 5.85345 18.6066 5.78448 18.3607 5.75982L18.3548 5.75923L18.3602 5.76353C19.1554 6.39656 19.7004 7.00172 20.0793 7.67259C21.1406 6.89006 21.9217 6.1456 22.4335 5.44579C22.945 4.7463 23.1759 4.10862 23.1584 3.53302C23.1425 3.00963 22.9197 2.52076 22.4948 2.06372C22.4198 1.98307 22.3387 1.90369 22.2518 1.82568L22.2376 1.81302Z" fill="#7B8E98"/>
</svg>
