<svg width="24" height="24" viewBox="0 0 24 24" fill="none" xmlns="http://www.w3.org/2000/svg">
<path d="M10.3249 14.0931C10.3249 13.7048 10.0036 13.39 9.61523 13.39C9.2269 13.39 8.90552 13.7048 8.90552 14.0931C8.90552 14.4814 9.2269 14.7962 9.61523 14.7962C10.0036 14.7962 10.3249 14.4814 10.3249 14.0931Z" fill="#7B8E98"/>
<path d="M15.196 14.0931C15.196 13.7048 14.8746 13.39 14.4863 13.39C14.0979 13.39 13.7765 13.7048 13.7765 14.0931C13.7765 14.4814 14.0979 14.7962 14.4863 14.7962C14.8746 14.7962 15.196 14.4814 15.196 14.0931Z" fill="#7B8E98"/>
<path d="M15.2912 6.98506L15.2152 6.9853L15.1951 7.05857L14.9247 8.04266L14.89 8.16916H15.0211H23.0874V8.77228C23.0874 10.8845 21.3687 12.6031 19.2565 12.6031H18.4513H18.3267L18.3536 12.7247C18.6298 13.9732 18.4996 15.294 17.9692 16.4598C17.3395 17.8436 16.9155 19.032 16.5956 20.3115L16.5942 20.3172C16.0642 22.4271 14.1758 23.9 11.9999 23.9C9.82213 23.9 7.93242 22.4246 7.40421 20.3119C7.08619 19.0396 6.66618 17.8599 6.04357 16.4882L5.95251 16.5295L6.04357 16.4882C5.50932 15.3113 5.37932 13.9813 5.65844 12.7248L5.68547 12.6031H5.56082H4.74327C2.631 12.6031 0.912384 10.8846 0.912384 8.77228V8.16916H8.97866H9.10984L9.07509 8.04266L8.80472 7.05852L8.78459 6.98526L8.70861 6.98502L6.34013 6.97743C4.57116 6.93467 2.94305 6.11681 1.87207 4.73394C0.972595 3.57254 0.568463 2.13486 0.721169 0.703524C0.755106 0.385421 1.07301 0.180476 1.40114 0.25691C1.72234 0.33173 1.92858 0.658391 1.90564 1.00723C1.83561 2.07201 2.15642 3.1311 2.82578 3.99531C3.45713 4.81056 4.33465 5.37747 5.32105 5.62799L5.49621 5.67247L5.44086 5.50043L4.59527 2.87222C4.49326 2.55515 4.6676 2.21541 4.98467 2.1134C5.30174 2.01138 5.64148 2.18572 5.7435 2.5028L6.7733 5.70363L6.79554 5.77277L6.86818 5.773L8.32116 5.77759L8.45277 5.77801L8.4179 5.6511L8.08897 4.45381C8.00073 4.13262 8.18957 3.80071 8.51076 3.71246C8.83196 3.62421 9.16388 3.81306 9.25212 4.13425L10.3405 8.09565L10.3607 8.16916H10.4369H13.5627H13.6389L13.6591 8.09565L14.7475 4.13425C14.8357 3.81306 15.1677 3.62421 15.4889 3.71246C15.81 3.80071 15.9989 4.13262 15.9106 4.45381L15.5817 5.6511L15.5468 5.77801L15.6785 5.77759L17.1314 5.773L17.2041 5.77277L17.2263 5.70363L18.2561 2.50282C18.3582 2.18573 18.6979 2.01138 19.015 2.11339C19.3321 2.21541 19.5065 2.55518 19.4045 2.87228L18.5589 5.50043L18.5035 5.67247L18.6787 5.62799C19.6652 5.37747 20.5427 4.81055 21.174 3.99531C21.8433 3.13111 22.1641 2.07203 22.0941 1.00726C22.0712 0.658405 22.2774 0.33173 22.5986 0.256909C22.9268 0.180475 23.2447 0.385426 23.2786 0.703538C23.4313 2.13483 23.0272 3.57251 22.1277 4.73394C21.0565 6.11704 19.428 6.93499 17.6586 6.9775L17.646 6.97766L17.645 6.97766L15.2912 6.98506ZM2.31829 9.37545H2.18511L2.22226 9.50334C2.53955 10.5958 3.54934 11.3969 4.74327 11.3969H6.06332H6.12482L6.15256 11.342C6.49956 10.6558 6.9766 10.049 7.56145 9.55163L7.7686 9.37545H7.49666H2.31829ZM15.4253 20.0193L15.4255 20.0186L15.4267 20.0137C15.4267 20.0136 15.4267 20.0134 15.4268 20.0133C15.7647 18.6634 16.2099 17.4138 16.8709 15.9609C17.81 13.9723 17.1082 11.3693 15.2793 10.1725C14.5151 9.65103 13.6219 9.37541 12.6967 9.37541H11.3158C10.3949 9.37541 9.50512 9.6487 8.74308 10.1657C6.865 11.3924 6.21523 14.0199 7.14227 15.9902C7.797 17.4326 8.2384 18.6748 8.57452 20.0193C8.90824 21.3541 9.97145 22.3475 11.2764 22.6191L11.3968 22.6442V22.5212V21.1945V21.1469L11.3597 21.1168L10.5487 20.4594C10.29 20.2497 10.2502 19.8699 10.46 19.6111C10.6697 19.3524 11.0496 19.3126 11.3083 19.5224L11.9369 20.032L11.9999 20.083L12.0629 20.0319L12.6914 19.5224C12.9502 19.3127 13.33 19.3524 13.5398 19.6111C13.7495 19.8699 13.7098 20.2497 13.451 20.4594L12.6401 21.1168L12.603 21.1469V21.1945V22.5213V22.6442L12.7234 22.6192C14.0283 22.3475 15.0916 21.3542 15.4253 20.0193ZM17.8599 11.342L17.8877 11.3969L17.9492 11.3969L19.2565 11.3969C20.4505 11.3969 21.4603 10.5958 21.7776 9.5033L21.8147 9.37541H21.6816H16.5154H16.2434L16.4506 9.55159C17.0359 10.0492 17.513 10.6558 17.8599 11.342Z" fill="#7B8E98" stroke="white" stroke-width="0.2"/>
</svg>
