<svg width="24" height="24" viewBox="0 0 24 24" fill="none" xmlns="http://www.w3.org/2000/svg">
<path d="M15.8658 10.5778C15.8473 10.5723 15.8293 10.5671 15.8118 10.5622C15.7883 10.5554 15.7591 10.5471 15.7381 10.5401C15.7311 10.519 15.7227 10.4898 15.716 10.4663C15.711 10.4488 15.7058 10.4308 15.7003 10.4123C15.6041 10.0878 15.4261 9.78917 15.1856 9.54865C14.388 8.75104 13.0902 8.75104 12.2926 9.54865C11.6311 10.2102 11.5138 11.2158 11.9556 11.9986L9.72786 14.2264C8.94497 13.7845 7.93947 13.9018 7.27792 14.5634C6.48434 15.3248 6.48434 16.695 7.27792 17.4564C7.51844 17.6969 7.8171 17.8749 8.14145 17.971C8.16002 17.9765 8.17807 17.9818 8.19565 17.9868C8.21909 17.9935 8.2483 18.0019 8.26935 18.0088C8.27629 18.0299 8.28464 18.059 8.29134 18.0824C8.29641 18.1 8.30156 18.1181 8.30705 18.1366C8.74008 19.6136 10.629 20.0931 11.7148 19.0003C12.3763 18.3387 12.4936 17.3332 12.0517 16.5503L14.2795 14.3225C15.0623 14.7645 16.0679 14.647 16.7294 13.9855C17.1118 13.6032 17.3233 13.0913 17.3249 12.5441C17.3266 11.9937 17.1151 11.4782 16.7294 11.0924C16.4889 10.852 16.1903 10.674 15.8658 10.5778V10.5778ZM16.0664 13.3224C15.6422 13.7466 14.987 13.764 14.5419 13.3627C14.3567 13.1957 14.0729 13.203 13.8964 13.3794L11.1087 16.1671C10.9322 16.3436 10.9249 16.6273 11.092 16.8126C12.0133 17.9111 10.5332 19.313 9.48485 18.3372C9.35259 18.2049 9.25882 18.0477 9.20616 17.87L9.19276 17.8239C9.15403 17.6888 9.101 17.5039 8.93756 17.3405C8.77417 17.1772 8.5893 17.1241 8.45432 17.0854L8.40804 17.072C8.23039 17.0193 8.07328 16.9256 7.94102 16.7933C7.51118 16.3809 7.51122 15.6389 7.94102 15.2264C8.35848 14.809 9.0281 14.7918 9.46544 15.1862C9.65073 15.3532 9.93448 15.3459 10.111 15.1695L12.8987 12.3818C13.0751 12.2053 13.0825 11.9216 12.9153 11.7363C12.5141 11.2913 12.5314 10.6359 12.9556 10.2117C13.3803 9.78701 14.0979 9.78701 14.5225 10.2117C14.6548 10.344 14.7485 10.5012 14.8012 10.6788L14.8145 10.7247C14.8532 10.8598 14.9062 11.0447 15.0698 11.2084C15.2333 11.3718 15.4183 11.4248 15.5533 11.4635L15.5992 11.4768C16.392 11.6967 16.6486 12.7493 16.0664 13.3224V13.3224Z" fill="#7B8E98"/>
<g clip-path="url(#clip0_7535_8627)">
<path d="M14.2261 2.30917C13.5447 1.51422 12.9314 0.810122 12.4544 0.219587C12.4317 0.174161 12.3863 0.151448 12.3636 0.128735C12.1137 -0.0756813 11.7503 -0.0302555 11.5459 0.219587C11.069 0.810122 10.4557 1.51422 9.77432 2.30917C6.77621 5.78425 2.61975 10.5994 2.61975 14.6196C2.61975 17.2088 3.66454 19.5483 5.36801 21.2517C7.07148 22.9325 9.41091 24 12.0002 24C14.5895 24 16.9289 22.9552 18.6324 21.2517C20.3358 19.5483 21.3806 17.2088 21.3806 14.6196C21.3806 10.5994 17.2242 5.78425 14.2261 2.30917ZM17.8147 20.4114C16.3156 21.9104 14.2715 22.8416 12.0002 22.8416C9.72889 22.8416 7.68473 21.9104 6.18568 20.4341C4.70934 18.9577 3.77811 16.8909 3.77811 14.6196C3.77811 11.0309 7.77558 6.3975 10.6601 3.0587C11.1371 2.49088 11.5914 1.96848 12.0002 1.4688C12.409 1.96848 12.8633 2.49088 13.3402 3.03599C16.2248 6.37479 20.2223 10.9855 20.2223 14.5969C20.2223 16.8682 19.291 18.9123 17.8147 20.4114Z" fill="#7B8E98"/>
</g>
<defs>
<clipPath id="clip0_7535_8627">
<rect width="24" height="24" fill="white"/>
</clipPath>
</defs>
</svg>
