<svg width="24" height="24" viewBox="0 0 24 24" fill="none" xmlns="http://www.w3.org/2000/svg">
<path d="M22.9351 16.2703C22.8998 16.1357 22.8299 16.0128 22.7322 15.9137C22.6346 15.8146 22.5127 15.7429 22.3787 15.7057L18.0545 14.5049C18.0669 13.9835 17.9999 13.4633 17.8557 12.9621C17.6432 12.2487 17.3775 11.5523 17.0608 10.8786C17.5773 10.1634 17.8554 9.30363 17.8557 8.42133C17.8637 7.71987 17.6979 7.02736 17.3731 6.40566C17.0483 5.78397 16.5746 5.25246 15.9943 4.85862C15.4141 4.46479 14.7453 4.2209 14.0478 4.14874C13.3504 4.07659 12.6459 4.17843 11.9973 4.44515C8.88931 1.98787 5.12945 0.723442 1.80679 1.11311C1.63093 1.13482 1.46736 1.21469 1.34206 1.34004C1.21677 1.46539 1.13693 1.62903 1.11523 1.80496C0.71778 5.11315 1.98961 8.88257 4.46969 12.0158C4.11876 12.8682 4.0552 13.8119 4.28864 14.7037C4.52207 15.5955 5.03978 16.3869 5.76327 16.9578C6.48676 17.5288 7.3766 17.8482 8.29788 17.8676C9.21917 17.887 10.1217 17.6055 10.8686 17.0655C11.542 17.3823 12.2381 17.6482 12.9512 17.8608C13.4138 17.9947 13.8926 18.0643 14.3741 18.0675H14.4933L15.6936 22.3936C15.7308 22.5277 15.8025 22.6497 15.9015 22.7473C16.0005 22.845 16.1235 22.915 16.258 22.9503C16.324 22.9586 16.3907 22.9586 16.4567 22.9503C16.5613 22.9509 16.665 22.9308 16.7619 22.8913C16.8587 22.8517 16.9468 22.7934 17.0211 22.7197L22.6966 17.0417C22.8016 16.9461 22.8791 16.8242 22.921 16.6885C22.9629 16.5529 22.9678 16.4085 22.9351 16.2703ZM13.611 5.74138C14.3193 5.74138 14.9987 6.0229 15.4996 6.52399C16.0004 7.02509 16.2818 7.70472 16.2818 8.41337C16.2773 8.66431 16.2372 8.91332 16.1626 9.15295C15.4247 7.94124 14.544 6.82255 13.5394 5.82091L13.4679 5.75729L13.611 5.74138ZM8.79392 4.23043C7.73456 6.15263 6.15259 7.73527 4.23122 8.79509C3.15449 6.92503 2.60504 4.79777 2.64143 2.63996C4.79761 2.60948 6.92241 3.15876 8.79392 4.23043ZM8.41237 16.2862C7.70401 16.2862 7.02467 16.0047 6.52379 15.5036C6.02291 15.0025 5.74152 14.3229 5.74152 13.6142C5.74152 13.5665 5.74152 13.5188 5.74152 13.4711L5.80511 13.5426C6.80638 14.5476 7.92458 15.4286 9.13572 16.1669C8.90133 16.2402 8.65786 16.2803 8.41237 16.2862ZM13.3884 16.2862C12.5997 16.0598 11.8334 15.7617 11.0991 15.3955C9.56449 14.6288 8.16555 13.6161 6.95771 12.3975C6.2597 11.701 5.62647 10.9424 5.06586 10.1311C7.20255 8.93926 8.96649 7.17731 10.1611 5.04157C10.972 5.59959 11.7303 6.23044 12.4266 6.92628C13.6445 8.13474 14.6568 9.53426 15.4233 11.0695C15.7888 11.8172 16.0842 12.5972 16.3057 13.3995C16.4659 13.8166 16.5113 14.269 16.4372 14.7096C16.3631 15.1502 16.1722 15.5629 15.8844 15.9045C15.5434 16.1877 15.1329 16.3746 14.6955 16.4459C14.2581 16.5172 13.8096 16.4703 13.3964 16.3101L13.3884 16.2862ZM16.8701 20.5964L16.0752 17.6461C16.7959 17.3353 17.3764 16.7688 17.7047 16.0556L20.6458 16.8508L16.8701 20.5964ZM5.44741 4.65191C5.44442 4.54757 5.46622 4.444 5.511 4.34972C5.55125 4.25335 5.60771 4.16459 5.67793 4.08729C5.75182 4.01275 5.83974 3.95359 5.93661 3.91322C6.03347 3.87285 6.13737 3.85206 6.2423 3.85206C6.34724 3.85206 6.45114 3.87285 6.548 3.91322C6.64487 3.95359 6.73278 4.01275 6.80668 4.08729C6.87689 4.16459 6.93335 4.25335 6.97361 4.34972C7.01566 4.44491 7.03738 4.54784 7.03738 4.65191C7.03738 4.75598 7.01566 4.85891 6.97361 4.9541C6.93335 5.05047 6.87689 5.13923 6.80668 5.21653C6.73278 5.29106 6.64487 5.35022 6.548 5.3906C6.45114 5.43097 6.34724 5.45176 6.2423 5.45176C6.13737 5.45176 6.03347 5.43097 5.93661 5.3906C5.83974 5.35022 5.75182 5.29106 5.67793 5.21653C5.60771 5.13923 5.55125 5.05047 5.511 4.9541C5.46622 4.85982 5.44442 4.75625 5.44741 4.65191Z" fill="#7B8E98"/>
<path fill-rule="evenodd" clip-rule="evenodd" d="M22.3089 15.957L17.7888 14.7019L17.7937 14.4987C17.8054 14.0042 17.7419 13.5107 17.6053 13.0353C17.3966 12.3349 17.1356 11.651 16.8247 10.9896L16.7594 10.8505L16.8493 10.7259C17.3337 10.0551 17.5946 9.24874 17.5949 8.42123L17.5949 8.41835C17.6024 7.75996 17.4468 7.10998 17.1419 6.52646C16.837 5.94295 16.3924 5.4441 15.8478 5.07447C15.3032 4.70484 14.6756 4.47594 14.021 4.40823C13.3664 4.34051 12.7052 4.43609 12.0966 4.68641L11.9553 4.74449L11.8356 4.64979C8.769 2.22531 5.07679 0.992571 1.83804 1.3721C1.72019 1.38681 1.61058 1.44041 1.52657 1.52446C1.44247 1.6086 1.38883 1.71842 1.37418 1.83653C0.98709 5.0598 2.22644 8.76145 4.67423 11.8539L4.76911 11.9737L4.71091 12.1151C4.38158 12.9151 4.32193 13.8007 4.54101 14.6376C4.76008 15.4746 5.24593 16.2172 5.92488 16.753C6.60382 17.2888 7.43885 17.5886 8.30339 17.6068C9.16792 17.625 10.0148 17.3608 10.7158 16.8541L10.8404 16.764L10.9797 16.8295C11.6409 17.1406 12.3245 17.4016 13.0247 17.6105C13.4637 17.7375 13.918 17.8035 14.375 17.8067H14.6917L15.945 22.3239C15.97 22.414 16.0182 22.496 16.0847 22.5616C16.1472 22.6232 16.2237 22.6684 16.3076 22.6933C16.3464 22.697 16.3854 22.6963 16.4241 22.6915L16.4411 22.6893L16.4582 22.6894C16.5285 22.6898 16.5981 22.6764 16.6632 22.6498C16.7281 22.6233 16.7871 22.5842 16.837 22.5349C16.8371 22.5347 16.8369 22.535 16.837 22.5349L22.5165 16.8529L22.521 16.8488C22.5915 16.7846 22.6436 16.7026 22.6718 16.6115C22.6997 16.5213 22.7032 16.4254 22.682 16.3334C22.658 16.2442 22.6113 16.1626 22.5464 16.0968C22.4808 16.0302 22.3989 15.982 22.3089 15.957ZM22.9351 16.2703C22.8998 16.1357 22.8299 16.0128 22.7322 15.9137C22.6346 15.8146 22.5127 15.7429 22.3787 15.7057L18.0545 14.5049C18.0669 13.9835 17.9999 13.4633 17.8557 12.9621C17.6432 12.2487 17.3775 11.5523 17.0608 10.8786C17.5773 10.1634 17.8554 9.30363 17.8557 8.42133C17.8637 7.71987 17.6979 7.02736 17.3731 6.40566C17.0483 5.78397 16.5746 5.25245 15.9943 4.85862C15.4141 4.46479 14.7453 4.2209 14.0478 4.14874C13.3504 4.07659 12.6459 4.17843 11.9973 4.44515C8.8893 1.98787 5.12945 0.723442 1.80679 1.11311C1.63093 1.13482 1.46736 1.21469 1.34206 1.34004C1.21677 1.46539 1.13693 1.62903 1.11523 1.80496C0.71778 5.11315 1.98961 8.88257 4.46969 12.0158C4.11876 12.8682 4.0552 13.8119 4.28864 14.7037C4.52207 15.5955 5.03978 16.3869 5.76327 16.9578C6.48676 17.5288 7.3766 17.8482 8.29788 17.8676C9.21917 17.887 10.1217 17.6055 10.8686 17.0655C11.542 17.3823 12.2381 17.6482 12.9512 17.8608C13.4138 17.9947 13.8926 18.0643 14.3741 18.0675H14.4933L15.6936 22.3936C15.7308 22.5277 15.8025 22.6497 15.9015 22.7473C16.0005 22.845 16.1235 22.915 16.258 22.9503C16.324 22.9586 16.3907 22.9586 16.4567 22.9503C16.5613 22.9509 16.665 22.9308 16.7619 22.8913C16.8587 22.8517 16.9468 22.7934 17.0211 22.7197L22.6966 17.0417C22.8016 16.9461 22.8791 16.8242 22.921 16.6885C22.9629 16.5529 22.9678 16.4085 22.9351 16.2703ZM13.5965 5.48051H13.611C14.3886 5.48051 15.1343 5.78954 15.6841 6.33957C16.2339 6.8896 16.5427 7.63557 16.5427 8.41337V8.41807C16.5377 8.69371 16.4936 8.96724 16.4117 9.23046L16.2401 9.78176L15.9398 9.28863C15.214 8.09687 14.3481 6.99643 13.3605 6.01087L12.8566 5.56277L13.5965 5.48051ZM13.7212 6.00477C14.5668 6.87291 15.3211 7.82549 15.9723 8.84749C16.0367 8.94863 16.1002 9.05046 16.1626 9.15295C16.1992 9.03536 16.2275 8.9155 16.2474 8.79428C16.268 8.66846 16.2795 8.54117 16.2818 8.41337C16.2818 7.70472 16.0004 7.02509 15.4996 6.52399C15.0524 6.07666 14.4631 5.80431 13.8378 5.75103C13.7652 5.74484 13.6921 5.74161 13.6187 5.74139C13.6161 5.74139 13.6136 5.74138 13.611 5.74138L13.4679 5.75729L13.5394 5.82091C13.5634 5.84475 13.5872 5.86867 13.611 5.89265C13.6173 5.89902 13.6236 5.9054 13.6299 5.91178C13.6605 5.94267 13.6909 5.97367 13.7212 6.00477ZM9.14626 4.13158L9.02239 4.35635C7.93924 6.32169 6.32175 7.93989 4.35722 9.02351L4.13294 9.14722L4.00514 8.92526C2.90487 7.01431 2.34342 4.84054 2.38059 2.63556L2.38486 2.38269L2.63774 2.37912C4.84065 2.34798 7.0115 2.90916 8.92355 4.00405L9.14626 4.13158ZM5.48065 12.7847L5.99516 13.3638C6.98035 14.3517 8.0803 15.218 9.27151 15.9442L9.76349 16.2441L9.21352 16.4159C8.95595 16.4964 8.6884 16.5405 8.41864 16.547L8.41237 16.2862C8.53491 16.2833 8.65695 16.2718 8.77762 16.2519C8.89867 16.232 9.01833 16.2036 9.13572 16.1669C9.03341 16.1046 8.93176 16.0412 8.83078 15.9768C7.8157 15.3294 6.86911 14.5802 6.00571 13.7408C5.96254 13.6988 5.91958 13.6566 5.87683 13.6142C5.85286 13.5904 5.82895 13.5666 5.80511 13.5426L5.74152 13.4711V13.6142C5.74152 13.696 5.74527 13.7774 5.75267 13.8582C5.80941 14.4774 6.08073 15.0604 6.52379 15.5036C7.02467 16.0047 7.70401 16.2862 8.41237 16.2862V16.5471C7.63479 16.5471 6.88909 16.2381 6.33929 15.688C5.7895 15.138 5.48065 14.392 5.48065 13.6142V12.7847ZM15.4233 11.0695C15.7888 11.8172 16.0842 12.5972 16.3057 13.3995C16.4659 13.8166 16.5113 14.269 16.4372 14.7096C16.3631 15.1502 16.1722 15.5629 15.8844 15.9045C15.5434 16.1877 15.1329 16.3746 14.6955 16.4459C14.2581 16.5172 13.8096 16.4703 13.3964 16.3101L13.3884 16.2862C12.5997 16.0598 11.8334 15.7617 11.0991 15.3955C9.56449 14.6288 8.16555 13.6161 6.95771 12.3975C6.32159 11.7627 5.73927 11.0764 5.21668 10.3456C5.16584 10.2745 5.11556 10.203 5.06586 10.1311C5.14214 10.0885 5.21794 10.0453 5.29327 10.0013C7.25248 8.85695 8.88422 7.22705 10.0311 5.26877C10.0752 5.19352 10.1185 5.11778 10.1611 5.04157C10.2331 5.09113 10.3047 5.14125 10.3759 5.19195C11.1062 5.71214 11.7921 6.29223 12.4266 6.92628C13.6445 8.13474 14.6568 9.53426 15.4233 11.0695ZM12.6106 6.74139C13.8486 7.9698 14.8775 9.39241 15.6567 10.9529L15.4233 11.0695L15.6577 10.9549C16.0284 11.7134 16.3284 12.5045 16.5538 13.3181C16.727 13.7753 16.7756 14.2705 16.6945 14.7529C16.6126 15.2395 16.4018 15.6952 16.0839 16.0726L16.0689 16.0904L16.051 16.1052C15.6743 16.418 15.2208 16.6245 14.7375 16.7033C14.2542 16.7821 13.7586 16.7303 13.3021 16.5533L13.1877 16.5089L13.1841 16.4982C12.4267 16.2726 11.6901 15.9818 10.9827 15.629C9.42282 14.8496 8.00067 13.8202 6.7729 12.5816C6.06391 11.8741 5.4207 11.1035 4.85124 10.2794L4.688 10.0431L4.93878 9.90326C7.03327 8.73497 8.76239 7.00781 9.93347 4.91422L10.0732 4.66439L10.309 4.82667C11.1328 5.39359 11.9032 6.03448 12.6106 6.74139ZM16.735 21.0978L15.7645 17.4959L15.9719 17.4065C16.6335 17.1212 17.1663 16.6012 17.4677 15.9465L17.5599 15.7462L21.151 16.7172L16.735 21.0978ZM5.74931 4.45602L5.74664 4.46165C5.71955 4.51867 5.70636 4.58132 5.70817 4.64445L5.44741 4.65191C5.44442 4.54757 5.46622 4.444 5.511 4.34972C5.55125 4.25335 5.60771 4.16459 5.67793 4.08729C5.75182 4.01275 5.83974 3.95359 5.93661 3.91322C6.03347 3.87285 6.13737 3.85206 6.2423 3.85206C6.34724 3.85206 6.45114 3.87285 6.548 3.91322C6.64487 3.95359 6.73278 4.01275 6.80668 4.08729C6.87689 4.16459 6.93335 4.25335 6.97361 4.34972C7.01566 4.44491 7.03738 4.54784 7.03738 4.65191C7.03738 4.75598 7.01566 4.85891 6.97361 4.9541C6.93335 5.05047 6.87689 5.13923 6.80668 5.21653C6.73278 5.29106 6.64487 5.35022 6.548 5.3906C6.45114 5.43097 6.34724 5.45176 6.2423 5.45176C6.13737 5.45176 6.03347 5.43097 5.93661 5.3906C5.83974 5.35022 5.75182 5.29106 5.67793 5.21653C5.60771 5.13923 5.55125 5.05047 5.511 4.9541C5.46622 4.85982 5.44442 4.75625 5.44741 4.65191L5.70817 4.65937C5.70636 4.7225 5.71955 4.78514 5.74664 4.84217L5.74931 4.8478L5.75171 4.85355C5.77974 4.92066 5.81877 4.9826 5.86715 5.03682C5.91597 5.08504 5.97362 5.1234 6.03697 5.14981C6.10203 5.17693 6.17182 5.19089 6.2423 5.19089C6.31279 5.19089 6.38257 5.17693 6.44764 5.14981C6.51098 5.1234 6.56864 5.08504 6.61745 5.03682C6.66584 4.98259 6.70486 4.92066 6.73289 4.85355L6.73494 4.84866C6.76232 4.78668 6.77651 4.71968 6.77651 4.65191C6.77651 4.58414 6.76237 4.51712 6.73499 4.45514L6.73284 4.45029C6.70481 4.38318 6.66584 4.32122 6.61745 4.26699C6.56863 4.21878 6.51098 4.18041 6.44764 4.15401C6.38257 4.12689 6.31279 4.11293 6.2423 4.11293C6.17182 4.11293 6.10203 4.12689 6.03697 4.15401C5.97362 4.18041 5.91597 4.21878 5.86716 4.26699C5.81877 4.32122 5.77974 4.38316 5.75171 4.45027L5.74931 4.45602ZM16.8701 20.5964L20.6458 16.8508L17.7047 16.0556C17.3764 16.7688 16.7959 17.3353 16.0752 17.6461L16.8701 20.5964ZM4.23122 8.79509C6.15259 7.73527 7.73456 6.15263 8.79392 4.23043C6.92241 3.15876 4.79761 2.60948 2.64143 2.63996C2.60504 4.79777 3.15449 6.92503 4.23122 8.79509Z" fill="white"/>
</svg>
