<svg width="24" height="24" viewBox="0 0 24 24" fill="none" xmlns="http://www.w3.org/2000/svg">
<path d="M8.59583 13.4506C9.01517 13.4506 9.35511 13.1107 9.35511 12.6913C9.35511 12.272 9.01517 11.9321 8.59583 11.9321C8.17649 11.9321 7.83655 12.272 7.83655 12.6913C7.83655 13.1107 8.17649 13.4506 8.59583 13.4506Z" fill="#7B8E98"/>
<path d="M15.4043 13.4506C15.8236 13.4506 16.1636 13.1107 16.1636 12.6913C16.1636 12.272 15.8236 11.9321 15.4043 11.9321C14.985 11.9321 14.645 12.272 14.645 12.6913C14.645 13.1107 14.985 13.4506 15.4043 13.4506Z" fill="#7B8E98"/>
<path d="M10.1863 19.9981C10.1863 19.6094 10.5014 19.2943 10.8901 19.2943C11.2788 19.2943 11.5939 19.6094 11.5939 19.9981V20.1961C11.5939 20.5848 11.2788 20.8999 10.8901 20.8999C10.5014 20.8999 10.1863 20.5848 10.1863 20.1961V19.9981Z" fill="#7B8E98"/>
<path d="M12.4061 19.9981C12.4061 19.6094 12.7212 19.2943 13.1099 19.2943C13.4986 19.2943 13.8137 19.6094 13.8137 19.9981V20.1961C13.8137 20.5848 13.4986 20.8999 13.1099 20.8999C12.7212 20.8999 12.4061 20.5848 12.4061 20.1961V19.9981Z" fill="#7B8E98"/>
<path d="M11.4016 5.3958L11.4307 5.3941C11.5897 5.38479 11.7197 5.38235 11.8116 5.38235C11.9023 5.38235 11.9567 5.3847 11.9654 5.38518L11.4016 5.3958ZM11.4016 5.3958L11.378 5.41286C11.0721 5.63373 10.386 6.35275 10.5192 8.26186C10.5879 9.24776 11.0486 9.98683 11.886 10.4464C12.0234 10.5218 12.1599 10.5837 12.2896 10.6346L12.4183 10.6851L12.4259 10.547C12.4522 10.0712 12.5785 9.48054 12.9333 8.8477C13.2428 8.29558 13.4131 7.60032 13.4717 6.98058C13.501 6.67006 13.5026 6.37581 13.4787 6.12495C13.455 5.87664 13.4056 5.6615 13.3265 5.51565L13.3028 5.47187L13.2536 5.46443C12.5644 5.3602 12.0641 5.38351 12.0347 5.38518C12.0342 5.38521 12.0338 5.38523 12.0336 5.38525L12 5.38716L11.9662 5.38523L11.4016 5.3958ZM9.44292 5.79187C7.82714 6.38183 6.86849 7.53092 6.60467 9.19815C6.12215 12.2474 7.18794 14.8475 7.95877 16.728L7.96109 16.7336L7.9611 16.7336L7.96113 16.7337C8.05633 16.9661 8.14591 17.1848 8.22764 17.3922L8.26712 17.4923L8.36408 17.4456C8.77489 17.2477 9.42759 16.9851 10.2647 16.8196L10.2453 16.7215L10.2647 16.8196C11.5126 16.5729 13.4278 16.5001 15.6289 17.4726L15.7243 17.5148L15.7624 17.4177C15.8468 17.2028 15.9397 16.9757 16.039 16.7337L15.9464 16.6957L16.039 16.7336L16.0413 16.7278C16.8122 14.8473 17.8779 12.2473 17.3954 9.1982L17.2966 9.21383M9.44292 5.79187L9.46783 5.86008L9.50755 5.87502L9.54151 5.96908C9.53437 5.97166 9.52996 5.97319 9.52594 5.9746C9.52165 5.97609 9.51781 5.97743 9.51157 5.97972L9.51152 5.97974C9.4955 5.98558 9.47955 5.99149 9.46367 5.99745C9.2359 6.6652 9.15204 7.45304 9.21481 8.35287C9.34189 10.174 10.3955 11.1199 11.257 11.5927C12.1389 12.0766 12.9721 12.1571 13.0642 12.1646L14.093 12.2665L14.0512 12.1618M9.44292 5.79187L9.47358 5.78096L9.67745 5.70735L9.60115 5.91022C9.34671 6.58675 9.24864 7.40086 9.31457 8.34591C9.43861 10.1235 10.4639 11.0434 11.3051 11.505C12.1694 11.9793 12.9868 12.0579 13.0724 12.065L13.0741 12.0651L13.0741 12.0651L14.0512 12.1618M9.44292 5.79187L9.44287 5.79189L9.46781 5.86007L14.0512 12.1618M14.0512 12.1618L14.1633 12.1729L13.7846 11.2258C13.7608 11.1493 13.5541 10.4142 14.0739 9.48715C14.5919 8.56312 14.8809 7.21543 14.7874 6.09882C14.7709 6.09167 14.7543 6.08458 14.7376 6.07757L14.7765 5.98541L14.8759 5.97458C14.8779 5.99335 14.8799 6.01218 14.8817 6.03108C16.247 6.64145 17.0586 7.71034 17.2966 9.21383M14.0512 12.1618L13.6917 11.2629L13.6888 11.2556L13.6891 11.2555C13.6605 11.1635 13.4488 10.3975 13.9866 9.43825C14.5121 8.50106 14.7987 7.11338 14.6771 5.99624L14.6587 5.82726L14.8153 5.89326C16.2762 6.50875 17.146 7.62257 17.3954 9.19819L17.2966 9.21383M14.0512 12.1618L17.2966 9.21383M19.9251 0.505489L20.0172 0.466774L19.9251 0.505501C19.945 0.552899 20.2038 1.18029 20.3315 2.0313C20.4594 2.88378 20.4538 3.94765 19.9589 4.8779C19.4766 5.78476 18.5249 6.38784 17.8501 6.72092L17.7508 6.7699L17.8096 6.86367C18.1975 7.48312 18.4601 8.20069 18.5881 9.00938C19.1231 12.3895 17.9443 15.2693 17.1564 17.1916L17.1562 17.1921C17.002 17.5682 16.8572 17.9213 16.7469 18.2273C16.6373 18.5312 16.558 18.7979 16.5399 18.9986C16.5287 19.1219 16.5193 19.2559 16.5096 19.3963L16.5093 19.3993C16.4512 20.233 16.3719 21.3435 15.7804 22.2557C15.0782 23.3386 13.8171 23.9 12 23.9C10.1829 23.9 8.9218 23.3386 8.21961 22.2558C7.62808 21.3435 7.54876 20.233 7.49062 19.3993C7.48074 19.2578 7.4713 19.1229 7.46013 18.9987L7.46013 18.9987C7.44204 18.7979 7.36275 18.5312 7.25311 18.2273C7.14298 17.922 6.99858 17.5697 6.84481 17.1945L6.84364 17.1917L6.75111 17.2296L6.84364 17.1916C6.05568 15.2693 4.87694 12.3895 5.4119 9.00938L5.31313 8.99375L5.4119 9.00938C5.53985 8.20069 5.80254 7.48312 6.19045 6.86367L6.24917 6.76989L6.14995 6.72092C5.47514 6.38789 4.52344 5.78481 4.04106 4.87795C3.54624 3.9477 3.54061 2.8838 3.6685 2.0313C3.79618 1.18027 4.05498 0.552873 4.0749 0.505517L4.07491 0.505489L4.24325 0.105072L4.67635 0.137364L4.67636 0.137364C4.72016 0.140628 5.3178 0.189932 6.05305 0.47315C6.78828 0.756359 7.65448 1.27081 8.24635 2.20044C8.70131 2.9151 8.76506 3.84709 8.70477 4.6289L8.69243 4.7888L8.84144 4.7295C8.91878 4.69872 8.99642 4.66894 9.07549 4.64066C10.4583 4.14663 11.7528 4.16855 11.9962 4.17781L11.9962 4.1781L12.0038 4.17781C12.2474 4.16859 13.5417 4.14672 14.9246 4.64066C15.0036 4.66894 15.0813 4.69872 15.1586 4.7295L15.3076 4.7888L15.2953 4.6289C15.235 3.84709 15.2987 2.9151 15.7537 2.20044L15.6693 2.14673L15.7537 2.20043C16.3455 1.27081 17.2117 0.756359 17.9469 0.47315C18.6822 0.189932 19.2798 0.140628 19.3236 0.137364L19.3162 0.0376478L19.3237 0.137364L19.7568 0.105072L19.9251 0.505489ZM5.13163 1.44551L5.03617 1.42063L5.01 1.51574C4.91708 1.85335 4.81873 2.31903 4.80426 2.81529C4.78981 3.31097 4.85885 3.844 5.10719 4.3108C5.30471 4.68209 5.64888 4.99546 6.00459 5.24201C6.36162 5.48947 6.73847 5.67524 7.01163 5.78868L7.06943 5.81269L7.11629 5.77119C7.17556 5.7187 7.23675 5.66748 7.29937 5.61692L7.32552 5.59581L7.33361 5.56319C7.41122 5.25028 7.50076 4.75886 7.51431 4.25526C7.52776 3.75554 7.4671 3.22509 7.22763 2.84893L7.22762 2.84893C6.66873 1.97111 5.71941 1.59869 5.13163 1.44551ZM8.66287 18.8901L8.66288 18.8902C8.67506 19.0249 8.68472 19.1631 8.69502 19.3107L8.69534 19.3153L8.69641 19.3307C8.75186 20.1264 8.81066 20.9701 9.24072 21.6115C9.68146 22.2688 10.4936 22.6923 12 22.6923C13.5063 22.6923 14.3185 22.2688 14.7592 21.6115C15.1893 20.9701 15.2481 20.1263 15.3035 19.3307L15.3046 19.3153C15.315 19.166 15.3248 19.0263 15.3371 18.8901C15.3411 18.8461 15.347 18.8005 15.354 18.7534L15.3649 18.6796L15.2973 18.6481C13.7276 17.9178 12.1347 17.6956 10.5612 17.9922C9.6408 18.1657 8.98059 18.478 8.6946 18.6317L8.63228 18.6652L8.64312 18.7351C8.65143 18.7887 8.6584 18.8404 8.66287 18.8901ZM16.8837 5.77124L16.9305 5.81273L16.9883 5.78873C17.261 5.67552 17.6378 5.48984 17.9949 5.24235C18.3507 4.99578 18.6951 4.68228 18.8928 4.3108C19.1397 3.84669 19.208 3.31395 19.1933 2.81786C19.1786 2.32113 19.0806 1.85402 18.9881 1.51556L18.9621 1.42029L18.8665 1.44511C18.2791 1.59768 17.3323 1.96929 16.7723 2.84893L16.8566 2.90264L16.7723 2.84893C16.5331 3.22472 16.4739 3.76033 16.488 4.2622C16.5021 4.7682 16.5913 5.25979 16.6661 5.56293L16.6742 5.59562L16.7004 5.61677C16.7631 5.66738 16.8243 5.7187 16.8837 5.77124Z" fill="#7B8E98" stroke="white" stroke-width="0.2"/>
</svg>
