<svg width="18" height="24" viewBox="0 0 18 24" fill="none" xmlns="http://www.w3.org/2000/svg">
<path d="M7.53528 14.8604C7.53528 14.4722 7.22056 14.1574 6.83234 14.1574C6.44411 14.1574 6.12939 14.4722 6.12939 14.8604C6.12939 15.2486 6.44411 15.5634 6.83234 15.5634C7.22056 15.5634 7.53528 15.2486 7.53528 14.8604Z" fill="#7B8E98"/>
<path d="M11.8706 14.8604C11.8706 14.4722 11.5558 14.1574 11.1676 14.1574C10.7794 14.1574 10.4647 14.4722 10.4647 14.8604C10.4647 15.2486 10.7794 15.5634 11.1676 15.5634C11.5558 15.5634 11.8706 15.2486 11.8706 14.8604Z" fill="#7B8E98"/>
<path d="M14.6778 14.6578L14.6807 14.7028L14.7164 14.7304C15.9996 15.7238 16.7353 17.2549 16.6995 18.8931L16.6995 18.895C16.6932 21.5267 14.3816 23.8638 11.7499 23.8972L11.748 23.8972C11.6915 23.899 11.6355 23.9 11.5796 23.9C10.6839 23.8999 9.81821 23.6702 9.04954 23.232L8.99997 23.2038L8.95042 23.2321C8.13506 23.6978 7.20109 23.9285 6.25218 23.8972L6.25015 23.8972C3.6185 23.8638 1.30677 21.5268 1.30055 18.895L1.30051 18.8931C1.26479 17.2549 2.00036 15.7238 3.2836 14.7305L3.31927 14.7029L3.32218 14.6579L3.41018 13.2957C3.46893 12.3866 3.74449 11.5386 4.18434 10.8007L4.22378 10.7345L4.16986 10.6795C3.73506 10.2358 3.41791 9.6844 3.25548 9.07823L0.957801 0.503302L1.97538 0.230622L1.97538 0.230642L1.97737 0.230066C3.8486 -0.313068 5.95541 0.903265 6.42068 2.7954L6.42066 2.79541L6.42119 2.7974L7.83715 8.0819L7.86128 8.17195L7.9528 8.15419C8.62845 8.02302 9.3715 8.02302 10.0471 8.15419L10.1387 8.17195L10.1628 8.0819L11.5788 2.7974L11.5788 2.79741L11.5793 2.7954C12.0446 0.903311 14.1513 -0.313022 16.0226 0.230087L16.0246 0.230622L17.0421 0.503302L14.7445 9.07818C14.5821 9.6844 14.2649 10.2358 13.8301 10.6794L13.7762 10.7344L13.8157 10.8006C14.2555 11.5385 14.5311 12.3866 14.5898 13.2957L14.6778 14.6578ZM13.873 1.63758L13.873 1.63758C13.3124 1.96126 12.9111 2.4843 12.7435 3.10953L11.3087 8.46413L11.287 8.54506L11.3629 8.58058C11.9561 8.8583 12.4942 9.23721 12.9538 9.69569L13.0313 9.77298L13.1013 9.68886C13.324 9.42129 13.4884 9.10672 13.5797 8.76615L13.4831 8.74026L13.5797 8.76615L15.5359 1.46561L15.5647 1.35812L15.4547 1.34092C14.91 1.25575 14.3568 1.35829 13.873 1.63758ZM2.54347 1.34116L2.43574 1.35993L2.46404 1.46556L4.42019 8.7661L4.51678 8.74022L4.42019 8.7661C4.51147 9.10672 4.67586 9.42124 4.89852 9.68881L4.96852 9.77293L5.046 9.69565C5.50569 9.23717 6.04371 8.85825 6.63694 8.58054L6.71282 8.54501L6.69114 8.46409L5.25664 3.11049C4.96666 1.93797 3.72889 1.13465 2.54347 1.34116ZM9.60296 22.1013V22.1595L9.65362 22.1882C10.2757 22.5411 10.98 22.7154 11.7091 22.692C12.7079 22.6598 13.6489 22.2465 14.3588 21.529C15.0687 20.8115 15.472 19.8659 15.4939 18.8667C15.5232 17.525 14.8752 16.2764 13.761 15.5272L13.5149 15.3617L13.3865 13.3735L13.3865 13.3735L13.3862 13.3702C12.855 7.92316 5.14713 7.91894 4.61385 13.3702L4.6138 13.3702L4.61358 13.3735L4.48512 15.3617L4.2404 15.5263C4.24016 15.5264 4.23993 15.5266 4.2397 15.5267C2.21666 16.8389 1.91173 19.8401 3.64181 21.5296C4.35164 22.2468 5.29246 22.6598 6.29088 22.692C7.01976 22.7155 7.72423 22.5411 8.34641 22.1882L8.39708 22.1595V22.1012V19.9525V19.9001L8.3541 19.8703L7.89657 19.5527C7.62303 19.3628 7.55522 18.9871 7.74512 18.7135C7.93502 18.44 8.31071 18.3722 8.58426 18.5621L8.94299 18.8111L9.00002 18.8507L9.05704 18.8111L9.41578 18.5621C9.68932 18.3722 10.065 18.44 10.2549 18.7135C10.4448 18.9871 10.377 19.3628 10.1035 19.5527L9.64593 19.8703L9.60296 19.9001V19.9525V22.1013Z" fill="#7B8E98" stroke="white" stroke-width="0.2"/>
</svg>
