<svg width="18" height="24" viewBox="0 0 18 24" fill="none" xmlns="http://www.w3.org/2000/svg">
<path d="M6.87186 10.932C6.87186 10.5436 6.55697 10.2287 6.16853 10.2287C5.7801 10.2287 5.46521 10.5436 5.46521 10.932C5.46521 11.3205 5.7801 11.6354 6.16853 11.6354C6.55697 11.6354 6.87186 11.3205 6.87186 10.932Z" fill="#7B8E98"/>
<path d="M12.5332 10.932C12.5332 10.5436 12.2183 10.2287 11.8299 10.2287C11.4415 10.2287 11.1266 10.5436 11.1266 10.932C11.1266 11.3205 11.4415 11.6354 11.8299 11.6354C12.2183 11.6354 12.5332 11.3205 12.5332 10.932Z" fill="#7B8E98"/>
<path d="M5.5575 4.01064C5.5575 4.19543 5.59454 4.37413 5.66538 4.53867L5.70929 4.64064L5.80613 4.58635C7.68308 3.53414 10.317 3.5341 12.194 4.58635L12.2894 4.63984L12.3341 4.54004C12.724 3.67037 12.0353 2.63887 11.0781 2.67501C11.078 2.67502 11.0779 2.67502 11.0778 2.67502L10.6427 2.68899L10.4849 2.29953C10.4849 2.29948 10.4849 2.29942 10.4848 2.29937C9.95501 0.971925 8.04554 0.971326 7.51528 2.29927C7.51524 2.29935 7.51521 2.29944 7.51517 2.29953L7.35738 2.68899L6.92172 2.675L6.92172 2.675L6.92082 2.67498C6.17446 2.65773 5.55661 3.26507 5.5575 4.01064ZM5.5575 4.01064H5.6575L5.5575 4.01077C5.5575 4.01073 5.5575 4.01069 5.5575 4.01064ZM16.9142 19.9022L16.9147 19.903C18.0551 21.5789 16.8049 23.917 14.7755 23.8999H14.7746L3.22541 23.8999L3.22456 23.8999C1.19583 23.9171 -0.0553473 21.5792 1.0854 19.9029L1.08593 19.9021C1.80977 18.8163 2.19241 17.5525 2.19241 16.2476V10.5972C2.19241 8.49782 3.14759 6.61728 4.64672 5.36726L4.71105 5.31362L4.66953 5.24089C3.79682 3.71185 4.80515 1.72327 6.52374 1.49444L6.57219 1.48799L6.59686 1.4458C7.64616 -0.34839 10.3535 -0.348972 11.4032 1.4458L11.4279 1.48799L11.4764 1.49444C13.1945 1.72309 14.2035 3.71159 13.3306 5.24088L13.289 5.31362L13.3534 5.36726C14.8525 6.61728 15.8077 8.49782 15.8077 10.5972V16.2477C15.8077 17.5525 16.1903 18.8163 16.9142 19.9022ZM14.601 10.5972H14.6011L14.601 10.5931C14.2954 3.17156 3.70749 3.16524 3.39914 10.593L3.39905 10.593V10.5972V16.2476C3.39905 17.7914 2.94651 19.2863 2.0902 20.5711C1.48371 21.4628 2.14678 22.702 3.2258 22.6932H14.7743C15.8529 22.702 16.5164 21.4631 15.91 20.5711C15.0536 19.2864 14.601 17.7915 14.601 16.2476V10.5972ZM9.85693 16.127L9.79729 16.1951L9.85904 16.2612L11.5113 18.0306L11.5113 18.0307L11.5132 18.0326C12.2426 18.7716 12.2396 19.9663 11.5042 20.7016L11.5029 20.703C10.877 21.3532 9.77922 21.4388 9.05988 20.9008L8.99999 20.856L8.94009 20.9008C8.22081 21.4388 7.12288 21.3532 6.49708 20.703L6.49709 20.703L6.49574 20.7016C5.76042 19.9663 5.75748 18.7714 6.48682 18.0325L6.48872 18.0305L8.14148 16.2618L8.20327 16.1957L8.14362 16.1276L6.33219 14.061L9.00004 12.0211L11.6679 14.061L9.85693 16.127ZM9.06078 13.5865L9.00004 13.54L8.9393 13.5865L8.16667 14.1772L8.08231 14.2417L8.15176 14.3221L8.92438 15.2158L9.00004 15.3034L9.07569 15.2158L9.84831 14.3221L9.91776 14.2417L9.8334 14.1772L9.06078 13.5865ZM7.34828 19.8476C7.60607 20.1154 8.06352 20.1154 8.32133 19.8477C8.32157 19.8474 8.32182 19.8472 8.32207 19.8469L9.00004 19.1689L9.678 19.8469C9.67825 19.8472 9.67851 19.8474 9.67876 19.8477C9.93656 20.1154 10.394 20.1154 10.6518 19.8477C10.9188 19.5799 10.9188 19.1452 10.6518 18.8774C10.6516 18.8772 10.6513 18.877 10.6511 18.8767L10.6368 18.8619L10.6357 18.8607L9.07364 17.188L9.00059 17.1098L8.9275 17.188L7.34772 18.878C7.08129 19.1458 7.08146 19.58 7.34828 19.8476Z" fill="#7B8E98" stroke="white" stroke-width="0.2"/>
</svg>
