<svg width="46" height="38" viewBox="0 0 46 38" fill="none" xmlns="http://www.w3.org/2000/svg">
<path d="M43.3047 1.79688H17.9952C17.6244 0.751094 16.6251 0 15.4538 0H10.0632C8.89193 0 7.89268 0.751094 7.5219 1.79688H2.69531C1.20912 1.79688 0 3.00599 0 4.49219V13.4766C0 14.9628 1.20912 16.1719 2.69531 16.1719H7.5219C7.89268 17.2177 8.89193 17.9688 10.0632 17.9688H15.4538C16.6251 17.9688 17.6244 17.2177 17.9952 16.1719H22.1016V26.0463L18.7293 26.95C17.7376 25.6297 16.0125 25.0052 14.3714 25.4448C12.1795 26.0321 10.874 28.2932 11.4613 30.4853C11.6384 31.1461 11.9797 31.7565 12.4484 32.2507C12.4753 32.279 12.5017 32.3064 12.5273 32.3329C12.5701 32.3772 12.6252 32.4344 12.6558 32.4709C12.6476 32.5178 12.6284 32.5946 12.6135 32.6542C12.6045 32.6902 12.5954 32.7272 12.5862 32.7654C12.4274 33.4273 12.4371 34.1267 12.6142 34.7878C13.1063 36.6243 14.7734 37.8386 16.5904 37.8386C16.9419 37.8385 17.2992 37.793 17.6546 37.6979C19.2959 37.258 20.4774 35.8546 20.676 34.2154L27.2704 32.4486C28.2595 33.7695 29.9852 34.3942 31.6303 33.953C33.8222 33.3656 35.1277 31.1045 34.5403 28.9125C34.3632 28.2516 34.0219 27.6412 33.5535 27.1473C33.5265 27.1189 33.4999 27.0914 33.4741 27.0646C33.4314 27.0204 33.3764 26.9635 33.3458 26.927C33.354 26.8802 33.3732 26.8034 33.388 26.7439C33.397 26.7078 33.4062 26.6708 33.4155 26.6325C34.1588 23.6425 31.319 20.8763 28.3471 21.7C26.7017 22.1409 25.5197 23.5444 25.3235 25.183L23.8984 25.5649V16.1719H43.3047C44.7909 16.1719 46 14.9628 46 13.4766V4.49219C46 3.00599 44.7909 1.79688 43.3047 1.79688ZM26.433 26.746C26.8475 26.635 27.1255 26.2463 27.097 25.8183C27.0226 24.706 27.7279 23.7263 28.8123 23.4356C30.026 23.1106 31.3265 23.8611 31.652 25.0751C31.7532 25.4532 31.7587 25.8362 31.6683 26.2134L31.6448 26.309C31.5732 26.596 31.484 26.9531 31.6022 27.3941C31.7203 27.8351 31.9761 28.1 32.1816 28.3129L32.2499 28.384C32.513 28.6614 32.7049 29.005 32.8048 29.3777C33.1302 30.5918 32.3793 31.8921 31.1653 32.2174C30.0809 32.5081 28.9802 32.0123 28.4885 31.0118C28.2993 30.6268 27.8641 30.4289 27.4497 30.5403L19.5681 32.6521C19.1546 32.7629 18.8766 33.1502 18.9041 33.5775C18.9746 34.6742 18.2535 35.6771 17.1896 35.9623C15.9552 36.293 14.6809 35.5577 14.35 34.3228C14.2501 33.9501 14.2445 33.5565 14.3337 33.1847L14.3572 33.0893C14.4288 32.8021 14.518 32.4447 14.3997 32.0036C14.2815 31.5624 14.0255 31.2975 13.8199 31.0846L13.7522 31.014C13.4852 30.7326 13.2985 30.3983 13.1971 30.0202C12.8663 28.7852 13.6017 27.5113 14.8367 27.1805C15.9005 26.8951 17.0265 27.4034 17.5139 28.3884C17.7038 28.7723 18.1377 28.9689 18.5517 28.8579L26.433 26.746ZM17.9952 14.375C17.6244 13.3292 16.6251 12.5781 15.4538 12.5781H13.657V9.88281H17.2507C18.4428 9.83537 18.4419 8.13302 17.2507 8.08594H13.657V5.39063H15.4538C16.6251 5.39063 17.6244 4.63953 17.9952 3.59375H35.5904L40.3459 8.34918C40.6915 8.68007 40.6915 9.28877 40.3459 9.61966L35.5904 14.3751L17.9952 14.375ZM1.79688 13.4766V4.49219C1.79688 3.99679 2.19991 3.59375 2.69531 3.59375H7.36791V14.375H2.69531C2.19991 14.375 1.79688 13.972 1.79688 13.4766ZM15.4538 16.1719H10.0632C9.56782 16.1719 9.16478 15.7688 9.16478 15.2734V2.69531C9.16478 2.19991 9.56782 1.79688 10.0632 1.79688H15.4538C16.6461 1.84638 16.6451 3.5447 15.4538 3.59375H12.7585C12.2623 3.59375 11.8601 3.99607 11.8601 4.49219V8.08594C10.668 8.13338 10.6689 9.83573 11.8601 9.88281V13.4766C11.8601 13.9727 12.2623 14.375 12.7585 14.375H15.4538C16.646 14.4245 16.6451 16.1228 15.4538 16.1719ZM44.2031 13.4766C44.2031 13.972 43.8001 14.375 43.3047 14.375H38.1317L41.6164 10.8902C42.6592 9.89036 42.6592 8.0783 41.6164 7.07852L38.1317 3.59375H43.3047C43.8001 3.59375 44.2031 3.99679 44.2031 4.49219V13.4766Z" fill="#7B8E98"/>
</svg>
