<svg width="16" height="16" viewBox="0 0 16 16" fill="none" xmlns="http://www.w3.org/2000/svg">
<path fill-rule="evenodd" clip-rule="evenodd" d="M12.1108 14.2239C12.357 14.0389 12.411 13.7345 12.2609 13.3048L11.0061 9.58657L14.2121 7.30074C14.5844 7.03814 14.7345 6.75764 14.6384 6.46519C14.5424 6.17275 14.2602 6.02951 13.7979 6.03548L9.86538 6.06532L8.67062 2.32922C8.52652 1.89354 8.31039 1.66675 7.99819 1.66675C7.69199 1.66675 7.47586 1.89354 7.33177 2.32922L6.13701 6.06532L2.2045 6.03548C1.74221 6.02951 1.46003 6.17275 1.36397 6.46519C1.26191 6.75764 1.418 7.03814 1.79024 7.30074L4.99628 9.58657L3.74148 13.3048C3.59139 13.7345 3.64542 14.0389 3.89158 14.2239C4.13773 14.4149 4.44993 14.3492 4.82217 14.0806L7.99819 11.759L11.1802 14.0806C11.5524 14.3492 11.8586 14.4149 12.1108 14.2239ZM11.1922 13.0362L8.30438 10.8459C8.11226 10.6967 7.89012 10.6967 7.698 10.8459L4.81016 13.0362C4.78615 13.0541 4.76813 13.0601 4.75613 13.0481C4.74412 13.0302 4.75012 13.0243 4.75613 12.9885L5.95089 9.5806C6.03494 9.34784 5.98691 9.15686 5.77678 9.01362L2.78687 6.96056C2.75686 6.94265 2.75085 6.93072 2.75686 6.91878C2.76286 6.90087 2.77487 6.90087 2.81089 6.90087L6.4432 6.96056C6.68936 6.96652 6.84546 6.87103 6.92351 6.62634L7.96817 3.17074C7.97417 3.13493 7.98618 3.12299 7.99819 3.12299C8.0162 3.12299 8.02821 3.13493 8.03421 3.17074L9.07888 6.62634C9.15693 6.87103 9.31303 6.96652 9.55918 6.96056L13.1915 6.90087C13.2275 6.90087 13.2395 6.90087 13.2455 6.91878C13.2515 6.93072 13.2395 6.94265 13.2155 6.96056L10.2256 9.01362C10.0155 9.15686 9.96744 9.34784 10.0515 9.5806L11.2463 12.9885C11.2523 13.0243 11.2583 13.0302 11.2463 13.0481C11.2342 13.0601 11.2162 13.0541 11.1922 13.0362Z" fill="#CFD8DC"/>
</svg>
