<svg width="19" height="22" viewBox="0 0 19 22" fill="none" xmlns="http://www.w3.org/2000/svg">
<path d="M9.70298 4.61564C9.73212 3.71122 9.98125 2.37888 10.8483 1.5036C11.6531 0.691115 12.6328 0.295131 13.243 0.114103C13.4786 0.044215 13.7046 0.221857 13.693 0.46731C13.6521 1.33311 13.4244 2.6245 12.8371 3.31632C12.2834 3.96848 11.3926 4.83329 10.0879 4.9788C9.87437 5.00262 9.69605 4.8304 9.70298 4.61564Z" fill="#1A1A1A"/>
<path d="M11.937 21.1695C12.5635 21.4095 13.197 21.6522 13.7703 21.6522C14.9966 21.6522 18.5678 18.8226 18.6964 15.8838C18.703 15.7329 18.6128 15.5981 18.481 15.5243C17.5726 15.016 16.0893 13.7503 16.0376 11.909C15.9775 9.76316 17.0549 8.05879 17.8703 7.35376C18.0538 7.19509 18.1169 6.91531 17.953 6.73638C17.2111 5.92618 15.7186 4.81172 14.3568 4.83908C13.366 4.85898 12.4734 5.22803 11.7074 5.54472C11.1197 5.78768 10.6066 5.99982 10.181 5.99982C9.77779 5.99982 9.29377 5.78904 8.73826 5.54713C7.99015 5.22134 7.11236 4.83908 6.12768 4.83908C4.30374 4.83908 0.699959 6.35156 0.699951 12.1904C0.699947 15.2857 3.89531 21.7343 6.59166 21.6522C7.1739 21.6522 7.79613 21.4111 8.41358 21.1719C9.0216 20.9363 9.62499 20.7025 10.181 20.7025C10.7178 20.7025 11.3241 20.9347 11.937 21.1695Z" fill="#1A1A1A"/>
</svg>
