<svg width="14" height="8" viewBox="0 0 14 8" fill="none" xmlns="http://www.w3.org/2000/svg">
<path fill-rule="evenodd" clip-rule="evenodd" d="M0 0.932419C0 0.407444 0.410372 0 0.931229 0C1.19166 0 1.42841 0.101861 1.60992 0.282076L7.00789 5.7669L12.3901 0.282076C12.5716 0.101861 12.8162 0 13.0688 0C13.5896 0 14 0.407444 14 0.932419C14 1.18315 13.9053 1.40255 13.7317 1.57493L7.73393 7.67091C7.52875 7.8903 7.27621 8 7 8C6.72379 8 6.48703 7.8903 6.27396 7.67875L0.26832 1.58276C0.0947012 1.40255 0 1.18315 0 0.932419Z" fill="#1A1A1A"/>
</svg>
