<svg width="16" height="16" viewBox="0 0 16 16" fill="none" xmlns="http://www.w3.org/2000/svg">
<path fill-rule="evenodd" clip-rule="evenodd" d="M8 16C12.3765 16 16 12.3765 16 8C16 3.63137 12.3686 0 7.99216 0C3.62353 0 0 3.63137 0 8C0 12.3765 3.63137 16 8 16ZM7.99216 9.17647C7.57647 9.17647 7.34902 8.93333 7.33333 8.51765L7.22353 4.64314C7.20784 4.21176 7.53725 3.90588 7.98431 3.90588C8.42353 3.90588 8.76863 4.21961 8.75294 4.65098L8.63529 8.51765C8.61961 8.94118 8.39216 9.17647 7.99216 9.17647ZM7.99216 12.0627C7.53726 12.0627 7.11373 11.702 7.11373 11.2157C7.11373 10.7294 7.52941 10.3686 7.99216 10.3686C8.4549 10.3686 8.87059 10.7216 8.87059 11.2157C8.87059 11.7098 8.44706 12.0627 7.99216 12.0627Z" fill="#1A1A1A"/>
</svg>
