<svg width="24" height="20" viewBox="0 0 24 20" fill="none" xmlns="http://www.w3.org/2000/svg">
<path fill-rule="evenodd" clip-rule="evenodd" d="M23.9069 8.39983L21.4284 4.06482C21.3438 3.91676 21.2122 3.80994 21.062 3.75428C21.0613 3.75404 21.0609 3.75371 21.0603 3.75352L12.3185 0.543031C12.1635 0.486098 11.9936 0.485676 11.8383 0.541669L2.9434 3.75216C2.94317 3.75226 2.94303 3.75244 2.94279 3.75254C2.7905 3.80769 2.65714 3.91526 2.57159 4.06477L0.093026 8.39983C-0.00878648 8.57795 -0.0280521 8.79169 0.0402917 8.98517C0.108635 9.17866 0.257745 9.33269 0.448667 9.40695L2.47854 10.1966V15.5849C2.47854 15.882 2.6645 16.1472 2.9434 16.2478L11.7706 19.4339C11.8607 19.4759 11.9607 19.5 12.0665 19.5C12.0681 19.5 12.0696 19.4998 12.0711 19.4998C12.073 19.4998 12.0747 19.5 12.0765 19.5C12.1572 19.5 12.2378 19.4861 12.3148 19.4583L21.2097 16.2478C21.4886 16.1472 21.6745 15.882 21.6745 15.5849V10.137L23.5513 9.40695C23.7422 9.33269 23.8914 9.17866 23.9597 8.98517C24.0281 8.79169 24.0088 8.57795 23.9069 8.39983ZM12.0745 1.95427L18.7784 4.41633L12.0647 6.89135L5.25101 4.41713L12.0745 1.95427ZM3.49789 5.27938L11.0359 8.01666L9.1453 11.2783L1.71954 8.38968L3.49789 5.27938ZM3.88479 10.7436L9.19681 12.81C9.28006 12.8424 9.36608 12.8579 9.45106 12.8579C9.69542 12.8579 9.93022 12.7297 10.0593 12.5071L11.3634 10.2573V17.7891L3.88479 15.0898V10.7436ZM20.2683 15.0898L12.7696 17.7963V10.3788L13.933 12.4934C14.103 12.8024 14.475 12.9377 14.8032 12.81L20.2683 10.6841V15.0898ZM14.8676 11.2733L13.0775 8.01957L20.5036 5.28192L22.2804 8.38968L14.8676 11.2733Z" fill="#1A1A1A"/>
</svg>
