<svg width="20" height="18" viewBox="0 0 20 18" fill="none" xmlns="http://www.w3.org/2000/svg">
<path fill-rule="evenodd" clip-rule="evenodd" d="M16.859 18C18.9563 18 20 16.9105 20 14.7525V3.24746C20 1.08947 18.9563 0 16.859 0H3.15103C1.05369 0 0 1.07899 0 3.24746V14.7525C0 16.921 1.05369 18 3.15103 18H16.859ZM16.9895 16.3134H3.0005C2.10738 16.3134 1.61565 15.8211 1.61565 14.8468V4.96826C1.61565 4.0045 2.10738 3.50167 3.0005 3.50167H16.9895C17.8826 3.50167 18.3843 4.0045 18.3843 4.96826V14.8468C18.3843 15.8211 17.8826 16.3134 16.9895 16.3134ZM8.63021 7.26243C8.98143 7.26243 9.10186 7.15768 9.10186 6.79103V6.17297C9.10186 5.80632 8.98143 5.69108 8.63021 5.69108H8.03813C7.6869 5.69108 7.56648 5.80632 7.56648 6.17297V6.79103C7.56648 7.15768 7.6869 7.26243 8.03813 7.26243H8.63021ZM11.9619 7.26243C12.3131 7.26243 12.4335 7.15768 12.4335 6.79103V6.17297C12.4335 5.80632 12.3131 5.69108 11.9619 5.69108H11.3798C11.0186 5.69108 10.9082 5.80632 10.9082 6.17297V6.79103C10.9082 7.15768 11.0186 7.26243 11.3798 7.26243H11.9619ZM15.3036 7.26243C15.6548 7.26243 15.7652 7.15768 15.7652 6.79103V6.17297C15.7652 5.80632 15.6548 5.69108 15.3036 5.69108H14.7115C14.3603 5.69108 14.2398 5.80632 14.2398 6.17297V6.79103C14.2398 7.15768 14.3603 7.26243 14.7115 7.26243H15.3036ZM5.29854 10.688C5.64977 10.688 5.76016 10.5832 5.76016 10.2166V9.59851C5.76016 9.23186 5.64977 9.1271 5.29854 9.1271H4.70647C4.35524 9.1271 4.23482 9.23186 4.23482 9.59851V10.2166C4.23482 10.5832 4.35524 10.688 4.70647 10.688H5.29854ZM8.63021 10.688C8.98143 10.688 9.10186 10.5832 9.10186 10.2166V9.59851C9.10186 9.23186 8.98143 9.1271 8.63021 9.1271H8.03813C7.6869 9.1271 7.56648 9.23186 7.56648 9.59851V10.2166C7.56648 10.5832 7.6869 10.688 8.03813 10.688H8.63021ZM11.9619 10.688C12.3131 10.688 12.4335 10.5832 12.4335 10.2166V9.59851C12.4335 9.23186 12.3131 9.1271 11.9619 9.1271H11.3798C11.0186 9.1271 10.9082 9.23186 10.9082 9.59851V10.2166C10.9082 10.5832 11.0186 10.688 11.3798 10.688H11.9619ZM15.3036 10.688C15.6548 10.688 15.7652 10.5832 15.7652 10.2166V9.59851C15.7652 9.23186 15.6548 9.1271 15.3036 9.1271H14.7115C14.3603 9.1271 14.2398 9.23186 14.2398 9.59851V10.2166C14.2398 10.5832 14.3603 10.688 14.7115 10.688H15.3036ZM5.29854 14.124C5.64977 14.124 5.76016 14.0088 5.76016 13.6421V13.0241C5.76016 12.6574 5.64977 12.5526 5.29854 12.5526H4.70647C4.35524 12.5526 4.23482 12.6574 4.23482 13.0241V13.6421C4.23482 14.0088 4.35524 14.124 4.70647 14.124H5.29854ZM8.63021 14.124C8.98143 14.124 9.10186 14.0088 9.10186 13.6421V13.0241C9.10186 12.6574 8.98143 12.5526 8.63021 12.5526H8.03813C7.6869 12.5526 7.56648 12.6574 7.56648 13.0241V13.6421C7.56648 14.0088 7.6869 14.124 8.03813 14.124H8.63021ZM11.9619 14.124C12.3131 14.124 12.4335 14.0088 12.4335 13.6421V13.0241C12.4335 12.6574 12.3131 12.5526 11.9619 12.5526H11.3798C11.0186 12.5526 10.9082 12.6574 10.9082 13.0241V13.6421C10.9082 14.0088 11.0186 14.124 11.3798 14.124H11.9619Z" fill="#1A1A1A"/>
</svg>
