<svg width="22" height="22" viewBox="0 0 22 22" fill="none" xmlns="http://www.w3.org/2000/svg">
<path fill-rule="evenodd" clip-rule="evenodd" d="M20.4167 2.21476L20.4452 2.37803L21.9402 11.8093C22.2212 13.5816 21.5112 14.6298 19.8183 14.9528L19.6567 14.9809L19.25 15.0453V19.2214C19.25 21.0177 18.3845 21.943 16.6615 21.9974L16.4975 22H2.7525C0.967441 22 0.0561052 21.1291 0.00251194 19.3872L0 19.2214V9.6626C0 8.26583 0.518333 7.39055 1.56252 7.04447L1.69157 7.00514L1.43527 5.38625C1.15431 3.61394 1.85481 2.55863 3.5551 2.23399L3.71743 2.2057L17.291 0.0577541C18.9906 -0.211196 20.0247 0.459838 20.384 2.05728L20.4167 2.21476ZM17.8387 12.5402H1.41134V19.1405C1.41134 20.0332 1.85064 20.508 2.65298 20.5493L2.77006 20.5523H16.48C17.3 20.5523 17.7925 20.118 17.8356 19.2652L17.8387 19.1405V12.5402ZM5.9345 14.5004C6.41937 14.5004 6.75014 14.8166 6.7896 15.271L6.79356 15.3637V17.0273C6.79356 17.5078 6.49309 17.846 6.02938 17.8865L5.9345 17.8905H3.78685C3.30198 17.8905 2.9712 17.5823 2.93175 17.1214L2.92778 17.0273V15.3637C2.92778 14.8916 3.22826 14.546 3.69197 14.5046L3.78685 14.5004H5.9345ZM19.5015 5.4377L10.4163 6.87499H16.4975C18.2741 6.87499 19.1934 7.75437 19.2475 9.49672L19.25 9.66259V13.5802L19.4129 13.5552C20.2227 13.4271 20.6412 12.9217 20.5503 12.0735L20.5339 11.95L19.5015 5.4377ZM16.48 8.32278H2.77006C1.93332 8.32278 1.45599 8.76522 1.41432 9.61882L1.41134 9.74356V10.4989H17.8387V9.74356C17.8387 8.85087 17.3834 8.36785 16.5949 8.32578L16.48 8.32278ZM17.6141 1.47391L17.5002 1.4889L3.96124 3.63137C3.13493 3.76213 2.73276 4.27326 2.82512 5.12198L2.84169 5.24552L2.95983 5.99079L19.1823 3.42367L19.0642 2.67839C18.9315 1.84166 18.4509 1.43392 17.7299 1.46531L17.6141 1.47391Z" fill="#1A1A1A"/>
</svg>
