<svg width="14" height="12" viewBox="0 0 14 12" fill="none" xmlns="http://www.w3.org/2000/svg">
<path fill-rule="evenodd" clip-rule="evenodd" d="M5.55511 12C6.06012 12 6.49499 11.7759 6.80361 11.3651L13.6493 1.89212C13.8457 1.63071 14 1.33195 14 1.04564C14 0.410788 13.3828 0 12.7094 0C12.2745 0 11.8958 0.211618 11.6012 0.634855L5.499 9.27386L2.34269 5.73859C2.02004 5.36515 1.66934 5.21577 1.2485 5.21577C0.561122 5.21577 0 5.70124 0 6.3361C0 6.63485 0.126253 6.92116 0.364729 7.18257L4.23647 11.3776C4.62926 11.8008 5.03607 12 5.55511 12Z" fill="#1A1A1A"/>
</svg>
