<svg width="20" height="18" viewBox="0 0 20 18" fill="none" xmlns="http://www.w3.org/2000/svg">
<path fill-rule="evenodd" clip-rule="evenodd" d="M5.70655 18C6.22122 18 6.60045 17.7479 7.22348 17.1986L10.3205 14.4791H15.7562C18.474 14.4791 20 12.9123 20 10.2379V4.24123C20 1.56682 18.474 0 15.7562 0H4.24379C1.53499 0 0 1.56682 0 4.24123V10.2379C0 12.9213 1.58014 14.4791 4.18059 14.4791H4.55079V16.6853C4.55079 17.4867 4.97517 18 5.70655 18ZM6.15801 15.9829V13.4166C6.15801 12.8853 5.92325 12.6782 5.41761 12.6782H4.307C2.60948 12.6782 1.79684 11.8227 1.79684 10.1839V4.29526C1.79684 2.6564 2.60948 1.80095 4.307 1.80095H15.702C17.3905 1.80095 18.2032 2.6564 18.2032 4.29526V10.1839C18.2032 11.8227 17.3905 12.6782 15.702 12.6782H10.2212C9.67043 12.6782 9.39955 12.7682 9.02032 13.1645L6.15801 15.9829ZM6.96163 9.85972C7.90068 9.85972 9.63431 8.74313 9.63431 6.61801C9.63431 5.39336 8.84876 4.43886 7.65688 4.43886C6.58239 4.43886 5.77878 5.19526 5.77878 6.25782C5.77878 7.27536 6.41986 8.04976 7.41309 8.04976C7.80135 8.04976 8.17156 7.96872 8.40632 7.68957H8.51467C8.22573 8.37393 7.57562 8.85118 6.91648 9.01327C6.60948 9.08531 6.51016 9.23839 6.51016 9.4455C6.51016 9.68863 6.69977 9.85972 6.96163 9.85972ZM11.7111 9.85972C12.6501 9.85972 14.3837 8.74313 14.3837 6.61801C14.3837 5.39336 13.5982 4.43886 12.4063 4.43886C11.3318 4.43886 10.5282 5.19526 10.5282 6.25782C10.5282 7.27536 11.1693 8.04976 12.1625 8.04976C12.5598 8.04976 12.93 7.96872 13.1648 7.68957H13.2641C12.9752 8.37393 12.3251 8.85118 11.6659 9.01327C11.3679 9.08531 11.2596 9.23839 11.2596 9.4455C11.2596 9.68863 11.4492 9.85972 11.7111 9.85972Z" fill="#1A1A1A"/>
</svg>
