<svg width="16" height="12" viewBox="0 0 16 12" fill="none" xmlns="http://www.w3.org/2000/svg">
<path fill-rule="evenodd" clip-rule="evenodd" d="M11.7041 12C11.8993 12 12.0883 11.9242 12.2269 11.7788L15.7795 8.15798C15.918 8.01896 15.9999 7.82306 15.9999 7.65245C15.9999 7.23539 15.7102 6.95735 15.3196 6.95735C15.1118 6.95735 14.9543 7.03949 14.8283 7.16588L13.2662 8.77093L12.3403 9.87678L12.4032 8.41706V0.71406C12.4032 0.290679 12.1198 0 11.7041 0C11.2883 0 11.0049 0.290679 11.0049 0.71406V8.41706L11.0679 9.87678L10.1419 8.77093L8.5798 7.16588C8.45382 7.03949 8.30265 6.95735 8.09479 6.95735C7.69795 6.95735 7.4082 7.23539 7.4082 7.65245C7.4082 7.82306 7.49009 8.01896 7.62867 8.15798L11.1813 11.7788C11.3261 11.9242 11.5151 12 11.7041 12Z" fill="#1A1A1A"/>
<path fill-rule="evenodd" clip-rule="evenodd" d="M4.29586 12C4.70529 12 4.99504 11.7093 4.99504 11.2859V3.58294L4.93205 2.12322L5.858 3.22907L7.42013 4.83412C7.54611 4.96051 7.69728 5.04265 7.90515 5.04265C8.30198 5.04265 8.58543 4.76461 8.58543 4.34755C8.58543 4.17694 8.50984 3.98104 8.37127 3.84202L4.81238 0.221169C4.6738 0.0758294 4.48483 0 4.29586 0C4.1006 0 3.91163 0.0758294 3.77305 0.221169L0.220462 3.84202C0.081886 3.98104 0 4.17694 0 4.34755C0 4.76461 0.283451 5.04265 0.680283 5.04265C0.888148 5.04265 1.04562 4.96051 1.1716 4.83412L2.72743 3.22907L3.65967 2.12322L3.59038 3.58294V11.2859C3.59038 11.7093 3.88014 12 4.29586 12Z" fill="#1A1A1A"/>
</svg>
