<svg width="16" height="14" viewBox="0 0 16 14" fill="none" xmlns="http://www.w3.org/2000/svg">
<path fill-rule="evenodd" clip-rule="evenodd" d="M10.8834 4.10646C11.7194 4.10646 12.4393 3.56738 12.7412 2.8222H15.2879C15.6749 2.8222 16 2.47339 16 2.05323C16 1.63307 15.6749 1.29219 15.2879 1.29219H12.7412C12.447 0.539071 11.7271 0 10.8834 0C10.0397 0 9.31979 0.539071 9.02564 1.29219H0.735365C0.325109 1.29219 0 1.63307 0 2.05323C0 2.47339 0.325109 2.8222 0.735365 2.8222H9.02564C9.32753 3.56738 10.0474 4.10646 10.8834 4.10646ZM10.8834 3.02831C10.3493 3.02831 9.9313 2.5923 9.9313 2.05323C9.9313 1.4983 10.3493 1.07022 10.8834 1.07022C11.4253 1.07022 11.8355 1.4983 11.8355 2.05323C11.8355 2.5923 11.4253 3.02831 10.8834 3.02831ZM5.20948 9.05323C6.04548 9.05323 6.76536 8.52208 7.06725 7.76104H15.2646C15.6749 7.76104 16 7.42016 16 7C16 6.57984 15.6749 6.23896 15.2646 6.23896H7.06725C6.76536 5.48584 6.04548 4.9547 5.20948 4.9547C4.36575 4.9547 3.64586 5.48584 3.34398 6.23896H0.712143C0.325109 6.23896 0 6.57984 0 7C0 7.41223 0.325109 7.76104 0.712143 7.76104H3.34398C3.64586 8.52208 4.36575 9.05323 5.20948 9.05323ZM5.20948 7.98301C4.67537 7.98301 4.24964 7.547 4.24964 7C4.24964 6.44507 4.67537 6.02492 5.20948 6.02492C5.74359 6.02492 6.16159 6.44507 6.16159 7C6.16159 7.547 5.74359 7.98301 5.20948 7.98301ZM10.8834 14C11.7271 14 12.447 13.4609 12.7412 12.7078H15.2879C15.6749 12.7078 16 12.3669 16 11.9468C16 11.5187 15.6749 11.1857 15.2879 11.1857H12.7412C12.447 10.4326 11.7271 9.89355 10.8834 9.89355C10.0474 9.89355 9.31979 10.4326 9.02564 11.1857H0.735365C0.325109 11.1857 0 11.5266 0 11.9468C0 12.359 0.325109 12.7078 0.735365 12.7078H9.02564C9.31979 13.4609 10.0397 14 10.8834 14ZM10.8834 12.9219C10.3493 12.9219 9.9313 12.4858 9.9313 11.9468C9.9313 11.3918 10.3493 10.9717 10.8834 10.9717C11.4253 10.9717 11.8355 11.3918 11.8355 11.9468C11.8355 12.4858 11.4253 12.9219 10.8834 12.9219Z" fill="#1A1A1A"/>
</svg>
