<svg width="20" height="20" viewBox="0 0 20 20" fill="none" xmlns="http://www.w3.org/2000/svg">
<path d="M16.875 0.703125H3.125C1.40182 0.703125 0 2.10495 0 3.82812V14.7656C0 16.4888 1.40182 17.8906 3.125 17.8906H10.5469C10.8449 17.8906 11.1169 17.7211 11.2483 17.4535C11.3795 17.186 11.3472 16.8669 11.1647 16.6313L9.12125 13.9903L14.785 6.78619L18.4375 11.1435V12.4609C18.4375 12.8925 18.7872 13.2422 19.2188 13.2422C19.6503 13.2422 20 12.8925 20 12.4609V3.82812C20 2.10495 18.5982 0.703125 16.875 0.703125V0.703125ZM15.3644 5.04501C15.2132 4.86465 14.989 4.76166 14.7534 4.76578C14.518 4.76944 14.2969 4.879 14.1515 5.06409L8.13522 12.7162L6.08658 10.0688C5.93857 9.87747 5.71045 9.76562 5.46875 9.76562C5.46844 9.76562 5.46799 9.76562 5.46768 9.76562C5.22552 9.76593 4.9971 9.87854 4.84955 10.0705L3.13019 12.3056C2.86713 12.6477 2.93106 13.1381 3.27301 13.4012C3.61511 13.6644 4.10553 13.6003 4.36859 13.2584L5.47058 11.8259L8.95447 16.3281H3.125C2.26349 16.3281 1.5625 15.6271 1.5625 14.7656V3.82812C1.5625 2.96661 2.26349 2.26562 3.125 2.26562H16.875C17.7365 2.26562 18.4375 2.96661 18.4375 3.82812V8.71124L15.3644 5.04501ZM5.46875 3.51562C4.17633 3.51562 3.125 4.56696 3.125 5.85938C3.125 7.15179 4.17633 8.20312 5.46875 8.20312C6.76117 8.20312 7.8125 7.15179 7.8125 5.85938C7.8125 4.56696 6.76117 3.51562 5.46875 3.51562ZM5.46875 6.64062C5.03799 6.64062 4.6875 6.29013 4.6875 5.85938C4.6875 5.42862 5.03799 5.07812 5.46875 5.07812C5.89951 5.07812 6.25 5.42862 6.25 5.85938C6.25 6.29013 5.89951 6.64062 5.46875 6.64062ZM20 15.5859C20 16.0175 19.6503 16.3672 19.2188 16.3672H17.0703V18.5156C17.0703 18.9471 16.7206 19.2969 16.2891 19.2969C15.8575 19.2969 15.5078 18.9471 15.5078 18.5156V16.3672H13.3594C12.9279 16.3672 12.5781 16.0175 12.5781 15.5859C12.5781 15.1544 12.9279 14.8047 13.3594 14.8047H15.5078V12.6562C15.5078 12.2247 15.8575 11.875 16.2891 11.875C16.7206 11.875 17.0703 12.2247 17.0703 12.6562V14.8047H19.2188C19.6503 14.8047 20 15.1544 20 15.5859Z" fill="#1A1A1A"/>
</svg>
