<svg width="20" height="20" viewBox="0 0 20 20" fill="none" xmlns="http://www.w3.org/2000/svg">
<path fill-rule="evenodd" clip-rule="evenodd" d="M15.5167 20C17.4602 20 18.5193 18.9924 18.5193 17.0687V12.0712C19.4756 11.888 20 11.1552 20 10.0865V7.52163C20 6.2799 19.3111 5.49618 18.0463 5.49618H15.8663C16.4422 4.93639 16.7815 4.20356 16.7815 3.37913C16.7815 1.40458 15.1979 0 13.2134 0C11.7429 0 10.5296 0.804071 9.99486 2.23919C9.46015 0.804071 8.25707 0 6.78663 0C4.79177 0 3.21851 1.40458 3.21851 3.37913C3.21851 4.20356 3.54756 4.93639 4.12339 5.49618H1.95373C0.750643 5.49618 0 6.2799 0 7.52163V10.0865C0 11.1552 0.514139 11.888 1.47044 12.0712V17.0687C1.47044 18.9924 2.53985 20 4.48329 20H15.5167ZM9.15167 5.49618H7.55784C5.86118 5.49618 4.9563 4.50891 4.9563 3.45038C4.9563 2.35115 5.7892 1.69975 6.88946 1.69975C8.15424 1.69975 9.15167 2.66667 9.15167 4.28499V5.49618ZM12.4422 5.49618H10.838V4.28499C10.838 2.66667 11.8458 1.69975 13.1105 1.69975C14.2108 1.69975 15.0334 2.35115 15.0334 3.45038C15.0334 4.50891 14.108 5.49618 12.4422 5.49618ZM9.08997 10.5751H2.37532C1.86118 10.5751 1.65553 10.3613 1.65553 9.85242V7.74555C1.65553 7.23664 1.86118 7.03308 2.37532 7.03308H9.08997V10.5751ZM17.635 10.5751H10.91V7.03308H17.635C18.1491 7.03308 18.3445 7.23664 18.3445 7.74555V9.85242C18.3445 10.3613 18.1491 10.5751 17.635 10.5751ZM9.08997 18.4733H4.46272C3.60925 18.4733 3.12596 17.9949 3.12596 17.1501V12.112H9.08997V18.4733ZM15.527 18.4733H10.91V12.112H16.8638V17.1501C16.8638 17.9949 16.3805 18.4733 15.527 18.4733Z" fill="#1A1A1A"/>
</svg>
