<svg width="22" height="22" viewBox="0 0 22 22" fill="none" xmlns="http://www.w3.org/2000/svg">
<path d="M18.7761 3.22386C16.7142 1.16211 13.978 0.0202147 11.0647 0.00320103C11.0534 0.00281436 11.0421 0.00259954 11.0308 0.00277139C4.96508 -0.0209876 0 4.89 0 11.0011C0 17.0797 4.91915 21.9999 10.9988 21.9999C13.9292 21.9999 16.6948 20.8596 18.7761 18.7785C23.0743 14.4801 23.0749 7.52274 18.7761 3.22386ZM11.6432 20.137V16.1972C12.6451 16.2628 13.6193 16.4811 14.5377 16.8404C13.7921 18.091 12.8129 19.2154 11.6432 20.137ZM11.6432 14.906V11.6456H16.159C16.0757 13.0446 15.7231 14.4165 15.1401 15.6919C14.0352 15.2429 12.8566 14.9761 11.6432 14.906ZM11.6432 10.3567V7.09624C12.8566 7.02621 14.0352 6.75936 15.1402 6.31034C15.7231 7.58577 16.0757 8.95769 16.1591 10.3567H11.6432ZM11.6432 5.80509V1.8653C12.8129 2.78687 13.7921 3.91132 14.5377 5.16192C13.6193 5.52127 12.6451 5.73952 11.6432 5.80509ZM13.2643 1.55884C14.7474 1.91466 16.099 2.61162 17.2314 3.56199C16.7542 3.96254 16.2439 4.31321 15.7073 4.61151C15.0527 3.48946 14.2302 2.45717 13.2643 1.55884ZM10.3543 1.93395V5.80509C9.37786 5.7412 8.42771 5.53248 7.52994 5.18933C8.2592 3.95867 9.21429 2.84934 10.3543 1.93395ZM6.35548 4.64725C5.79501 4.34131 5.26265 3.97873 4.76607 3.56199C5.9279 2.58705 7.32027 1.87849 8.84867 1.53164C7.85981 2.44583 7.01991 3.49995 6.35548 4.64725ZM10.3543 7.09628V10.3567H5.92472C6.00751 8.9683 6.35535 7.60661 6.93046 6.33939C8.01427 6.77074 9.16759 7.02775 10.3543 7.09628ZM10.3543 11.6456V14.906C9.16759 14.9746 8.01427 15.2316 6.9305 15.6629C6.35539 14.3957 6.00755 13.034 5.92476 11.6456H10.3543ZM10.3543 16.1972V20.0684C9.21429 19.153 8.2592 18.0436 7.52994 16.813C8.42771 16.4698 9.37786 16.2611 10.3543 16.1972ZM8.84867 20.4707C7.32027 20.1238 5.9279 19.4153 4.76607 18.4403C5.26265 18.0236 5.79501 17.661 6.35548 17.3551C7.01991 18.5024 7.85981 19.5565 8.84867 20.4707ZM15.7073 17.3908C16.2439 17.6891 16.7542 18.0397 17.2315 18.4403C16.099 19.3907 14.7474 20.0877 13.2643 20.4435C14.2302 19.5452 15.0527 18.5129 15.7073 17.3908ZM16.3023 16.2463C16.9671 14.7986 17.3649 13.2375 17.45 11.6456H20.6867C20.5375 13.9104 19.6089 15.9656 18.1665 17.5443C17.5862 17.0446 16.9619 16.6102 16.3023 16.2463ZM20.6867 10.3567H17.45C17.3649 8.76474 16.9671 7.20365 16.3023 5.75602C16.9619 5.39207 17.5862 4.95767 18.1665 4.45795C19.6089 6.03675 20.5376 8.09192 20.6867 10.3567ZM3.831 4.45795C4.43151 4.97511 5.07953 5.42172 5.76459 5.79327C5.11012 7.23046 4.71816 8.77836 4.63383 10.3567H1.31083C1.45996 8.09192 2.38862 6.03675 3.831 4.45795ZM1.31083 11.6456H4.63383C4.71816 13.2239 5.11012 14.7718 5.76459 16.209C5.07953 16.5806 4.43151 17.0272 3.831 17.5443C2.38862 15.9656 1.45996 13.9104 1.31083 11.6456Z" fill="#1A1A1A"/>
</svg>
