<svg width="20" height="20" viewBox="0 0 20 20" fill="none" xmlns="http://www.w3.org/2000/svg">
<path fill-rule="evenodd" clip-rule="evenodd" d="M10 20C15.4706 20 20 15.4706 20 10C20 4.53922 15.4608 0 9.9902 0C4.52941 0 0 4.53922 0 10C0 15.4706 4.53922 20 10 20ZM10 18.3333C5.37255 18.3333 1.67647 14.6275 1.67647 10C1.67647 5.38235 5.36275 1.66667 9.9902 1.66667C14.6176 1.66667 18.3235 5.38235 18.3333 10C18.3431 14.6275 14.6275 18.3333 10 18.3333ZM9.91176 6.5098C10.6275 6.5098 11.1863 5.94118 11.1863 5.23529C11.1863 4.51961 10.6275 3.95098 9.91176 3.95098C9.20588 3.95098 8.63725 4.51961 8.63725 5.23529C8.63725 5.94118 9.20588 6.5098 9.91176 6.5098ZM12.2745 15.3922C12.6765 15.3922 12.9902 15.1078 12.9902 14.7059C12.9902 14.3235 12.6765 14.0196 12.2745 14.0196H11.0588V9.02941C11.0588 8.5 10.7941 8.14706 10.2941 8.14706H8.45098C8.04902 8.14706 7.73529 8.45098 7.73529 8.83333C7.73529 9.23529 8.04902 9.51961 8.45098 9.51961H9.5V14.0196H8.28431C7.88235 14.0196 7.56863 14.3235 7.56863 14.7059C7.56863 15.1078 7.88235 15.3922 8.28431 15.3922H12.2745Z" fill="#1A1A1A"/>
</svg>
