<svg width="16" height="12" viewBox="0 0 16 12" fill="none" xmlns="http://www.w3.org/2000/svg">
<path fill-rule="evenodd" clip-rule="evenodd" d="M1.09918 2.25099C1.71069 2.25099 2.19836 1.75165 2.19836 1.1255C2.19836 0.507266 1.71069 0 1.09918 0C0.495404 0 0 0.507266 0 1.1255C0 1.75165 0.495404 2.25099 1.09918 2.25099ZM15.2492 1.88639C15.6672 1.88639 16 1.5535 16 1.1255C16 0.69749 15.6749 0.364597 15.2492 0.364597H4.7373C4.32704 0.364597 3.99419 0.69749 3.99419 1.1255C3.99419 1.5535 4.3193 1.88639 4.7373 1.88639H15.2492ZM1.09918 7.1255C1.71069 7.1255 2.19836 6.62616 2.19836 6C2.19836 5.38177 1.71069 4.8745 1.09918 4.8745C0.495404 4.8745 0 5.38177 0 6C0 6.62616 0.495404 7.1255 1.09918 7.1255ZM15.2492 6.7609C15.6672 6.7609 16 6.42801 16 6C16 5.57199 15.6749 5.2391 15.2492 5.2391H4.7373C4.32704 5.2391 3.99419 5.57199 3.99419 6C3.99419 6.42801 4.3193 6.7609 4.7373 6.7609H15.2492ZM1.09918 12C1.71069 12 2.19836 11.5007 2.19836 10.8745C2.19836 10.2563 1.71069 9.74901 1.09918 9.74901C0.495404 9.74901 0 10.2563 0 10.8745C0 11.5007 0.495404 12 1.09918 12ZM15.2492 11.6354C15.6672 11.6354 16 11.3025 16 10.8745C16 10.4465 15.6749 10.1136 15.2492 10.1136H4.7373C4.32704 10.1136 3.99419 10.4465 3.99419 10.8745C3.99419 11.3025 4.3193 11.6354 4.7373 11.6354H15.2492Z" fill="#1A1A1A"/>
</svg>
