<svg width="16" height="20" viewBox="0 0 16 20" fill="none" xmlns="http://www.w3.org/2000/svg">
<path fill-rule="evenodd" clip-rule="evenodd" d="M7.99 0C12.4049 0 16 3.5012 16 7.79512C16 9.37968 15.5084 10.9114 14.578 12.2426L14.4939 12.3597C14.4823 12.3744 14.4715 12.3872 14.461 12.3986L14.4298 12.4295L8.94678 19.5383C8.72279 19.8273 8.36869 20 7.99 20C7.67369 20 7.38304 19.8799 7.14965 19.6718L7.0098 19.5315L1.57322 12.4359C1.53495 12.3985 1.50966 12.3665 1.48484 12.3255L1.455 12.2712L1.27871 12.0155C0.556991 10.9212 0.133044 9.69896 0.0266455 8.41968L0.00667281 8.09871L0 7.77561C0 3.48832 3.58832 0 7.99 0ZM7.99 1.65854C4.51698 1.65854 1.68 4.40888 1.68 7.79512C1.68 9.04632 2.08056 10.2669 2.80678 11.2909L2.82739 11.3118L2.873 11.3785L7.99 18.042L13.157 11.3249L13.1643 11.3053C13.8457 10.3431 14.2368 9.22814 14.293 8.08219L14.3 7.79512C14.3 4.41473 11.4689 1.65854 7.99 1.65854ZM8 10C9.38071 10 10.5 8.88071 10.5 7.5C10.5 6.11929 9.38071 5 8 5C6.61929 5 5.5 6.11929 5.5 7.5C5.5 8.88071 6.61929 10 8 10Z" fill="#1A1A1A"/>
</svg>
