<svg width="20" height="15" viewBox="0 0 20 15" fill="none" xmlns="http://www.w3.org/2000/svg">
<path fill-rule="evenodd" clip-rule="evenodd" d="M17.4275 15C19.058 15 20 14.0946 20 12.3012V2.69008C20 0.905398 19.0489 0 17.1558 0H2.57246C0.942029 0 0 0.896692 0 2.69008V12.3012C0 14.1033 0.951087 15 2.8442 15H17.4275ZM10.0181 8.4794C9.6558 8.4794 9.30254 8.31399 8.9221 7.93964L2.08333 1.45386C2.28261 1.37551 2.51812 1.33198 2.78986 1.33198H17.2101C17.4909 1.33198 17.7355 1.37551 17.9348 1.47127L11.1141 7.93964C10.7246 8.31399 10.3714 8.4794 10.0181 8.4794ZM1.39493 12.4492C1.38587 12.4057 1.38587 12.3535 1.38587 12.3012V2.60302L6.5942 7.51306L1.39493 12.4492ZM18.6141 12.4231L13.442 7.51306L18.6141 2.62914V12.4231ZM17.2101 13.668H2.78986C2.53623 13.668 2.30978 13.6332 2.12862 13.5548L7.54529 8.40975L8.13406 8.96692C8.76812 9.56761 9.375 9.82008 10.0181 9.82008C10.6522 9.82008 11.2681 9.56761 11.9022 8.96692L12.4909 8.40975L17.8986 13.5461C17.6993 13.6332 17.4728 13.668 17.2101 13.668Z" fill="#1A1A1A"/>
</svg>
