<svg width="22" height="20" viewBox="0 0 22 20" fill="none" xmlns="http://www.w3.org/2000/svg">
<path fill-rule="evenodd" clip-rule="evenodd" d="M14.3317 20C14.6851 20 15.0385 19.9106 15.3413 19.7417L20.6216 16.7909C21.2274 16.463 21.5 15.9861 21.5 15.3204V1.53999C21.5 0.804769 21.0861 0.397417 20.3591 0.397417C20.1067 0.397417 19.8442 0.4769 19.5111 0.655738L14.1601 3.58669L8.67789 0.278192C8.3649 0.0993542 8.01154 0 7.65817 0C7.29471 0 6.93125 0.0993542 6.61827 0.278192L1.36827 3.21908C0.772596 3.55688 0.5 4.03378 0.5 4.69945V18.46C0.5 19.1952 0.913942 19.6125 1.64087 19.6125C1.89327 19.6125 2.15577 19.5231 2.47885 19.3443L7.61779 16.622L13.201 19.7019C13.5644 19.9006 13.9582 20 14.3317 20ZM2.25673 17.5559C2.17596 17.5559 2.12548 17.4963 2.12548 17.3969V5.08694C2.12548 4.84848 2.21635 4.67958 2.45865 4.54049L6.59808 2.15599C6.72933 2.08644 6.84038 2.02683 6.96154 1.95728V15.0422L2.40817 17.5062C2.35769 17.5261 2.30721 17.5559 2.25673 17.5559ZM13.413 17.8639C13.2716 17.7844 13.1202 17.7149 12.9688 17.6354L8.58702 15.2012V2.16592C8.68798 2.22553 8.80913 2.28515 8.9101 2.34476L13.413 5.04719V17.8639ZM15.0385 18.0427V4.94784L19.5918 2.50373C19.6423 2.47392 19.6928 2.45405 19.7332 2.45405C19.824 2.45405 19.8745 2.51366 19.8745 2.61302V14.923C19.8745 15.1714 19.7736 15.3403 19.5413 15.4794L15.4928 17.7943C15.3413 17.8838 15.1899 17.9732 15.0385 18.0427Z" fill="#1A1A1A"/>
</svg>
