<svg width="14" height="14" viewBox="0 0 14 14" fill="none" xmlns="http://www.w3.org/2000/svg">
<path fill-rule="evenodd" clip-rule="evenodd" d="M7.43663 14C7.96337 14 8.24752 13.5077 8.49703 12.9599L13.8059 1.51857C13.9376 1.24814 14 1.00545 14 0.804359C14 0.346706 13.6604 0 13.196 0C12.9881 0 12.7455 0.055473 12.4752 0.187221L1.0396 5.49183C0.512871 5.73452 0 6.02575 0 6.55968C0 7.09361 0.512871 7.39871 1.19208 7.39871L6.43861 7.41951C6.53564 7.41951 6.58416 7.46112 6.58416 7.56513L6.59802 12.8004C6.59802 13.4591 6.88911 14 7.43663 14Z" fill="#1A1A1A"/>
</svg>
