<svg width="20" height="20" viewBox="0 0 20 20" fill="none" xmlns="http://www.w3.org/2000/svg">
<path fill-rule="evenodd" clip-rule="evenodd" d="M14.8671 20C16.6564 20 17.8323 19.5194 18.865 18.3538C18.9468 18.272 19.0286 18.18 19.1002 18.0982C19.7137 17.4131 20 16.7383 20 16.0941C20 15.3579 19.5706 14.6729 18.6605 14.0389L15.6851 11.9735C14.7648 11.3396 13.6912 11.268 12.8323 12.1167L12.045 12.904C11.8098 13.1391 11.6053 13.1494 11.3804 13.0062C10.8282 12.6586 9.7137 11.6872 8.95706 10.9306C8.15951 10.1433 7.39264 9.26394 6.98364 8.61978C6.85072 8.38461 6.86094 8.19033 7.09611 7.95516L7.87321 7.16785C8.73211 6.30897 8.66053 5.22514 8.02658 4.31513L5.96115 1.33971C5.3272 0.429698 4.64213 0.0104804 3.90593 0.000255573C3.26176 -0.00996924 2.58691 0.28655 1.90184 0.90004C1.80982 0.981838 1.72802 1.05341 1.64622 1.12499C0.480573 2.16792 0 3.34377 0 5.11266C0 8.03696 1.79959 11.5952 5.10225 14.8978C8.38446 18.18 11.953 20 14.8671 20ZM14.8773 18.4254C12.2699 18.4765 8.92638 16.4724 6.27812 13.8344C3.60941 11.176 1.51329 7.71999 1.56442 5.11266C1.58487 3.98793 1.98364 3.01658 2.78119 2.32129C2.85276 2.25994 2.90389 2.20882 2.97546 2.15769C3.28221 1.89185 3.60941 1.7487 3.90593 1.7487C4.20245 1.7487 4.4683 1.86117 4.66258 2.16792L6.64622 5.14334C6.86094 5.46031 6.88139 5.81818 6.56442 6.13515L5.66462 7.03493C4.9591 7.74044 5.01022 8.59933 5.52147 9.28439C6.10429 10.0717 7.11656 11.2169 7.90389 11.994C8.68098 12.7813 9.9182 13.8856 10.7157 14.4786C11.4008 14.9898 12.2597 15.041 12.9652 14.3355L13.865 13.4357C14.182 13.1187 14.5297 13.1391 14.8569 13.3436L17.8323 15.3273C18.1391 15.5318 18.2515 15.7874 18.2515 16.0941C18.2515 16.3906 18.1084 16.7178 17.8425 17.0246C17.7812 17.0962 17.7403 17.1473 17.6789 17.2188C16.9836 18.0164 16.0123 18.4049 14.8773 18.4254Z" fill="#1A1A1A"/>
</svg>
