<svg width="14" height="14" viewBox="0 0 14 14" fill="none" xmlns="http://www.w3.org/2000/svg">
<path fill-rule="evenodd" clip-rule="evenodd" d="M7 14C7.52688 14 7.9534 13.5723 7.9534 13.087V7.93772H13.055C13.5651 7.93772 14 7.51821 14 7C14 6.49001 13.5651 6.06228 13.055 6.06228H7.9534V0.913043C7.9534 0.419506 7.52688 0 7 0C6.48148 0 6.0466 0.419506 6.0466 0.913043V6.06228H0.945042C0.451613 6.06228 0 6.49001 0 7C0 7.51821 0.451613 7.93772 0.945042 7.93772H6.0466V13.087C6.0466 13.5723 6.48148 14 7 14Z" fill="#1A1A1A"/>
</svg>
