<svg width="16" height="16" viewBox="0 0 16 16" fill="none" xmlns="http://www.w3.org/2000/svg">
<path fill-rule="evenodd" clip-rule="evenodd" d="M8 16C12.3765 16 16 12.3765 16 8C16 3.63137 12.3686 0 7.99216 0C3.62353 0 0 3.63137 0 8C0 12.3765 3.63137 16 8 16ZM7.85098 9.70196C7.42745 9.70196 7.19216 9.48235 7.19216 9.05882V8.94902C7.19216 8.14118 7.63137 7.70196 8.21961 7.29412C8.94902 6.8 9.29412 6.51765 9.29412 5.95294C9.29412 5.33333 8.80784 4.9098 8.0549 4.9098C7.50588 4.9098 7.0902 5.18431 6.83922 5.63137C6.57255 5.9451 6.50196 6.18824 6.03137 6.18824C5.75686 6.18824 5.46667 5.99216 5.46667 5.62353C5.46667 5.48235 5.4902 5.34902 5.52941 5.21569C5.74118 4.4549 6.6902 3.79608 8.10196 3.79608C9.50588 3.79608 10.7216 4.52549 10.7216 5.8902C10.7216 6.87843 10.149 7.34902 9.35686 7.8902C8.78431 8.27451 8.5098 8.55686 8.5098 9.01961V9.12157C8.5098 9.44314 8.26667 9.70196 7.85098 9.70196ZM7.87451 12.0627C7.42745 12.0627 6.99608 11.702 6.99608 11.2157C6.99608 10.7294 7.41961 10.3686 7.87451 10.3686C8.33725 10.3686 8.76078 10.7216 8.76078 11.2157C8.76078 11.7098 8.32941 12.0627 7.87451 12.0627Z" fill="#1A1A1A"/>
</svg>
