<svg width="20" height="20" viewBox="0 0 20 20" fill="none" xmlns="http://www.w3.org/2000/svg">
<path fill-rule="evenodd" clip-rule="evenodd" d="M10 0C15.5228 0 20 4.47715 20 10C20 15.5228 15.5228 20 10 20C4.47715 20 0 15.5228 0 10C0 4.47715 4.47715 0 10 0ZM10 1.7C5.41604 1.7 1.7 5.41604 1.7 10C1.7 14.584 5.41604 18.3 10 18.3C14.584 18.3 18.3 14.584 18.3 10C18.3 5.41604 14.584 1.7 10 1.7ZM8.68468 8.74397C8.68468 8.33309 8.36201 8 7.96396 8C7.56592 8 7.24324 8.33309 7.24324 8.74397L7.23803 8.87495C7.16501 9.77112 6.32531 10.2319 4.72072 10.2319C4.32268 10.2319 4 10.565 4 10.9759C4 11.3868 4.32268 11.7198 4.72072 11.7198C7.09284 11.7198 8.68468 10.7632 8.68468 8.74397ZM13.4596 14.5668C12.5424 13.8327 11.3216 13.4193 10.0289 13.4193C8.70279 13.4193 7.45278 13.8544 6.52923 14.6231C6.20678 14.8915 6.15615 15.3789 6.41615 15.7117C6.67615 16.0446 7.14832 16.0968 7.47077 15.8285C8.1216 15.2868 9.03823 14.9677 10.0289 14.9677C10.9953 14.9677 11.8918 15.2712 12.5404 15.7904C12.8677 16.0524 13.3389 15.9909 13.5927 15.653C13.8465 15.3151 13.7869 14.8288 13.4596 14.5668ZM12.036 8C11.638 8 11.3153 8.33309 11.3153 8.74397C11.3153 10.7632 12.9072 11.7198 15.2793 11.7198C15.6773 11.7198 16 11.3868 16 10.9759C16 10.565 15.6773 10.2319 15.2793 10.2319C13.5983 10.2319 12.7568 9.72619 12.7568 8.74397C12.7568 8.33309 12.4341 8 12.036 8Z" fill="#1A1A1A"/>
</svg>
