<svg width="18" height="20" viewBox="0 0 18 20" fill="none" xmlns="http://www.w3.org/2000/svg">
<path fill-rule="evenodd" clip-rule="evenodd" d="M9 20C9.17329 20 9.45487 19.934 9.72563 19.78C15.8881 16.2706 18 14.7855 18 10.7701V4.57646C18 3.42134 17.5126 3.05831 16.5921 2.66227C15.3141 2.12321 11.1877 0.616062 9.90975 0.165017C9.61733 0.0660066 9.30325 0 9 0C8.69675 0 8.38267 0.0880088 8.10108 0.165017C6.8231 0.539054 2.68592 2.13421 1.40794 2.66227C0.498195 3.0473 0 3.42134 0 4.57646V10.7701C0 14.7855 2.12274 16.2596 8.27437 19.78C8.55596 19.934 8.82671 20 9 20ZM9 17.9978C8.82671 17.9978 8.65343 17.9318 8.32852 17.7338C3.32491 14.6535 1.72202 13.7514 1.72202 10.363V4.90649C1.72202 4.53245 1.787 4.38944 2.09025 4.26843C3.73646 3.60836 6.93141 2.51925 8.56679 1.85919C8.74007 1.79318 8.88087 1.76018 9 1.76018C9.11913 1.76018 9.25993 1.79318 9.43321 1.85919C11.0686 2.51925 14.2419 3.68537 15.9206 4.26843C16.213 4.37844 16.278 4.53245 16.278 4.90649V10.363C16.278 13.7514 14.6751 14.6425 9.67148 17.7338C9.3574 17.9318 9.17329 17.9978 9 17.9978ZM11.6968 13.7294C12.4549 13.7294 12.8123 13.3443 12.8123 12.5193V9.36194C12.8123 8.63586 12.5415 8.26183 11.9567 8.17382V7.9758C11.9567 5.9516 10.7653 4.58746 9 4.58746C7.23466 4.58746 6.04332 5.9516 6.04332 7.9758V8.18482C5.46931 8.27283 5.19856 8.64686 5.19856 9.36194V12.5193C5.19856 13.3443 5.55596 13.7294 6.30325 13.7294H11.6968ZM7.16967 8.16282V7.85479C7.16967 6.55666 7.90614 5.69857 9 5.69857C10.0939 5.69857 10.8303 6.55666 10.8303 7.85479V8.15182L7.16967 8.16282Z" fill="#1A1A1A"/>
</svg>
