<svg width="20" height="20" viewBox="0 0 20 20" fill="none" xmlns="http://www.w3.org/2000/svg">
<path fill-rule="evenodd" clip-rule="evenodd" d="M10.4276 0C13.313 0 15.6755 2.31001 15.7891 5.17258L15.7933 5.38828L15.7927 6.03515L16.5481 6.03598C17.2425 6.03598 17.8231 6.53198 17.9501 7.18614L17.9694 7.31899L17.9759 7.45544V10.0987C17.9759 10.835 17.4083 11.4426 16.6854 11.5116L16.5481 11.5181L15.0083 11.518L14.9021 11.6772C14.5514 12.1743 14.1126 12.6419 13.6121 13.0618L13.3568 13.2677L13.1777 13.4006L13.1797 13.4479C13.2366 14.1485 13.7125 14.6916 14.3707 14.8097L14.5047 14.8276L14.6432 14.8336C18.1771 14.8336 20 16.0361 20 19.2118C20 19.6471 19.645 20 19.207 20C18.7692 20 18.4141 19.647 18.4141 19.2118C18.4141 16.9866 17.3809 16.4099 14.6432 16.4099C14.2196 16.4099 13.8077 16.3233 13.4275 16.1586L13.3516 16.1219L10.2708 18.3408C10.0564 18.5021 9.77713 18.542 9.53001 18.4555L9.42636 18.4106L9.32833 18.3502L6.38389 16.2299L6.27181 16.2705C6.1251 16.3164 5.97481 16.3513 5.82196 16.3747L5.5909 16.401L5.35675 16.4099C2.61914 16.4099 1.58585 16.9867 1.58585 19.2118C1.58585 19.6471 1.23082 20 0.793004 20C0.355123 20 0 19.6471 0 19.2118C0 16.0361 1.82296 14.8336 5.35675 14.8336C6.07901 14.8336 6.68952 14.3066 6.80596 13.6134L6.80869 13.5902L6.63461 13.4723C6.00224 13.0226 5.45155 12.4968 5.0269 11.923L4.85276 11.6742L4.75582 11.518L3.45189 11.5181C2.7575 11.5181 2.17688 11.0221 2.04987 10.368L2.03062 10.2351L2.02407 10.0987V7.45544C2.02407 6.71906 2.59168 6.11143 3.31462 6.0425L3.45189 6.03598L4.20655 6.03515L4.20682 5.38813C4.20682 2.57298 6.38269 0.241088 9.13819 0.0175419L9.3569 0.0043033L9.5723 0H10.4276ZM11.7912 14.4606L11.7255 14.2697L11.7146 14.2761C11.0309 14.5975 10.388 14.7806 9.92684 14.7806C9.5372 14.7806 9.03954 14.6711 8.50392 14.4717L8.24115 14.368L8.17203 14.551C8.08934 14.7454 7.98645 14.9306 7.86526 15.1037L7.74325 15.2646L9.79217 16.7396L12.1118 15.0701L12.1007 15.0541C11.9759 14.8681 11.872 14.6691 11.7912 14.4606ZM9.89787 5.29172L9.79806 5.36875C8.66326 6.19045 7.28008 6.61004 5.86059 6.54079L5.79115 6.53502L5.78357 10.0052C5.98976 10.66 6.46269 11.2951 7.12358 11.8553L7.32741 12.0211C8.23111 12.7267 9.32375 13.2045 9.92684 13.2045C10.5442 13.2045 11.7775 12.5899 12.736 11.7368L12.9266 11.5607L12.9683 11.518H11.6781L11.6559 11.5449C11.466 11.7437 11.2118 11.872 10.9342 11.9045L10.7937 11.9128C10.1366 11.9128 9.60402 11.3832 9.60402 10.7301C9.60402 10.0768 10.1365 9.54723 10.7937 9.54723C11.1253 9.54723 11.4344 9.68324 11.656 9.91518L11.6791 9.9418H14.2071V6.5193L14.1359 6.52791C12.664 6.64568 11.2016 6.23769 10.0094 5.37705L9.89787 5.29172ZM4.50539 8.21002C4.50539 7.87993 4.2378 7.61234 3.90771 7.61234C3.57761 7.61234 3.31002 7.87993 3.31002 8.21002V9.34313C3.31002 9.67322 3.57761 9.94081 3.90771 9.94081C4.2378 9.94081 4.50539 9.67322 4.50539 9.34313V8.21002ZM16.6877 8.20903C16.6877 7.87949 16.4206 7.61234 16.0911 7.61234C15.7615 7.61234 15.4944 7.87949 15.4944 8.20903V9.34412C15.4944 9.67366 15.7615 9.94081 16.0911 9.94081C16.4206 9.94081 16.6877 9.67366 16.6877 9.34412V8.20903ZM12.1305 1.9861L12.1109 2.0653C11.9051 2.79867 11.5648 3.48128 11.1092 4.08462L11.0389 4.17119L11.0768 4.19837C11.9701 4.7935 13.0455 5.05972 14.1174 4.94948L14.1804 4.94113L14.1778 4.91196C14.0284 3.71499 13.3202 2.66412 12.2938 2.07398L12.1305 1.9861ZM10.4276 1.57648H9.5723C7.70638 1.57648 6.14471 2.94998 5.8446 4.75703L5.81585 4.96077L5.83907 4.96315C7.96865 5.11052 9.91998 3.77078 10.5474 1.77024L10.6013 1.5805L10.4276 1.57648Z" fill="#1A1A1A"/>
</svg>
