<svg width="20" height="20" viewBox="0 0 20 20" fill="none" xmlns="http://www.w3.org/2000/svg">
<path fill-rule="evenodd" clip-rule="evenodd" d="M13.3557 19.0252L19.022 13.3669C20.3379 12.0598 20.3111 10.7347 19.031 9.45442L10.2764 0.716244C9.60501 0.0447653 9.22904 0 8.28913 0H4.87859C3.92973 0 3.64328 0.232779 2.96296 0.904258L0.904106 2.96346C0.223789 3.64389 0 3.93934 0 4.88837V8.29053C0 9.2306 0.0447577 9.61558 0.716124 10.2871L9.44388 19.0342C10.724 20.3145 12.0398 20.3324 13.3557 19.0252ZM10.4106 17.9509L1.7366 9.26641C1.54862 9.08735 1.4412 8.89933 1.4412 8.60388V4.82569C1.4412 4.54815 1.53967 4.36014 1.7366 4.17212L4.17142 1.73689C4.3594 1.54888 4.54738 1.44144 4.82488 1.44144H8.59348C8.89784 1.44144 9.08582 1.55783 9.26485 1.73689L17.9568 10.4124C18.5924 11.0481 18.6013 11.7374 17.9478 12.391L12.3889 17.9419C11.7355 18.6044 11.0552 18.5955 10.4106 17.9509ZM5.92592 7.16244C6.63309 7.16244 7.15228 6.6163 7.15228 5.93587C7.15228 5.24649 6.63309 4.7093 5.92592 4.7093C5.2277 4.7093 4.69956 5.24649 4.69956 5.93587C4.69956 6.6163 5.2277 7.16244 5.92592 7.16244Z" fill="#1A1A1A"/>
</svg>
