<svg width="20" height="20" viewBox="0 0 20 20" fill="none" xmlns="http://www.w3.org/2000/svg">
<path fill-rule="evenodd" clip-rule="evenodd" d="M10 20C15.4706 20 20 15.4706 20 10C20 4.53922 15.4608 0 9.9902 0C4.52941 0 0 4.53922 0 10C0 15.4706 4.53922 20 10 20ZM10 18.3333C5.37255 18.3333 1.67647 14.6275 1.67647 10C1.67647 5.38235 5.36275 1.66667 9.9902 1.66667C14.6176 1.66667 18.3235 5.38235 18.3333 10C18.3431 14.6275 14.6275 18.3333 10 18.3333ZM9.9902 11.0588C10.3725 11.0588 10.6765 10.7647 10.6765 10.3725V3.76471C10.6765 3.38235 10.3725 3.08824 9.9902 3.08824C9.60784 3.08824 9.31373 3.38235 9.31373 3.76471V9.69608H4.87255C4.48039 9.69608 4.18627 9.9902 4.18627 10.3725C4.18627 10.7647 4.48039 11.0588 4.87255 11.0588H9.9902Z" fill="#1A1A1A"/>
</svg>
