<svg width="18" height="20" viewBox="0 0 18 20" fill="none" xmlns="http://www.w3.org/2000/svg">
<path fill-rule="evenodd" clip-rule="evenodd" d="M13.2676 20C14.5971 20 15.4897 19.1648 15.5548 17.8806L16.1963 4.82263H17.312C17.6932 4.82263 18 4.50831 18 4.1401C18 3.77189 17.6932 3.46655 17.312 3.46655H13.063V2.11944C13.063 0.826224 12.1612 0 10.7293 0H7.25207C5.82025 0 4.92769 0.826224 4.92769 2.11944V3.46655H0.688017C0.316116 3.46655 0 3.78087 0 4.1401C0 4.50831 0.316116 4.82263 0.688017 4.82263H1.81302L2.45455 17.8895C2.51963 19.1738 3.39359 20 4.74174 20H13.2676ZM11.5847 3.46655H6.41529V2.20925C6.41529 1.69735 6.79649 1.33812 7.36364 1.33812H10.6271C11.1942 1.33812 11.5847 1.69735 11.5847 2.20925V3.46655ZM13.1188 18.6439H4.8719C4.34194 18.6439 3.94215 18.2577 3.91426 17.7279L3.26343 4.82263H14.7087L14.095 17.7279C14.0671 18.2667 13.6767 18.6439 13.1188 18.6439ZM11.7614 17.0723C12.0682 17.0723 12.2913 16.8298 12.3006 16.4885L12.5795 7.0678C12.5888 6.73552 12.3564 6.48406 12.0403 6.48406C11.7521 6.48406 11.5103 6.7445 11.501 7.0678L11.2221 16.4796C11.2128 16.8119 11.4452 17.0723 11.7614 17.0723ZM6.24793 17.0723C6.56405 17.0723 6.79649 16.8119 6.78719 16.4796L6.49897 7.0678C6.48967 6.7445 6.24793 6.48406 5.95971 6.48406C5.64359 6.48406 5.41116 6.73552 5.42045 7.0678L5.69938 16.4885C5.70868 16.8298 5.93182 17.0723 6.24793 17.0723ZM9 17.0723C9.30682 17.0723 9.56715 16.8119 9.56715 16.4885V7.0678C9.56715 6.7445 9.30682 6.48406 9 6.48406C8.70248 6.48406 8.44215 6.7445 8.44215 7.0678V16.4885C8.44215 16.8119 8.70248 17.0723 9 17.0723Z" fill="#1A1A1A"/>
</svg>
