<svg width="20" height="16" viewBox="0 0 20 16" fill="none" xmlns="http://www.w3.org/2000/svg">
<path fill-rule="evenodd" clip-rule="evenodd" d="M19.8721 7.51461L16.8204 2.82315C16.676 2.60118 16.4304 2.46748 16.167 2.46748H12.3707V0.787402C12.3707 0.35252 12.0209 0 11.5894 0H0.78125C0.349766 0 0 0.35252 0 0.787402V13.6378C0 14.0727 0.349766 14.4252 0.78125 14.4252H3.25938C3.58188 15.3417 4.45027 16 5.46875 16C6.48723 16 7.35559 15.3417 7.67812 14.4252H13.1948C13.5173 15.3417 14.3857 16 15.4042 16C16.4227 16 17.291 15.3417 17.6136 14.4252H19.2188C19.6502 14.4252 20 14.0727 20 13.6378V7.94634C20 7.79295 19.9555 7.64287 19.8721 7.51461ZM5.46875 14.4252C5.03797 14.4252 4.6875 14.072 4.6875 13.6378C4.6875 13.2036 5.03797 12.8504 5.46875 12.8504C5.89953 12.8504 6.25 13.2036 6.25 13.6378C6.25 14.072 5.89953 14.4252 5.46875 14.4252ZM10.8082 12.8504H7.67809C7.35559 11.9339 6.48719 11.2756 5.46871 11.2756C4.45023 11.2756 3.58188 11.9339 3.25934 12.8504H1.5625V1.5748H10.8082V12.8504ZM15.4042 14.4252C14.9734 14.4252 14.6229 14.072 14.6229 13.6378C14.6229 13.2036 14.9734 12.8504 15.4042 12.8504C15.835 12.8504 16.1854 13.2036 16.1854 13.6378C16.1854 14.072 15.835 14.4252 15.4042 14.4252ZM18.4375 12.8504H17.6135C17.291 11.9339 16.4226 11.2756 15.4041 11.2756C14.3857 11.2756 13.5173 11.9339 13.1948 12.8504H12.3706V4.04228H15.745L18.4375 8.18146V12.8504Z" fill="#1A1A1A"/>
</svg>
