<svg width="18" height="22" viewBox="0 0 18 22" fill="none" xmlns="http://www.w3.org/2000/svg">
<path d="M8.50024 10.6268C8.32938 10.6268 8.16539 10.5588 8.04454 10.4379L6.30431 8.69769C6.05254 8.44609 6.05254 8.03788 6.30431 7.78628C6.55591 7.53451 6.96411 7.53451 7.21571 7.78628L8.50024 9.07064L10.8375 6.73338C11.0891 6.48178 11.4973 6.48178 11.7489 6.73338C12.0007 6.98515 12.0007 7.39318 11.7489 7.64495L8.95595 10.4379C8.8351 10.5588 8.67111 10.6268 8.50024 10.6268Z" fill="#1A1A1A"/>
<path fill-rule="evenodd" clip-rule="evenodd" d="M9.02652 2.93835C5.91263 2.93835 3.37915 5.47166 3.37915 8.58572C3.37915 11.6998 5.91263 14.2331 9.02652 14.2331C12.1406 14.2331 14.6741 11.6998 14.6741 8.58572C14.6741 5.47166 12.1406 2.93835 9.02652 2.93835ZM9.02652 12.944C6.62346 12.944 4.66821 10.989 4.66821 8.58572C4.66821 6.1825 6.62346 4.22742 9.02652 4.22742C11.4297 4.22742 13.385 6.1825 13.385 8.58572C13.385 10.989 11.4297 12.944 9.02652 12.944Z" fill="#1A1A1A"/>
<path fill-rule="evenodd" clip-rule="evenodd" d="M17.4817 10.0765C17.5719 9.56607 17.492 9.04255 17.2622 8.58568C17.492 8.1288 17.5717 7.60529 17.4817 7.0947C17.3918 6.58428 17.1378 6.11968 16.7655 5.76888C16.8253 5.26098 16.7212 4.74183 16.4619 4.29284C16.2027 3.84385 15.8051 3.49406 15.3355 3.2918C15.2178 2.79414 14.9425 2.34196 14.5454 2.00862C14.1481 1.67544 13.655 1.48275 13.1444 1.45338C12.8636 1.02588 12.4502 0.695052 11.9629 0.517806C11.4759 0.34056 10.9465 0.32814 10.4567 0.475173C10.0466 0.169525 9.54495 0 9.02647 0C8.50816 0 8.00647 0.169525 7.59642 0.475173C7.10664 0.32814 6.57725 0.34056 6.09 0.517806C5.60291 0.69522 5.1895 1.02604 4.90869 1.45338C4.39811 1.48292 3.9048 1.67544 3.50768 2.00862C3.11056 2.34196 2.83529 2.79414 2.71763 3.29197C2.24783 3.49423 1.85037 3.84385 1.59104 4.29284C1.33189 4.74183 1.22782 5.26098 1.28758 5.76888C0.915293 6.11968 0.661341 6.58428 0.571376 7.0947C0.481242 7.60529 0.561137 8.1288 0.790919 8.58568C0.561137 9.04255 0.481242 9.56607 0.571376 10.0765C0.661341 10.5871 0.915293 11.0517 1.28758 11.4025C1.22782 11.9104 1.33189 12.4295 1.59104 12.8785C1.85037 13.3275 2.24799 13.6771 2.71763 13.8794C2.79752 14.2176 2.95043 14.5348 3.16477 14.8079L1.2765 18.7597C1.16992 18.9826 1.2003 19.2468 1.35438 19.44C1.50863 19.633 1.75956 19.7209 2.00059 19.6662L4.84491 19.0212L6.12994 21.6394C6.2382 21.8601 6.46278 22 6.70851 22H6.71187C6.95894 21.9988 7.18352 21.8563 7.2901 21.6334L9.02647 17.9995L10.763 21.6334C10.8694 21.8563 11.094 21.9986 11.3411 22H11.3446C11.5902 22 11.8147 21.8601 11.9232 21.6394L13.2082 19.0212L16.0523 19.6662C16.2934 19.7209 16.5443 19.633 16.6986 19.44C16.8528 19.2468 16.883 18.9826 16.7764 18.7597L14.8882 14.8079C15.1025 14.5348 15.2554 14.2176 15.3353 13.8794C15.8051 13.6771 16.2027 13.3275 16.4619 12.8785C16.721 12.4295 16.8251 11.9104 16.7655 11.4025C17.1376 11.0517 17.3918 10.5871 17.4817 10.0765ZM15.9949 8.9823C16.1873 9.22853 16.2664 9.54576 16.2123 9.85275C16.1581 10.1597 15.9751 10.4306 15.7104 10.5963C15.4597 10.7531 15.3477 11.0604 15.439 11.3417C15.5356 11.6388 15.5015 11.9639 15.3455 12.234C15.1898 12.5039 14.9251 12.6961 14.6196 12.761C14.3304 12.8226 14.1201 13.0732 14.1097 13.3688C14.0986 13.6808 13.9554 13.9747 13.7166 14.1751C13.4778 14.3755 13.1635 14.4657 12.8542 14.4222C12.5613 14.3809 12.278 14.5447 12.1672 14.8188C12.0502 15.1084 11.8151 15.3356 11.522 15.4422C11.2291 15.5488 10.903 15.526 10.6272 15.3794C10.3659 15.2406 10.0438 15.2973 9.84589 15.5172C9.63693 15.7492 9.33816 15.8823 9.02647 15.8823C8.71478 15.8823 8.41601 15.7492 8.20704 15.5172C8.08149 15.3777 7.90609 15.3041 7.72801 15.3041C7.62512 15.3041 7.52139 15.3286 7.42572 15.3794C7.15011 15.526 6.82382 15.5488 6.53093 15.4422C6.23804 15.3356 6.00288 15.1084 5.88573 14.8188C5.77495 14.5447 5.49179 14.3812 5.19873 14.4222C4.88939 14.4655 4.57518 14.3755 4.33634 14.1751C4.09749 13.9747 3.95432 13.6808 3.94324 13.3688C3.93284 13.0732 3.72269 12.8226 3.43332 12.761C3.12801 12.6961 2.86332 12.5039 2.70739 12.234C2.55163 11.9639 2.51755 11.6388 2.6139 11.3417C2.70521 11.0604 2.59325 10.7531 2.34249 10.5963C2.0778 10.4306 1.89484 10.1597 1.8408 9.85275C1.78658 9.54576 1.86581 9.22853 2.05799 8.9823C2.23994 8.74916 2.23994 8.42219 2.05799 8.18906C1.86581 7.94282 1.78658 7.6256 1.8408 7.3186C1.89484 7.01161 2.0778 6.74054 2.34249 6.57505C2.59325 6.41828 2.70521 6.11095 2.6139 5.82964C2.51755 5.53255 2.55163 5.20743 2.70739 4.93737C2.86332 4.66747 3.12784 4.47529 3.43332 4.41033C3.72252 4.34873 3.93284 4.09814 3.94324 3.80256C3.95432 3.49053 4.09749 3.19663 4.33634 2.99623C4.57502 2.79582 4.88939 2.70585 5.19873 2.74916C5.49162 2.79045 5.77478 2.62663 5.88573 2.35237C6.00288 2.063 6.23804 1.83574 6.53093 1.72915C6.82382 1.6224 7.14995 1.6454 7.42572 1.79193C7.68689 1.93057 8.00915 1.87384 8.20704 1.65413C8.41618 1.42216 8.71478 1.28906 9.02647 1.28906C9.33833 1.28906 9.63693 1.42216 9.84589 1.65413C10.044 1.87384 10.366 1.93074 10.6272 1.79193C10.903 1.6454 11.2293 1.62257 11.5222 1.72915C11.8151 1.83574 12.0502 2.063 12.1672 2.35253C12.2782 2.62663 12.5615 2.79028 12.8544 2.74916C13.1635 2.70585 13.4779 2.79582 13.7168 2.99623C13.9554 3.19663 14.0988 3.49053 14.1097 3.80256C14.1203 4.0983 14.3304 4.34873 14.6198 4.41033C14.9251 4.47529 15.1898 4.66747 15.3455 4.93737C15.5015 5.20743 15.5356 5.53255 15.4392 5.82964C15.3479 6.11095 15.4597 6.41828 15.7104 6.57505C15.9753 6.74071 16.1583 7.01178 16.2123 7.3186C16.2665 7.6256 16.1873 7.94282 15.9951 8.18906C15.813 8.42219 15.813 8.74916 15.9949 8.9823ZM12.9965 17.6514C12.7053 17.5854 12.4069 17.7279 12.2753 17.996L11.3523 19.8769L9.96708 16.978C10.1403 16.9038 10.3048 16.8095 10.4567 16.6962C10.9465 16.8432 11.4759 16.8308 11.9631 16.6535C12.4502 16.4763 12.8636 16.1453 13.1444 15.718C13.3782 15.7045 13.608 15.6564 13.8269 15.5768L15.0397 18.1148L12.9965 17.6514ZM5.7778 17.996C5.6677 17.7719 5.44093 17.6354 5.1994 17.6354C5.15207 17.6354 5.10423 17.6407 5.05657 17.6514L3.01337 18.1146L4.22623 15.5766C4.4451 15.6564 4.67505 15.7044 4.90869 15.718C5.1895 16.1453 5.60291 16.4761 6.09 16.6534C6.57725 16.8308 7.10664 16.843 7.59642 16.6962C7.74832 16.8093 7.91281 16.9038 8.08602 16.9778L6.70079 19.8767L5.7778 17.996Z" fill="#1A1A1A"/>
</svg>
