<svg width="22" height="22" viewBox="0 0 22 22" fill="none" xmlns="http://www.w3.org/2000/svg">
<path fill-rule="evenodd" clip-rule="evenodd" d="M13.378 0L16.2261 3.61466L17.1749 3.36123L18.2123 7.06608C19.5437 7.24784 20.5845 8.32766 20.6689 9.65678L20.6744 9.83151V11.8766H20.9C21.467 11.8766 21.9338 12.3056 21.9935 12.8567L22 12.9766V16.0619C22 16.6289 21.571 17.0957 21.0199 17.1554L20.9 17.1619H20.6745V19.207C20.6745 20.69 19.4849 21.9068 17.9887 21.9949L17.8148 22H2.85967C1.34123 22 0.0954277 20.8381 0.0052289 19.3769L0 19.207V9.83159C0 8.34859 1.18956 7.13179 2.68573 7.04369L2.85967 7.03858H3.40824L4.34659 6.7879L13.378 0ZM17.8147 8.4547H2.85958C2.12793 8.4547 1.52477 9.00185 1.45634 9.69915L1.44988 9.83155V19.207C1.44988 19.9216 2.01008 20.5107 2.72402 20.5775L2.85958 20.5838H17.8146C18.5463 20.5838 19.1495 20.0367 19.2179 19.3394L19.2244 19.207V17.1619H14.7195C14.1525 17.1619 13.6857 16.7329 13.626 16.1817L13.6195 16.0619V12.9766C13.6195 12.4096 14.0485 11.9428 14.5997 11.8831L14.7195 11.8766H19.2244V9.83155C19.2244 9.11696 18.6642 8.52785 17.9503 8.46102L17.8147 8.4547ZM20.5499 13.2928H15.0695V15.7457H20.5499V13.2928ZM16.1587 5.10091L8.90479 7.03854H16.7013L16.1587 5.10091ZM13.1132 1.98602L8.03516 5.80263L14.7145 4.01839L13.1132 1.98602Z" fill="#1A1A1A"/>
</svg>
